<svg xmlns="http://www.w3.org/2000/svg" xml:space="preserve" viewBox="0 0 992 992"><style>.st1,.st2,.st3{display:inline}.st2,.st3{fill:#093333}.st3{fill:#126666}.st4,.st5,.st6{display:inline;fill:#1b9998}.st5,.st6{fill:#24cccb}.st6{fill:#009fe3}.st7{fill:#0ff}.st15,.st16{display:inline;fill:#2dfffe}.st16{fill:#009640}.st22{fill:#093333}.st23{fill:#126666}.st24{fill:#1b9998}.st25{fill:#24cccb}.st26{fill:#2dfffe}.st27{fill:#0aa}.st28{fill:#055}.st43{fill:#007171}</style><g id="Logo"><path d="M495.01 988.53H497c272.08 0 492.53-219.45 492.53-492.53S770.07 3.47 496.99 3.47H495C221.93 3.47 2.48 222.93 2.48 496s220.45 492.53 492.53 492.53z" class="st7"/><path fill="#00eded" d="M495.5 938h.99c276.05 0 464.72-180.72 464.72-424.01 0-254.21-206.54-479.62-464.72-479.62h-.99c-258.18 0-464.72 225.41-464.72 479.62C30.78 757.27 219.45 938 495.5 938z"/><path fill="#00dcdc" d="M515.86 887.96c303.86 0 417.06-164.84 417.06-357.48 0-264.14-213.49-465.71-436.92-465.71S59.08 266.35 59.08 530.49c0 192.64 113.2 357.48 417.06 357.48h39.72z"/><path fill="#00caca" d="M572.46 837.43H419.54c-259.17 0-333.65-139.02-333.65-285.98C85.89 321.08 280.52 95.67 495 95.67h1.99c214.49 0 409.11 225.41 409.11 455.78.01 146.96-74.47 285.98-333.64 285.98z"/><path fill="#00b8b8" d="M310.31 790.72c63.55 0 122.14-3.97 184.7-3.97H497c62.56 0 121.15 3.97 184.7 3.97 129.09 0 197.61-105.26 197.61-235.34 0-188.67-192.64-428.97-382.3-428.97h-1.99c-189.66 0-382.3 240.3-382.3 428.97-.02 130.08 68.5 235.34 197.59 235.34z"/><path fill="#00a6a6" d="M293.43 757.92c54.61 0 115.19-20.85 201.58-20.85H497c86.39 0 146.96 20.85 201.58 20.85 104.26 0 153.91-85.4 153.91-183.7 0-102.28-56.6-205.55-117.17-275.06-56.6-65.54-135.05-142-238.32-142h-1.99c-103.27 0-181.72 76.46-238.32 142-60.57 69.51-117.17 172.78-117.17 275.06 0 98.3 49.64 183.7 153.91 183.7z"/><path fill="#009494" d="M274.56 728.17c62.56 0 128.1-43.69 220.44-43.69h1.99c92.35 0 157.89 43.69 220.44 43.69 67.52 0 109.23-65.54 109.23-143.98 0-93.34-61.57-199.59-123.13-269.1-64.54-72.49-125.12-128.1-206.54-128.1H495c-81.43 0-142 55.61-206.54 128.1-61.57 69.51-123.13 175.76-123.13 269.1 0 78.45 41.71 143.98 109.23 143.98z"/><path fill="#008383" d="M275.06 703.24c57.59 0 122.14-67.52 217.47-67.52h6.95c95.33 0 159.87 67.52 217.47 67.52 50.64 0 84.4-50.64 84.4-106.25 0-74.47-59.58-174.77-107.24-233.35-52.63-65.54-119.16-144.98-194.63-144.98h-6.95c-75.47 0-142 79.44-194.63 144.98-47.66 58.59-107.24 158.88-107.24 233.35-.01 55.6 33.76 106.25 84.4 106.25z"/><path d="M492.03 585.81c-51.64 0-96.32 30.78-138.03 57.59-37.73 23.83-56.6 34.75-77.45 34.75-34.75 0-61.57-29.79-61.57-72.49 0-71.5 77.45-175.76 121.15-232.36 40.71-52.63 91.36-124.12 156.89-124.12h5.96c65.54 0 116.18 71.5 156.89 124.12 43.69 56.6 121.15 160.87 121.15 232.36 0 42.7-26.81 72.49-61.57 72.49-20.85 0-39.72-10.92-77.45-34.75-41.71-26.81-86.39-57.59-138.03-57.59h-7.94z" class="st43"/><path d="M496 280.16c-44.68 0-66.53 26.81-105.26 78.45-47.66 64.54-95.33 135.05-126.11 182.71-21.85 34.75-26.81 51.64-26.81 65.54 0 28.8 19.86 46.67 45.68 46.67 22.84 0 39.72-13.9 72.49-40.71 44.68-37.73 87.38-77.45 140.01-77.45s95.33 39.72 140.01 77.45c32.77 26.81 49.65 40.71 72.49 40.71 25.82 0 45.68-17.87 45.68-46.67 0-13.9-4.96-30.78-26.81-65.54-30.78-47.66-78.45-118.17-126.11-182.71-38.73-51.64-60.58-78.45-105.26-78.45z"/></g></svg>