<svg width="207" height="54" viewBox="0 0 207 54" fill="none" xmlns="http://www.w3.org/2000/svg">
<mask id="mask0" mask-type="alpha" maskUnits="userSpaceOnUse" x="8" y="8" width="46" height="46">
<path d="M16 54H8V13L13 8H54V16H22L16 22V54Z" fill="#C4C4C4"/>
</mask>
<g mask="url(#mask0)">
<g clip-path="url(#clip0)">
<line x1="59.8536" y1="-1681.15" x2="-1707.91" y2="86.6203" stroke="white"/>
<line x1="59.8536" y1="-1271.65" x2="-1707.91" y2="496.12" stroke="white"/>
<line x1="59.8536" y1="-751.646" x2="-1707.91" y2="1016.12" stroke="white"/>
<line x1="59.8536" y1="-231.646" x2="-1707.91" y2="1536.12" stroke="white"/>
<line x1="59.8536" y1="-1674.65" x2="-1707.91" y2="93.1203" stroke="white"/>
<line x1="59.8536" y1="-1258.65" x2="-1707.91" y2="509.12" stroke="white"/>
<line x1="59.8536" y1="-738.646" x2="-1707.91" y2="1029.12" stroke="white"/>
<line x1="59.8536" y1="-218.646" x2="-1707.91" y2="1549.12" stroke="white"/>
<line x1="59.8536" y1="-1668.15" x2="-1707.91" y2="99.6203" stroke="white"/>
<line x1="59.8536" y1="-1245.65" x2="-1707.91" y2="522.12" stroke="white"/>
<line x1="59.8536" y1="-725.646" x2="-1707.91" y2="1042.12" stroke="white"/>
<line x1="59.8536" y1="-205.646" x2="-1707.91" y2="1562.12" stroke="white"/>
<line x1="59.8536" y1="-1661.65" x2="-1707.91" y2="106.12" stroke="white"/>
<line x1="59.8536" y1="-1232.65" x2="-1707.91" y2="535.12" stroke="white"/>
<line x1="59.8536" y1="-712.646" x2="-1707.91" y2="1055.12" stroke="white"/>
<line x1="59.8536" y1="-192.646" x2="-1707.91" y2="1575.12" stroke="white"/>
<line x1="59.8536" y1="-1655.15" x2="-1707.91" y2="112.62" stroke="white"/>
<line x1="59.8536" y1="-1219.65" x2="-1707.91" y2="548.12" stroke="white"/>
<line x1="59.8536" y1="-699.646" x2="-1707.91" y2="1068.12" stroke="white"/>
<line x1="59.8536" y1="-179.646" x2="-1707.91" y2="1588.12" stroke="white"/>
<line x1="59.8536" y1="-1648.65" x2="-1707.91" y2="119.12" stroke="white"/>
<line x1="59.8536" y1="-1206.65" x2="-1707.91" y2="561.12" stroke="white"/>
<line x1="59.8536" y1="-686.646" x2="-1707.91" y2="1081.12" stroke="white"/>
<line x1="59.8536" y1="-166.646" x2="-1707.91" y2="1601.12" stroke="white"/>
<line x1="59.8536" y1="-1642.15" x2="-1707.91" y2="125.62" stroke="white"/>
<line x1="59.8536" y1="-1193.65" x2="-1707.91" y2="574.12" stroke="white"/>
<line x1="59.8536" y1="-673.646" x2="-1707.91" y2="1094.12" stroke="white"/>
<line x1="59.8536" y1="-153.646" x2="-1707.91" y2="1614.12" stroke="white"/>
<line x1="59.8536" y1="-1635.65" x2="-1707.91" y2="132.12" stroke="white"/>
<line x1="59.8536" y1="-1180.65" x2="-1707.91" y2="587.12" stroke="white"/>
<line x1="59.8536" y1="-660.646" x2="-1707.91" y2="1107.12" stroke="white"/>
<line x1="59.8536" y1="-140.646" x2="-1707.91" y2="1627.12" stroke="white"/>
<line x1="59.8536" y1="-1629.15" x2="-1707.91" y2="138.62" stroke="white"/>
<line x1="59.8536" y1="-1167.65" x2="-1707.91" y2="600.12" stroke="white"/>
<line x1="59.8536" y1="-647.646" x2="-1707.91" y2="1120.12" stroke="white"/>
<line x1="59.8536" y1="-127.646" x2="-1707.91" y2="1640.12" stroke="white"/>
<line x1="59.8536" y1="-1622.65" x2="-1707.91" y2="145.12" stroke="white"/>
<line x1="59.8536" y1="-1154.65" x2="-1707.91" y2="613.12" stroke="white"/>
<line x1="59.8536" y1="-634.646" x2="-1707.91" y2="1133.12" stroke="white"/>
<line x1="59.8536" y1="-114.646" x2="-1707.91" y2="1653.12" stroke="white"/>
<line x1="59.8536" y1="-1616.15" x2="-1707.91" y2="151.62" stroke="white"/>
<line x1="59.8536" y1="-1141.65" x2="-1707.91" y2="626.12" stroke="white"/>
<line x1="59.8536" y1="-621.646" x2="-1707.91" y2="1146.12" stroke="white"/>
<line x1="59.8536" y1="-101.646" x2="-1707.91" y2="1666.12" stroke="white"/>
<line x1="59.8536" y1="-1609.65" x2="-1707.91" y2="158.12" stroke="white"/>
<line x1="59.8536" y1="-1128.65" x2="-1707.91" y2="639.12" stroke="white"/>
<line x1="59.8536" y1="-608.646" x2="-1707.91" y2="1159.12" stroke="white"/>
<line x1="59.8536" y1="-88.6464" x2="-1707.91" y2="1679.12" stroke="white"/>
<line x1="59.8536" y1="-1603.15" x2="-1707.91" y2="164.62" stroke="white"/>
<line x1="59.8536" y1="-1115.65" x2="-1707.91" y2="652.12" stroke="white"/>
<line x1="59.8536" y1="-595.646" x2="-1707.91" y2="1172.12" stroke="white"/>
<line x1="59.8536" y1="-75.6464" x2="-1707.91" y2="1692.12" stroke="white"/>
<line x1="59.8536" y1="-1596.65" x2="-1707.91" y2="171.12" stroke="white"/>
<line x1="59.8536" y1="-1102.65" x2="-1707.91" y2="665.12" stroke="white"/>
<line x1="59.8536" y1="-582.646" x2="-1707.91" y2="1185.12" stroke="white"/>
<line x1="59.8536" y1="-62.6464" x2="-1707.91" y2="1705.12" stroke="white"/>
<line x1="59.8536" y1="-1590.15" x2="-1707.91" y2="177.62" stroke="white"/>
<line x1="59.8536" y1="-1089.65" x2="-1707.91" y2="678.12" stroke="white"/>
<line x1="59.8536" y1="-569.646" x2="-1707.91" y2="1198.12" stroke="white"/>
<line x1="59.8536" y1="-49.6464" x2="-1707.91" y2="1718.12" stroke="white"/>
<line x1="59.8536" y1="-1583.65" x2="-1707.91" y2="184.12" stroke="white"/>
<line x1="59.8536" y1="-1076.65" x2="-1707.91" y2="691.12" stroke="white"/>
<line x1="59.8536" y1="-556.646" x2="-1707.91" y2="1211.12" stroke="white"/>
<line x1="59.8536" y1="-36.6464" x2="-1707.91" y2="1731.12" stroke="white"/>
<line x1="59.8536" y1="-1577.15" x2="-1707.91" y2="190.62" stroke="white"/>
<line x1="59.8536" y1="-1063.65" x2="-1707.91" y2="704.12" stroke="white"/>
<line x1="59.8536" y1="-543.646" x2="-1707.91" y2="1224.12" stroke="white"/>
<line x1="59.8536" y1="-23.6464" x2="-1707.91" y2="1744.12" stroke="white"/>
<line x1="59.8536" y1="-1570.65" x2="-1707.91" y2="197.12" stroke="white"/>
<line x1="59.8536" y1="-1050.65" x2="-1707.91" y2="717.12" stroke="white"/>
<line x1="59.8536" y1="-530.646" x2="-1707.91" y2="1237.12" stroke="white"/>
<line x1="59.8536" y1="-10.6464" x2="-1707.91" y2="1757.12" stroke="white"/>
<line x1="59.8536" y1="-1564.15" x2="-1707.91" y2="203.62" stroke="white"/>
<line x1="59.8536" y1="-1044.15" x2="-1707.91" y2="723.62" stroke="white"/>
<line x1="59.8536" y1="-524.146" x2="-1707.91" y2="1243.62" stroke="white"/>
<line x1="59.8536" y1="-4.14645" x2="-1707.91" y2="1763.62" stroke="white"/>
<line x1="59.8536" y1="-1557.65" x2="-1707.91" y2="210.12" stroke="white"/>
<line x1="59.8536" y1="-1037.65" x2="-1707.91" y2="730.12" stroke="white"/>
<line x1="59.8536" y1="-517.646" x2="-1707.91" y2="1250.12" stroke="white"/>
<line x1="59.8536" y1="2.35355" x2="-1707.91" y2="1770.12" stroke="white"/>
<line x1="59.8536" y1="-1551.15" x2="-1707.91" y2="216.62" stroke="white"/>
<line x1="59.8536" y1="-1031.15" x2="-1707.91" y2="736.62" stroke="white"/>
<line x1="59.8536" y1="-511.146" x2="-1707.91" y2="1256.62" stroke="white"/>
<line x1="59.8536" y1="8.85355" x2="-1707.91" y2="1776.62" stroke="white"/>
<line x1="59.8536" y1="-1544.65" x2="-1707.91" y2="223.12" stroke="white"/>
<line x1="59.8536" y1="-1024.65" x2="-1707.91" y2="743.12" stroke="white"/>
<line x1="59.8536" y1="-504.646" x2="-1707.91" y2="1263.12" stroke="white"/>
<line x1="59.8536" y1="15.3536" x2="-1707.91" y2="1783.12" stroke="white"/>
<line x1="59.8536" y1="-1538.15" x2="-1707.91" y2="229.62" stroke="white"/>
<line x1="59.8536" y1="-1018.15" x2="-1707.91" y2="749.62" stroke="white"/>
<line x1="59.8536" y1="-498.146" x2="-1707.91" y2="1269.62" stroke="white"/>
<line x1="59.8536" y1="21.8536" x2="-1707.91" y2="1789.62" stroke="white"/>
<line x1="59.8536" y1="-1531.65" x2="-1707.91" y2="236.12" stroke="white"/>
<line x1="59.8536" y1="-1011.65" x2="-1707.91" y2="756.12" stroke="white"/>
<line x1="59.8536" y1="-491.646" x2="-1707.91" y2="1276.12" stroke="white"/>
<line x1="59.8536" y1="28.3536" x2="-1707.91" y2="1796.12" stroke="white"/>
<line x1="59.8536" y1="-1525.15" x2="-1707.91" y2="242.62" stroke="white"/>
<line x1="59.8536" y1="-1005.15" x2="-1707.91" y2="762.62" stroke="white"/>
<line x1="59.8536" y1="-485.146" x2="-1707.91" y2="1282.62" stroke="white"/>
<line x1="59.8536" y1="34.8536" x2="-1707.91" y2="1802.62" stroke="white"/>
<line x1="59.8536" y1="-1518.65" x2="-1707.91" y2="249.12" stroke="white"/>
<line x1="59.8536" y1="-998.646" x2="-1707.91" y2="769.12" stroke="white"/>
<line x1="59.8536" y1="-478.646" x2="-1707.91" y2="1289.12" stroke="white"/>
<line x1="59.8536" y1="41.3536" x2="-1707.91" y2="1809.12" stroke="white"/>
<line x1="59.8536" y1="-1512.15" x2="-1707.91" y2="255.62" stroke="white"/>
<line x1="59.8536" y1="-992.146" x2="-1707.91" y2="775.62" stroke="white"/>
<line x1="59.8536" y1="-472.146" x2="-1707.91" y2="1295.62" stroke="white"/>
<line x1="59.8536" y1="47.8536" x2="-1707.91" y2="1815.62" stroke="white"/>
<line x1="59.8536" y1="-1505.65" x2="-1707.91" y2="262.12" stroke="white"/>
<line x1="59.8536" y1="-985.646" x2="-1707.91" y2="782.12" stroke="white"/>
<line x1="59.8536" y1="-465.646" x2="-1707.91" y2="1302.12" stroke="white"/>
<line x1="59.8536" y1="-1499.15" x2="-1707.91" y2="268.62" stroke="white"/>
<line x1="59.8536" y1="-979.146" x2="-1707.91" y2="788.62" stroke="white"/>
<line x1="59.8536" y1="-459.146" x2="-1707.91" y2="1308.62" stroke="white"/>
<line x1="59.8536" y1="-1492.65" x2="-1707.91" y2="275.12" stroke="white"/>
<line x1="59.8536" y1="-972.646" x2="-1707.91" y2="795.12" stroke="white"/>
<line x1="59.8536" y1="-452.646" x2="-1707.91" y2="1315.12" stroke="white"/>
<line x1="59.8536" y1="-1486.15" x2="-1707.91" y2="281.62" stroke="white"/>
<line x1="59.8536" y1="-966.146" x2="-1707.91" y2="801.62" stroke="white"/>
<line x1="59.8536" y1="-446.146" x2="-1707.91" y2="1321.62" stroke="white"/>
<line x1="59.8536" y1="-1479.65" x2="-1707.91" y2="288.12" stroke="white"/>
<line x1="59.8536" y1="-959.646" x2="-1707.91" y2="808.12" stroke="white"/>
<line x1="59.8536" y1="-439.646" x2="-1707.91" y2="1328.12" stroke="white"/>
<line x1="59.8536" y1="-1473.15" x2="-1707.91" y2="294.62" stroke="white"/>
<line x1="59.8536" y1="-953.146" x2="-1707.91" y2="814.62" stroke="white"/>
<line x1="59.8536" y1="-433.146" x2="-1707.91" y2="1334.62" stroke="white"/>
<line x1="59.8536" y1="-1466.65" x2="-1707.91" y2="301.12" stroke="white"/>
<line x1="59.8536" y1="-946.646" x2="-1707.91" y2="821.12" stroke="white"/>
<line x1="59.8536" y1="-426.646" x2="-1707.91" y2="1341.12" stroke="white"/>
<line x1="59.8536" y1="-1460.15" x2="-1707.91" y2="307.62" stroke="white"/>
<line x1="59.8536" y1="-940.146" x2="-1707.91" y2="827.62" stroke="white"/>
<line x1="59.8536" y1="-420.146" x2="-1707.91" y2="1347.62" stroke="white"/>
<line x1="59.8536" y1="-1453.65" x2="-1707.91" y2="314.12" stroke="white"/>
<line x1="59.8536" y1="-933.646" x2="-1707.91" y2="834.12" stroke="white"/>
<line x1="59.8536" y1="-413.646" x2="-1707.91" y2="1354.12" stroke="white"/>
<line x1="59.8536" y1="-1447.15" x2="-1707.91" y2="320.62" stroke="white"/>
<line x1="59.8536" y1="-927.146" x2="-1707.91" y2="840.62" stroke="white"/>
<line x1="59.8536" y1="-407.146" x2="-1707.91" y2="1360.62" stroke="white"/>
<line x1="59.8536" y1="-1440.65" x2="-1707.91" y2="327.12" stroke="white"/>
<line x1="59.8536" y1="-920.646" x2="-1707.91" y2="847.12" stroke="white"/>
<line x1="59.8536" y1="-400.646" x2="-1707.91" y2="1367.12" stroke="white"/>
<line x1="59.8536" y1="-1434.15" x2="-1707.91" y2="333.62" stroke="white"/>
<line x1="59.8536" y1="-914.146" x2="-1707.91" y2="853.62" stroke="white"/>
<line x1="59.8536" y1="-394.146" x2="-1707.91" y2="1373.62" stroke="white"/>
<line x1="59.8536" y1="-1427.65" x2="-1707.91" y2="340.12" stroke="white"/>
<line x1="59.8536" y1="-907.646" x2="-1707.91" y2="860.12" stroke="white"/>
<line x1="59.8536" y1="-387.646" x2="-1707.91" y2="1380.12" stroke="white"/>
<line x1="59.8536" y1="-1421.15" x2="-1707.91" y2="346.62" stroke="white"/>
<line x1="59.8536" y1="-901.146" x2="-1707.91" y2="866.62" stroke="white"/>
<line x1="59.8536" y1="-381.146" x2="-1707.91" y2="1386.62" stroke="white"/>
<line x1="59.8536" y1="-1414.65" x2="-1707.91" y2="353.12" stroke="white"/>
<line x1="59.8536" y1="-894.646" x2="-1707.91" y2="873.12" stroke="white"/>
<line x1="59.8536" y1="-374.646" x2="-1707.91" y2="1393.12" stroke="white"/>
<line x1="59.8536" y1="-1408.15" x2="-1707.91" y2="359.62" stroke="white"/>
<line x1="59.8536" y1="-888.146" x2="-1707.91" y2="879.62" stroke="white"/>
<line x1="59.8536" y1="-368.146" x2="-1707.91" y2="1399.62" stroke="white"/>
<line x1="59.8536" y1="-1401.65" x2="-1707.91" y2="366.12" stroke="white"/>
<line x1="59.8536" y1="-881.646" x2="-1707.91" y2="886.12" stroke="white"/>
<line x1="59.8536" y1="-361.646" x2="-1707.91" y2="1406.12" stroke="white"/>
<line x1="59.8536" y1="-1395.15" x2="-1707.91" y2="372.62" stroke="white"/>
<line x1="59.8536" y1="-875.146" x2="-1707.91" y2="892.62" stroke="white"/>
<line x1="59.8536" y1="-355.146" x2="-1707.91" y2="1412.62" stroke="white"/>
<line x1="59.8536" y1="-1388.65" x2="-1707.91" y2="379.12" stroke="white"/>
<line x1="59.8536" y1="-868.646" x2="-1707.91" y2="899.12" stroke="white"/>
<line x1="59.8536" y1="-348.646" x2="-1707.91" y2="1419.12" stroke="white"/>
<line x1="59.8536" y1="-1382.15" x2="-1707.91" y2="385.62" stroke="white"/>
<line x1="59.8536" y1="-862.146" x2="-1707.91" y2="905.62" stroke="white"/>
<line x1="59.8536" y1="-342.146" x2="-1707.91" y2="1425.62" stroke="white"/>
<line x1="59.8536" y1="-1375.65" x2="-1707.91" y2="392.12" stroke="white"/>
<line x1="59.8536" y1="-855.646" x2="-1707.91" y2="912.12" stroke="white"/>
<line x1="59.8536" y1="-335.646" x2="-1707.91" y2="1432.12" stroke="white"/>
<line x1="59.8536" y1="-1369.15" x2="-1707.91" y2="398.62" stroke="white"/>
<line x1="59.8536" y1="-849.146" x2="-1707.91" y2="918.62" stroke="white"/>
<line x1="59.8536" y1="-329.146" x2="-1707.91" y2="1438.62" stroke="white"/>
<line x1="59.8536" y1="-1362.65" x2="-1707.91" y2="405.12" stroke="white"/>
<line x1="59.8536" y1="-842.646" x2="-1707.91" y2="925.12" stroke="white"/>
<line x1="59.8536" y1="-322.646" x2="-1707.91" y2="1445.12" stroke="white"/>
<line x1="59.8536" y1="-1356.15" x2="-1707.91" y2="411.62" stroke="white"/>
<line x1="59.8536" y1="-836.146" x2="-1707.91" y2="931.62" stroke="white"/>
<line x1="59.8536" y1="-316.146" x2="-1707.91" y2="1451.62" stroke="white"/>
<line x1="59.8536" y1="-1349.65" x2="-1707.91" y2="418.12" stroke="white"/>
<line x1="59.8536" y1="-829.646" x2="-1707.91" y2="938.12" stroke="white"/>
<line x1="59.8536" y1="-309.646" x2="-1707.91" y2="1458.12" stroke="white"/>
<line x1="59.8536" y1="-1343.15" x2="-1707.91" y2="424.62" stroke="white"/>
<line x1="59.8536" y1="-823.146" x2="-1707.91" y2="944.62" stroke="white"/>
<line x1="59.8536" y1="-303.146" x2="-1707.91" y2="1464.62" stroke="white"/>
<line x1="59.8536" y1="-1336.65" x2="-1707.91" y2="431.12" stroke="white"/>
<line x1="59.8536" y1="-816.646" x2="-1707.91" y2="951.12" stroke="white"/>
<line x1="59.8536" y1="-296.646" x2="-1707.91" y2="1471.12" stroke="white"/>
<line x1="59.8536" y1="-1330.15" x2="-1707.91" y2="437.62" stroke="white"/>
<line x1="59.8536" y1="-810.146" x2="-1707.91" y2="957.62" stroke="white"/>
<line x1="59.8536" y1="-290.146" x2="-1707.91" y2="1477.62" stroke="white"/>
<line x1="59.8536" y1="-1323.65" x2="-1707.91" y2="444.12" stroke="white"/>
<line x1="59.8536" y1="-803.646" x2="-1707.91" y2="964.12" stroke="white"/>
<line x1="59.8536" y1="-283.646" x2="-1707.91" y2="1484.12" stroke="white"/>
<line x1="59.8536" y1="-1317.15" x2="-1707.91" y2="450.62" stroke="white"/>
<line x1="59.8536" y1="-797.146" x2="-1707.91" y2="970.62" stroke="white"/>
<line x1="59.8536" y1="-277.146" x2="-1707.91" y2="1490.62" stroke="white"/>
<line x1="59.8536" y1="-1310.65" x2="-1707.91" y2="457.12" stroke="white"/>
<line x1="59.8536" y1="-790.646" x2="-1707.91" y2="977.12" stroke="white"/>
<line x1="59.8536" y1="-270.646" x2="-1707.91" y2="1497.12" stroke="white"/>
<line x1="59.8536" y1="-1304.15" x2="-1707.91" y2="463.62" stroke="white"/>
<line x1="59.8536" y1="-784.146" x2="-1707.91" y2="983.62" stroke="white"/>
<line x1="59.8536" y1="-264.146" x2="-1707.91" y2="1503.62" stroke="white"/>
<line x1="59.8536" y1="-1297.65" x2="-1707.91" y2="470.12" stroke="white"/>
<line x1="59.8536" y1="-777.646" x2="-1707.91" y2="990.12" stroke="white"/>
<line x1="59.8536" y1="-257.646" x2="-1707.91" y2="1510.12" stroke="white"/>
<line x1="59.8536" y1="-1291.15" x2="-1707.91" y2="476.62" stroke="white"/>
<line x1="59.8536" y1="-771.146" x2="-1707.91" y2="996.62" stroke="white"/>
<line x1="59.8536" y1="-251.146" x2="-1707.91" y2="1516.62" stroke="white"/>
<line x1="59.8536" y1="-1284.65" x2="-1707.91" y2="483.12" stroke="white"/>
<line x1="59.8536" y1="-764.646" x2="-1707.91" y2="1003.12" stroke="white"/>
<line x1="59.8536" y1="-244.646" x2="-1707.91" y2="1523.12" stroke="white"/>
<line x1="59.8536" y1="-1278.15" x2="-1707.91" y2="489.62" stroke="white"/>
<line x1="59.8536" y1="-758.146" x2="-1707.91" y2="1009.62" stroke="white"/>
<line x1="59.8536" y1="-238.146" x2="-1707.91" y2="1529.62" stroke="white"/>
<line x1="59.8536" y1="-1265.15" x2="-1707.91" y2="502.62" stroke="white"/>
<line x1="59.8536" y1="-745.146" x2="-1707.91" y2="1022.62" stroke="white"/>
<line x1="59.8536" y1="-225.146" x2="-1707.91" y2="1542.62" stroke="white"/>
<line x1="59.8536" y1="-1252.15" x2="-1707.91" y2="515.62" stroke="white"/>
<line x1="59.8536" y1="-732.146" x2="-1707.91" y2="1035.62" stroke="white"/>
<line x1="59.8536" y1="-212.146" x2="-1707.91" y2="1555.62" stroke="white"/>
<line x1="59.8536" y1="-1239.15" x2="-1707.91" y2="528.62" stroke="white"/>
<line x1="59.8536" y1="-719.146" x2="-1707.91" y2="1048.62" stroke="white"/>
<line x1="59.8536" y1="-199.146" x2="-1707.91" y2="1568.62" stroke="white"/>
<line x1="59.8536" y1="-1226.15" x2="-1707.91" y2="541.62" stroke="white"/>
<line x1="59.8536" y1="-706.146" x2="-1707.91" y2="1061.62" stroke="white"/>
<line x1="59.8536" y1="-186.146" x2="-1707.91" y2="1581.62" stroke="white"/>
<line x1="59.8536" y1="-1213.15" x2="-1707.91" y2="554.62" stroke="white"/>
<line x1="59.8536" y1="-693.146" x2="-1707.91" y2="1074.62" stroke="white"/>
<line x1="59.8536" y1="-173.146" x2="-1707.91" y2="1594.62" stroke="white"/>
<line x1="59.8536" y1="-1200.15" x2="-1707.91" y2="567.62" stroke="white"/>
<line x1="59.8536" y1="-680.146" x2="-1707.91" y2="1087.62" stroke="white"/>
<line x1="59.8536" y1="-160.146" x2="-1707.91" y2="1607.62" stroke="white"/>
<line x1="59.8536" y1="-1187.15" x2="-1707.91" y2="580.62" stroke="white"/>
<line x1="59.8536" y1="-667.146" x2="-1707.91" y2="1100.62" stroke="white"/>
<line x1="59.8536" y1="-147.146" x2="-1707.91" y2="1620.62" stroke="white"/>
<line x1="59.8536" y1="-1174.15" x2="-1707.91" y2="593.62" stroke="white"/>
<line x1="59.8536" y1="-654.146" x2="-1707.91" y2="1113.62" stroke="white"/>
<line x1="59.8536" y1="-134.146" x2="-1707.91" y2="1633.62" stroke="white"/>
<line x1="59.8536" y1="-1161.15" x2="-1707.91" y2="606.62" stroke="white"/>
<line x1="59.8536" y1="-641.146" x2="-1707.91" y2="1126.62" stroke="white"/>
<line x1="59.8536" y1="-121.146" x2="-1707.91" y2="1646.62" stroke="white"/>
<line x1="59.8536" y1="-1148.15" x2="-1707.91" y2="619.62" stroke="white"/>
<line x1="59.8536" y1="-628.146" x2="-1707.91" y2="1139.62" stroke="white"/>
<line x1="59.8536" y1="-108.146" x2="-1707.91" y2="1659.62" stroke="white"/>
<line x1="59.8536" y1="-1135.15" x2="-1707.91" y2="632.62" stroke="white"/>
<line x1="59.8536" y1="-615.146" x2="-1707.91" y2="1152.62" stroke="white"/>
<line x1="59.8536" y1="-95.1464" x2="-1707.91" y2="1672.62" stroke="white"/>
<line x1="59.8536" y1="-1122.15" x2="-1707.91" y2="645.62" stroke="white"/>
<line x1="59.8536" y1="-602.146" x2="-1707.91" y2="1165.62" stroke="white"/>
<line x1="59.8536" y1="-82.1464" x2="-1707.91" y2="1685.62" stroke="white"/>
<line x1="59.8536" y1="-1109.15" x2="-1707.91" y2="658.62" stroke="white"/>
<line x1="59.8536" y1="-589.146" x2="-1707.91" y2="1178.62" stroke="white"/>
<line x1="59.8536" y1="-69.1464" x2="-1707.91" y2="1698.62" stroke="white"/>
<line x1="59.8536" y1="-1096.15" x2="-1707.91" y2="671.62" stroke="white"/>
<line x1="59.8536" y1="-576.146" x2="-1707.91" y2="1191.62" stroke="white"/>
<line x1="59.8536" y1="-56.1464" x2="-1707.91" y2="1711.62" stroke="white"/>
<line x1="59.8536" y1="-1083.15" x2="-1707.91" y2="684.62" stroke="white"/>
<line x1="59.8536" y1="-563.146" x2="-1707.91" y2="1204.62" stroke="white"/>
<line x1="59.8536" y1="-43.1464" x2="-1707.91" y2="1724.62" stroke="white"/>
<line x1="59.8536" y1="-1070.15" x2="-1707.91" y2="697.62" stroke="white"/>
<line x1="59.8536" y1="-550.146" x2="-1707.91" y2="1217.62" stroke="white"/>
<line x1="59.8536" y1="-30.1464" x2="-1707.91" y2="1737.62" stroke="white"/>
<line x1="59.8536" y1="-1057.15" x2="-1707.91" y2="710.62" stroke="white"/>
<line x1="59.8536" y1="-537.146" x2="-1707.91" y2="1230.62" stroke="white"/>
<line x1="59.8536" y1="-17.1464" x2="-1707.91" y2="1750.62" stroke="white"/>
</g>
</g>
<path d="M28.98 43.24C27.78 43.24 26.76 43.0267 25.92 42.6C25.0933 42.1733 24.38 41.6133 23.78 40.92L25.56 39.2C26.04 39.76 26.5733 40.1867 27.16 40.48C27.76 40.7733 28.42 40.92 29.14 40.92C29.9533 40.92 30.5667 40.7467 30.98 40.4C31.3933 40.04 31.6 39.56 31.6 38.96C31.6 38.4933 31.4667 38.1133 31.2 37.82C30.9333 37.5267 30.4333 37.3133 29.7 37.18L28.38 36.98C25.5933 36.54 24.2 35.1867 24.2 32.92C24.2 32.2933 24.3133 31.7267 24.54 31.22C24.78 30.7133 25.12 30.28 25.56 29.92C26 29.56 26.5267 29.2867 27.14 29.1C27.7667 28.9 28.4733 28.8 29.26 28.8C30.3133 28.8 31.2333 28.9733 32.02 29.32C32.8067 29.6667 33.48 30.18 34.04 30.86L32.24 32.56C31.8933 32.1333 31.4733 31.7867 30.98 31.52C30.4867 31.2533 29.8667 31.12 29.12 31.12C28.36 31.12 27.7867 31.2667 27.4 31.56C27.0267 31.84 26.84 32.24 26.84 32.76C26.84 33.2933 26.9933 33.6867 27.3 33.94C27.6067 34.1933 28.1 34.38 28.78 34.5L30.08 34.74C31.4933 34.9933 32.5333 35.4467 33.2 36.1C33.88 36.74 34.22 37.64 34.22 38.8C34.22 39.4667 34.1 40.0733 33.86 40.62C33.6333 41.1533 33.2933 41.62 32.84 42.02C32.4 42.4067 31.8533 42.7067 31.2 42.92C30.56 43.1333 29.82 43.24 28.98 43.24ZM36.8666 43V29.04H46.0666V31.38H39.5066V34.76H45.3066V37.1H39.5066V40.66H46.0666V43H36.8666Z" fill="white"/>
<path d="M71.148 4.228H72.996V8.232H74.55L76.146 5.348C76.3607 4.956 76.594 4.67133 76.846 4.494C77.098 4.31667 77.4153 4.228 77.798 4.228H78.596V5.866H77.728L76.51 8.064C76.3607 8.32533 76.2113 8.52133 76.062 8.652C75.922 8.77333 75.7493 8.86667 75.544 8.932V9.016C75.7773 9.06267 75.9733 9.156 76.132 9.296C76.3 9.42667 76.4633 9.632 76.622 9.912L77.966 12.362H78.834V14H77.798C77.4433 14 77.1493 13.9207 76.916 13.762C76.6827 13.594 76.4493 13.3 76.216 12.88L74.55 9.842H72.996V14H71.148V4.228ZM85.9509 14C85.5589 14 85.2462 13.888 85.0129 13.664C84.7889 13.4307 84.6489 13.1227 84.5929 12.74H84.5089C84.3876 13.216 84.1402 13.5753 83.7669 13.818C83.3936 14.0513 82.9316 14.168 82.3809 14.168C81.6342 14.168 81.0602 13.972 80.6589 13.58C80.2576 13.188 80.0569 12.6653 80.0569 12.012C80.0569 11.256 80.3276 10.696 80.8689 10.332C81.4102 9.95867 82.1802 9.772 83.1789 9.772H84.4249V9.24C84.4249 8.82933 84.3176 8.512 84.1029 8.288C83.8882 8.064 83.5429 7.952 83.0669 7.952C82.6469 7.952 82.3062 8.04533 82.0449 8.232C81.7929 8.40933 81.5782 8.624 81.4009 8.876L80.3369 7.924C80.6076 7.504 80.9669 7.168 81.4149 6.916C81.8629 6.65467 82.4556 6.524 83.1929 6.524C84.1822 6.524 84.9336 6.748 85.4469 7.196C85.9602 7.644 86.2169 8.288 86.2169 9.128V12.572H86.9449V14H85.9509ZM82.9829 12.866C83.3842 12.866 83.7249 12.7773 84.0049 12.6C84.2849 12.4227 84.4249 12.1613 84.4249 11.816V10.85H83.2769C82.3436 10.85 81.8769 11.1487 81.8769 11.746V11.984C81.8769 12.2827 81.9702 12.5067 82.1569 12.656C82.3529 12.796 82.6282 12.866 82.9829 12.866ZM92.1392 13.23H92.0832C91.7286 13.8553 91.1966 14.168 90.4872 14.168C89.6752 14.168 89.0779 13.8693 88.6952 13.272C88.3126 12.6653 88.1212 11.69 88.1212 10.346C88.1212 9.002 88.3126 8.03133 88.6952 7.434C89.0779 6.82733 89.6752 6.524 90.4872 6.524C90.8512 6.524 91.1639 6.608 91.4252 6.776C91.6866 6.93467 91.9059 7.168 92.0832 7.476H92.1392V4.06H93.9312V7.476H93.9872C94.1646 7.168 94.3839 6.93467 94.6452 6.776C94.9066 6.608 95.2192 6.524 95.5832 6.524C96.3952 6.524 96.9926 6.82733 97.3752 7.434C97.7579 8.03133 97.9492 9.002 97.9492 10.346C97.9492 11.69 97.7579 12.6653 97.3752 13.272C96.9926 13.8693 96.3952 14.168 95.5832 14.168C94.8739 14.168 94.3419 13.8553 93.9872 13.23H93.9312V16.8H92.1392V13.23ZM91.1592 12.824C91.5139 12.824 91.7659 12.7493 91.9152 12.6C92.0646 12.4507 92.1392 12.2407 92.1392 11.97V8.722C92.1392 8.45133 92.0646 8.24133 91.9152 8.092C91.7659 7.93333 91.5139 7.854 91.1592 7.854C90.7392 7.854 90.4359 7.99867 90.2492 8.288C90.0719 8.568 89.9832 9.02533 89.9832 9.66V11.032C89.9832 11.6667 90.0719 12.124 90.2492 12.404C90.4359 12.684 90.7392 12.824 91.1592 12.824ZM94.9112 12.824C95.3312 12.824 95.6299 12.684 95.8072 12.404C95.9939 12.124 96.0872 11.6667 96.0872 11.032V9.66C96.0872 9.02533 95.9939 8.568 95.8072 8.288C95.6299 7.99867 95.3312 7.854 94.9112 7.854C94.5566 7.854 94.3046 7.93333 94.1552 8.092C94.0059 8.24133 93.9312 8.45133 93.9312 8.722V11.97C93.9312 12.2407 94.0059 12.4507 94.1552 12.6C94.3046 12.7493 94.5566 12.824 94.9112 12.824ZM102.757 14.168C102.216 14.168 101.73 14.0793 101.301 13.902C100.881 13.7153 100.522 13.4587 100.223 13.132C99.9338 12.796 99.7098 12.3947 99.5511 11.928C99.3924 11.452 99.3131 10.92 99.3131 10.332C99.3131 9.75333 99.3878 9.23067 99.5371 8.764C99.6958 8.29733 99.9198 7.90067 100.209 7.574C100.498 7.238 100.853 6.98133 101.273 6.804C101.693 6.61733 102.169 6.524 102.701 6.524C103.27 6.524 103.765 6.622 104.185 6.818C104.605 7.014 104.95 7.28 105.221 7.616C105.492 7.952 105.692 8.344 105.823 8.792C105.963 9.23067 106.033 9.702 106.033 10.206V10.794H101.175V10.976C101.175 11.508 101.324 11.9373 101.623 12.264C101.922 12.5813 102.365 12.74 102.953 12.74C103.401 12.74 103.765 12.6467 104.045 12.46C104.334 12.2733 104.591 12.0353 104.815 11.746L105.781 12.824C105.482 13.244 105.072 13.5753 104.549 13.818C104.036 14.0513 103.438 14.168 102.757 14.168ZM102.729 7.868C102.253 7.868 101.875 8.02667 101.595 8.344C101.315 8.66133 101.175 9.072 101.175 9.576V9.688H104.171V9.562C104.171 9.058 104.045 8.652 103.793 8.344C103.55 8.02667 103.196 7.868 102.729 7.868ZM106.86 12.572H107.784C108.054 12.18 108.255 11.6853 108.386 11.088C108.516 10.4907 108.582 9.72067 108.582 8.778V6.692H114.196V12.572H115.442V15.96H113.818V14H108.484V15.96H106.86V12.572ZM112.404 12.572V8.12H110.29V8.862C110.29 9.86067 110.229 10.654 110.108 11.242C109.986 11.8207 109.837 12.264 109.66 12.572H112.404ZM116.885 6.692H118.677V7.896H118.733C118.863 7.476 119.111 7.14467 119.475 6.902C119.839 6.65 120.263 6.524 120.749 6.524C121.682 6.524 122.391 6.85533 122.877 7.518C123.371 8.17133 123.619 9.10933 123.619 10.332C123.619 11.564 123.371 12.5113 122.877 13.174C122.391 13.8367 121.682 14.168 120.749 14.168C120.263 14.168 119.839 14.042 119.475 13.79C119.12 13.538 118.873 13.202 118.733 12.782H118.677V16.8H116.885V6.692ZM120.175 12.684C120.641 12.684 121.019 12.53 121.309 12.222C121.598 11.914 121.743 11.4987 121.743 10.976V9.716C121.743 9.19333 121.598 8.778 121.309 8.47C121.019 8.15267 120.641 7.994 120.175 7.994C119.745 7.994 119.386 8.10133 119.097 8.316C118.817 8.53067 118.677 8.81533 118.677 9.17V11.494C118.677 11.8767 118.817 12.1707 119.097 12.376C119.386 12.5813 119.745 12.684 120.175 12.684ZM130.815 14C130.423 14 130.111 13.888 129.877 13.664C129.653 13.4307 129.513 13.1227 129.457 12.74H129.373C129.252 13.216 129.005 13.5753 128.631 13.818C128.258 14.0513 127.796 14.168 127.245 14.168C126.499 14.168 125.925 13.972 125.523 13.58C125.122 13.188 124.921 12.6653 124.921 12.012C124.921 11.256 125.192 10.696 125.733 10.332C126.275 9.95867 127.045 9.772 128.043 9.772H129.289V9.24C129.289 8.82933 129.182 8.512 128.967 8.288C128.753 8.064 128.407 7.952 127.931 7.952C127.511 7.952 127.171 8.04533 126.909 8.232C126.657 8.40933 126.443 8.624 126.265 8.876L125.201 7.924C125.472 7.504 125.831 7.168 126.279 6.916C126.727 6.65467 127.32 6.524 128.057 6.524C129.047 6.524 129.798 6.748 130.311 7.196C130.825 7.644 131.081 8.288 131.081 9.128V12.572H131.809V14H130.815ZM127.847 12.866C128.249 12.866 128.589 12.7773 128.869 12.6C129.149 12.4227 129.289 12.1613 129.289 11.816V10.85H128.141C127.208 10.85 126.741 11.1487 126.741 11.746V11.984C126.741 12.2827 126.835 12.5067 127.021 12.656C127.217 12.796 127.493 12.866 127.847 12.866ZM74.942 32.168C74.298 32.168 73.7147 32.0653 73.192 31.86C72.6787 31.6453 72.2353 31.328 71.862 30.908C71.498 30.488 71.218 29.97 71.022 29.354C70.826 28.7287 70.728 28.0053 70.728 27.184C70.728 26.3627 70.826 25.6347 71.022 25C71.218 24.356 71.498 23.8193 71.862 23.39C72.2353 22.9513 72.6787 22.62 73.192 22.396C73.7147 22.172 74.298 22.06 74.942 22.06C75.8193 22.06 76.5473 22.2467 77.126 22.62C77.7047 22.9933 78.1667 23.558 78.512 24.314L76.93 25.154C76.79 24.7153 76.5613 24.3653 76.244 24.104C75.9267 23.8333 75.4927 23.698 74.942 23.698C74.2513 23.698 73.7007 23.9313 73.29 24.398C72.8887 24.8647 72.688 25.518 72.688 26.358V27.898C72.688 28.7473 72.8887 29.4007 73.29 29.858C73.7007 30.306 74.2513 30.53 74.942 30.53C75.4927 30.53 75.9407 30.3807 76.286 30.082C76.6407 29.7833 76.8973 29.4147 77.056 28.976L78.554 29.858C78.1993 30.586 77.728 31.1553 77.14 31.566C76.552 31.9673 75.8193 32.168 74.942 32.168ZM80.1784 24.692H81.9284V27.954L81.7744 29.662H81.8304L82.6844 28.108L84.9664 24.692H86.5764V32H84.8264V28.738L84.9804 27.016H84.9244L84.0704 28.584L81.7884 32H80.1784V24.692ZM91.699 32.168C91.1577 32.168 90.677 32.0793 90.257 31.902C89.837 31.7247 89.4823 31.468 89.193 31.132C88.913 30.796 88.6983 30.3947 88.549 29.928C88.3997 29.452 88.325 28.92 88.325 28.332C88.325 27.744 88.3997 27.2167 88.549 26.75C88.6983 26.2833 88.913 25.8867 89.193 25.56C89.4823 25.224 89.837 24.9673 90.257 24.79C90.677 24.6127 91.1577 24.524 91.699 24.524C92.4363 24.524 93.043 24.6873 93.519 25.014C94.0043 25.3407 94.3543 25.7933 94.569 26.372L93.099 27.03C93.015 26.722 92.8563 26.47 92.623 26.274C92.399 26.0687 92.091 25.966 91.699 25.966C91.195 25.966 90.817 26.1247 90.565 26.442C90.3223 26.7593 90.201 27.1747 90.201 27.688V29.018C90.201 29.5313 90.3223 29.9467 90.565 30.264C90.817 30.572 91.195 30.726 91.699 30.726C92.1283 30.726 92.4597 30.6187 92.693 30.404C92.9263 30.18 93.1083 29.9047 93.239 29.578L94.611 30.236C94.3683 30.88 93.9997 31.3653 93.505 31.692C93.0103 32.0093 92.4083 32.168 91.699 32.168ZM97.7184 26.12H95.4924V24.692H101.736V26.12H99.5104V32H97.7184V26.12ZM106.075 32.168C105.534 32.168 105.049 32.0793 104.619 31.902C104.199 31.7153 103.84 31.4587 103.541 31.132C103.252 30.796 103.028 30.3947 102.869 29.928C102.711 29.452 102.631 28.92 102.631 28.332C102.631 27.7533 102.706 27.2307 102.855 26.764C103.014 26.2973 103.238 25.9007 103.527 25.574C103.817 25.238 104.171 24.9813 104.591 24.804C105.011 24.6173 105.487 24.524 106.019 24.524C106.589 24.524 107.083 24.622 107.503 24.818C107.923 25.014 108.269 25.28 108.539 25.616C108.81 25.952 109.011 26.344 109.141 26.792C109.281 27.2307 109.351 27.702 109.351 28.206V28.794H104.493V28.976C104.493 29.508 104.643 29.9373 104.941 30.264C105.24 30.5813 105.683 30.74 106.271 30.74C106.719 30.74 107.083 30.6467 107.363 30.46C107.653 30.2733 107.909 30.0353 108.133 29.746L109.099 30.824C108.801 31.244 108.39 31.5753 107.867 31.818C107.354 32.0513 106.757 32.168 106.075 32.168ZM106.047 25.868C105.571 25.868 105.193 26.0267 104.913 26.344C104.633 26.6613 104.493 27.072 104.493 27.576V27.688H107.489V27.562C107.489 27.058 107.363 26.652 107.111 26.344C106.869 26.0267 106.514 25.868 106.047 25.868ZM111.088 24.692H113.146L115.078 27.912H115.134L117.038 24.692H119.04V32H117.304V26.904H117.248L116.744 27.856L115.064 30.628L113.384 27.856L112.88 26.904H112.824V32H111.088V24.692ZM121.269 24.692H123.061V27.562H125.875V24.692H127.667V32H125.875V28.99H123.061V32H121.269V24.692ZM132.804 32.168C132.281 32.168 131.81 32.0793 131.39 31.902C130.979 31.7247 130.625 31.468 130.326 31.132C130.037 30.796 129.813 30.3947 129.654 29.928C129.495 29.452 129.416 28.92 129.416 28.332C129.416 27.744 129.495 27.2167 129.654 26.75C129.813 26.2833 130.037 25.8867 130.326 25.56C130.625 25.224 130.979 24.9673 131.39 24.79C131.81 24.6127 132.281 24.524 132.804 24.524C133.327 24.524 133.798 24.6127 134.218 24.79C134.638 24.9673 134.993 25.224 135.282 25.56C135.581 25.8867 135.809 26.2833 135.968 26.75C136.127 27.2167 136.206 27.744 136.206 28.332C136.206 28.92 136.127 29.452 135.968 29.928C135.809 30.3947 135.581 30.796 135.282 31.132C134.993 31.468 134.638 31.7247 134.218 31.902C133.798 32.0793 133.327 32.168 132.804 32.168ZM132.804 30.726C133.28 30.726 133.653 30.5813 133.924 30.292C134.195 30.0027 134.33 29.578 134.33 29.018V27.66C134.33 27.1093 134.195 26.6893 133.924 26.4C133.653 26.1107 133.28 25.966 132.804 25.966C132.337 25.966 131.969 26.1107 131.698 26.4C131.427 26.6893 131.292 27.1093 131.292 27.66V29.018C131.292 29.578 131.427 30.0027 131.698 30.292C131.969 30.5813 132.337 30.726 132.804 30.726ZM137.955 24.692H142.799V26.12H139.747V32H137.955V24.692ZM147.042 32.168C146.519 32.168 146.048 32.0793 145.628 31.902C145.217 31.7247 144.863 31.468 144.564 31.132C144.275 30.796 144.051 30.3947 143.892 29.928C143.733 29.452 143.654 28.92 143.654 28.332C143.654 27.744 143.733 27.2167 143.892 26.75C144.051 26.2833 144.275 25.8867 144.564 25.56C144.863 25.224 145.217 24.9673 145.628 24.79C146.048 24.6127 146.519 24.524 147.042 24.524C147.565 24.524 148.036 24.6127 148.456 24.79C148.876 24.9673 149.231 25.224 149.52 25.56C149.819 25.8867 150.047 26.2833 150.206 26.75C150.365 27.2167 150.444 27.744 150.444 28.332C150.444 28.92 150.365 29.452 150.206 29.928C150.047 30.3947 149.819 30.796 149.52 31.132C149.231 31.468 148.876 31.7247 148.456 31.902C148.036 32.0793 147.565 32.168 147.042 32.168ZM147.042 30.726C147.518 30.726 147.891 30.5813 148.162 30.292C148.433 30.0027 148.568 29.578 148.568 29.018V27.66C148.568 27.1093 148.433 26.6893 148.162 26.4C147.891 26.1107 147.518 25.966 147.042 25.966C146.575 25.966 146.207 26.1107 145.936 26.4C145.665 26.6893 145.53 27.1093 145.53 27.66V29.018C145.53 29.578 145.665 30.0027 145.936 30.292C146.207 30.5813 146.575 30.726 147.042 30.726ZM71.148 40.228H78.708V50H76.86V41.866H72.996V50H71.148V40.228ZM81.0534 42.692H82.8454V43.896H82.9014C83.0321 43.476 83.2794 43.1447 83.6434 42.902C84.0074 42.65 84.4321 42.524 84.9174 42.524C85.8508 42.524 86.5601 42.8553 87.0454 43.518C87.5401 44.1713 87.7874 45.1093 87.7874 46.332C87.7874 47.564 87.5401 48.5113 87.0454 49.174C86.5601 49.8367 85.8508 50.168 84.9174 50.168C84.4321 50.168 84.0074 50.042 83.6434 49.79C83.2888 49.538 83.0414 49.202 82.9014 48.782H82.8454V52.8H81.0534V42.692ZM84.3434 48.684C84.8101 48.684 85.1881 48.53 85.4774 48.222C85.7668 47.914 85.9114 47.4987 85.9114 46.976V45.716C85.9114 45.1933 85.7668 44.778 85.4774 44.47C85.1881 44.1527 84.8101 43.994 84.3434 43.994C83.9141 43.994 83.5548 44.1013 83.2654 44.316C82.9854 44.5307 82.8454 44.8153 82.8454 45.17V47.494C82.8454 47.8767 82.9854 48.1707 83.2654 48.376C83.5548 48.5813 83.9141 48.684 84.3434 48.684ZM92.506 50.168C91.9833 50.168 91.512 50.0793 91.092 49.902C90.6813 49.7247 90.3266 49.468 90.028 49.132C89.7386 48.796 89.5146 48.3947 89.356 47.928C89.1973 47.452 89.118 46.92 89.118 46.332C89.118 45.744 89.1973 45.2167 89.356 44.75C89.5146 44.2833 89.7386 43.8867 90.028 43.56C90.3266 43.224 90.6813 42.9673 91.092 42.79C91.512 42.6127 91.9833 42.524 92.506 42.524C93.0286 42.524 93.5 42.6127 93.92 42.79C94.34 42.9673 94.6946 43.224 94.984 43.56C95.2826 43.8867 95.5113 44.2833 95.67 44.75C95.8286 45.2167 95.908 45.744 95.908 46.332C95.908 46.92 95.8286 47.452 95.67 47.928C95.5113 48.3947 95.2826 48.796 94.984 49.132C94.6946 49.468 94.34 49.7247 93.92 49.902C93.5 50.0793 93.0286 50.168 92.506 50.168ZM92.506 48.726C92.982 48.726 93.3553 48.5813 93.626 48.292C93.8966 48.0027 94.032 47.578 94.032 47.018V45.66C94.032 45.1093 93.8966 44.6893 93.626 44.4C93.3553 44.1107 92.982 43.966 92.506 43.966C92.0393 43.966 91.6706 44.1107 91.4 44.4C91.1293 44.6893 90.994 45.1093 90.994 45.66V47.018C90.994 47.578 91.1293 48.0027 91.4 48.292C91.6706 48.5813 92.0393 48.726 92.506 48.726ZM97.6566 42.692H102.501V44.12H99.4486V50H97.6566V42.692ZM103.996 42.692H105.788V43.896H105.844C105.975 43.476 106.222 43.1447 106.586 42.902C106.95 42.65 107.375 42.524 107.86 42.524C108.794 42.524 109.503 42.8553 109.988 43.518C110.483 44.1713 110.73 45.1093 110.73 46.332C110.73 47.564 110.483 48.5113 109.988 49.174C109.503 49.8367 108.794 50.168 107.86 50.168C107.375 50.168 106.95 50.042 106.586 49.79C106.232 49.538 105.984 49.202 105.844 48.782H105.788V52.8H103.996V42.692ZM107.286 48.684C107.753 48.684 108.131 48.53 108.42 48.222C108.71 47.914 108.854 47.4987 108.854 46.976V45.716C108.854 45.1933 108.71 44.778 108.42 44.47C108.131 44.1527 107.753 43.994 107.286 43.994C106.857 43.994 106.498 44.1013 106.208 44.316C105.928 44.5307 105.788 44.8153 105.788 45.17V47.494C105.788 47.8767 105.928 48.1707 106.208 48.376C106.498 48.5813 106.857 48.684 107.286 48.684ZM117.927 50C117.535 50 117.222 49.888 116.989 49.664C116.765 49.4307 116.625 49.1227 116.569 48.74H116.485C116.364 49.216 116.116 49.5753 115.743 49.818C115.37 50.0513 114.908 50.168 114.357 50.168C113.61 50.168 113.036 49.972 112.635 49.58C112.234 49.188 112.033 48.6653 112.033 48.012C112.033 47.256 112.304 46.696 112.845 46.332C113.386 45.9587 114.156 45.772 115.155 45.772H116.401V45.24C116.401 44.8293 116.294 44.512 116.079 44.288C115.864 44.064 115.519 43.952 115.043 43.952C114.623 43.952 114.282 44.0453 114.021 44.232C113.769 44.4093 113.554 44.624 113.377 44.876L112.313 43.924C112.584 43.504 112.943 43.168 113.391 42.916C113.839 42.6547 114.432 42.524 115.169 42.524C116.158 42.524 116.91 42.748 117.423 43.196C117.936 43.644 118.193 44.288 118.193 45.128V48.572H118.921V50H117.927ZM114.959 48.866C115.36 48.866 115.701 48.7773 115.981 48.6C116.261 48.4227 116.401 48.1613 116.401 47.816V46.85H115.253C114.32 46.85 113.853 47.1487 113.853 47.746V47.984C113.853 48.2827 113.946 48.5067 114.133 48.656C114.329 48.796 114.604 48.866 114.959 48.866ZM120.531 42.692H122.589L124.521 45.912H124.577L126.481 42.692H128.483V50H126.747V44.904H126.691L126.187 45.856L124.507 48.628L122.827 45.856L122.323 44.904H122.267V50H120.531V42.692ZM130.713 42.692H132.771L134.703 45.912H134.759L136.663 42.692H138.665V50H136.929V44.904H136.873L136.369 45.856L134.689 48.628L133.009 45.856L132.505 44.904H132.449V50H130.713V42.692ZM140.894 42.692H142.644V45.954L142.49 47.662H142.546L143.4 46.108L145.682 42.692H147.292V50H145.542V46.738L145.696 45.016H145.64L144.786 46.584L142.504 50H140.894V42.692ZM149.531 42.692H151.323V43.896H151.379C151.509 43.476 151.757 43.1447 152.121 42.902C152.485 42.65 152.909 42.524 153.395 42.524C154.328 42.524 155.037 42.8553 155.523 43.518C156.017 44.1713 156.265 45.1093 156.265 46.332C156.265 47.564 156.017 48.5113 155.523 49.174C155.037 49.8367 154.328 50.168 153.395 50.168C152.909 50.168 152.485 50.042 152.121 49.79C151.766 49.538 151.519 49.202 151.379 48.782H151.323V52.8H149.531V42.692ZM152.821 48.684C153.287 48.684 153.665 48.53 153.955 48.222C154.244 47.914 154.389 47.4987 154.389 46.976V45.716C154.389 45.1933 154.244 44.778 153.955 44.47C153.665 44.1527 153.287 43.994 152.821 43.994C152.391 43.994 152.032 44.1013 151.743 44.316C151.463 44.5307 151.323 44.8153 151.323 45.17V47.494C151.323 47.8767 151.463 48.1707 151.743 48.376C152.032 48.5813 152.391 48.684 152.821 48.684ZM160.983 50.168C160.461 50.168 159.989 50.0793 159.569 49.902C159.159 49.7247 158.804 49.468 158.505 49.132C158.216 48.796 157.992 48.3947 157.833 47.928C157.675 47.452 157.595 46.92 157.595 46.332C157.595 45.744 157.675 45.2167 157.833 44.75C157.992 44.2833 158.216 43.8867 158.505 43.56C158.804 43.224 159.159 42.9673 159.569 42.79C159.989 42.6127 160.461 42.524 160.983 42.524C161.506 42.524 161.977 42.6127 162.397 42.79C162.817 42.9673 163.172 43.224 163.461 43.56C163.76 43.8867 163.989 44.2833 164.147 44.75C164.306 45.2167 164.385 45.744 164.385 46.332C164.385 46.92 164.306 47.452 164.147 47.928C163.989 48.3947 163.76 48.796 163.461 49.132C163.172 49.468 162.817 49.7247 162.397 49.902C161.977 50.0793 161.506 50.168 160.983 50.168ZM160.983 48.726C161.459 48.726 161.833 48.5813 162.103 48.292C162.374 48.0027 162.509 47.578 162.509 47.018V45.66C162.509 45.1093 162.374 44.6893 162.103 44.4C161.833 44.1107 161.459 43.966 160.983 43.966C160.517 43.966 160.148 44.1107 159.877 44.4C159.607 44.6893 159.471 45.1093 159.471 45.66V47.018C159.471 47.578 159.607 48.0027 159.877 48.292C160.148 48.5813 160.517 48.726 160.983 48.726ZM166.134 42.692H170.152C170.805 42.692 171.305 42.86 171.65 43.196C171.995 43.5227 172.168 43.966 172.168 44.526C172.168 45.45 171.664 45.982 170.656 46.122V46.178C171.253 46.234 171.701 46.4067 172 46.696C172.299 46.9853 172.448 47.3727 172.448 47.858C172.448 48.4927 172.252 49.0107 171.86 49.412C171.468 49.804 170.922 50 170.222 50H166.134V42.692ZM169.858 48.698C170.101 48.698 170.287 48.6373 170.418 48.516C170.549 48.3853 170.614 48.2033 170.614 47.97V47.578C170.614 47.3447 170.549 47.1673 170.418 47.046C170.287 46.9153 170.101 46.85 169.858 46.85H167.884V48.698H169.858ZM169.648 45.716C169.863 45.716 170.031 45.6553 170.152 45.534C170.283 45.4127 170.348 45.2447 170.348 45.03V44.68C170.348 44.4653 170.283 44.2973 170.152 44.176C170.031 44.0547 169.863 43.994 169.648 43.994H167.884V45.716H169.648ZM179.654 50C179.262 50 178.95 49.888 178.716 49.664C178.492 49.4307 178.352 49.1227 178.296 48.74H178.212C178.091 49.216 177.844 49.5753 177.47 49.818C177.097 50.0513 176.635 50.168 176.084 50.168C175.338 50.168 174.764 49.972 174.362 49.58C173.961 49.188 173.76 48.6653 173.76 48.012C173.76 47.256 174.031 46.696 174.572 46.332C175.114 45.9587 175.884 45.772 176.882 45.772H178.128V45.24C178.128 44.8293 178.021 44.512 177.806 44.288C177.592 44.064 177.246 43.952 176.77 43.952C176.35 43.952 176.01 44.0453 175.748 44.232C175.496 44.4093 175.282 44.624 175.104 44.876L174.04 43.924C174.311 43.504 174.67 43.168 175.118 42.916C175.566 42.6547 176.159 42.524 176.896 42.524C177.886 42.524 178.637 42.748 179.15 43.196C179.664 43.644 179.92 44.288 179.92 45.128V48.572H180.648V50H179.654ZM176.686 48.866C177.088 48.866 177.428 48.7773 177.708 48.6C177.988 48.4227 178.128 48.1613 178.128 47.816V46.85H176.98C176.047 46.85 175.58 47.1487 175.58 47.746V47.984C175.58 48.2827 175.674 48.5067 175.86 48.656C176.056 48.796 176.332 48.866 176.686 48.866ZM182.259 42.692H184.051V45.562H186.865V42.692H188.657V50H186.865V46.99H184.051V50H182.259V42.692ZM190.895 42.692H192.645V45.954L192.491 47.662H192.547L193.401 46.108L195.683 42.692H197.293V50H195.543V46.738L195.697 45.016H195.641L194.787 46.584L192.505 50H190.895V42.692ZM199.084 48.572H199.868L200.246 47.802C200.423 47.4287 200.689 47.2187 201.044 47.172V47.102C200.484 47.0367 200.036 46.836 199.7 46.5C199.373 46.164 199.21 45.688 199.21 45.072C199.21 44.6987 199.27 44.3673 199.392 44.078C199.522 43.7793 199.695 43.5273 199.91 43.322C200.134 43.1167 200.395 42.9627 200.694 42.86C201.002 42.748 201.333 42.692 201.688 42.692H205.454V50H203.662V47.382H202.304L201.534 48.964C201.347 49.356 201.132 49.6267 200.89 49.776C200.656 49.9253 200.362 50 200.008 50H199.084V48.572ZM203.662 46.052V44.022H202.052C201.734 44.022 201.482 44.0967 201.296 44.246C201.118 44.3953 201.03 44.6193 201.03 44.918V45.212C201.03 45.4827 201.118 45.6927 201.296 45.842C201.482 45.982 201.734 46.052 202.052 46.052H203.662Z" fill="white"/>
<defs>
<clipPath id="clip0">
<rect width="46" height="46" fill="white" transform="translate(8 8)"/>
</clipPath>
</defs>
</svg>
