<svg width="221" height="54" viewBox="0 0 221 54" fill="none" xmlns="http://www.w3.org/2000/svg">
<path d="M22.3717 7.555C22.3873 7.59118 22.4028 7.62763 22.4184 7.66111C22.6928 8.24404 23.1953 8.80591 23.1953 8.80591C23.1953 8.80591 23.2004 8.80348 23.2032 8.80078H23.2057C23.2057 8.80078 23.2782 8.74651 23.4232 8.66362C23.4726 8.6377 23.5321 8.60665 23.5967 8.5729C23.7573 8.49271 23.9619 8.40199 24.2183 8.31127C24.8218 8.09635 25.6274 8.02912 25.6274 8.02912C25.6274 8.02912 24.8764 6.98773 24.7363 5.48032C24.6561 4.6282 24.6898 4.18027 24.7002 4.15435C24.6482 4.15165 24.5991 4.14652 24.5473 4.14652C23.9777 4.14652 23.4543 4.34605 23.0451 4.67761C23.0348 4.68544 23.0244 4.693 23.014 4.70083C22.4858 5.1412 22.1489 5.80432 22.1489 6.54493C22.1489 6.75202 22.1774 6.95155 22.2266 7.14325C22.2655 7.26502 22.3173 7.42027 22.3717 7.555Z" fill="black"/>
<path d="M26.5726 7.76259C26.7252 7.9281 26.8782 8.00073 27.0155 8.00073H27.018H27.0517C27.1916 8.00073 27.3441 7.9281 27.4972 7.76259C27.8339 7.43616 28.1884 6.88698 28.4268 6.22143C28.7716 5.25537 28.6706 4.4397 28.2689 4.05333C28.0696 3.87486 27.8234 3.7531 27.5542 3.71422C27.4918 3.70639 27.3908 3.69882 27.2872 3.69612C27.751 3.57948 28.098 3.1626 28.098 2.66013C28.098 2.06694 27.6187 1.58797 27.0258 1.58797C26.4326 1.58797 25.9535 2.06694 25.9535 2.66013C25.9535 3.1626 26.298 3.57948 26.7642 3.69612C26.6736 3.69882 26.5777 3.70639 26.5156 3.71422C26.2462 3.7531 26 3.87486 25.8007 4.05333C25.3993 4.4397 25.2981 5.25537 25.6426 6.22143C25.881 6.88698 26.2359 7.43616 26.5726 7.76259Z" fill="black"/>
<path d="M36.8112 14.8615C37.0571 15.25 37.0442 15.7368 37.0442 15.7368C37.0469 15.7395 37.5388 15.8248 37.7826 16.0659C37.7826 16.0659 37.8212 16.0295 37.8264 16.0217C38.1579 15.6126 38.7719 14.9417 38.9479 13.9705C39.0929 13.1778 38.9995 12.067 38.8313 11.7122C38.8262 11.699 38.8208 11.6784 38.8132 11.6679C38.9739 11.484 39.2352 11.0569 39.9607 11.0569C40.2275 11.0569 40.4656 11.1293 40.6573 11.2224C40.9759 11.3752 41.1725 11.5775 41.1725 11.5775C41.1725 11.5775 40.5461 12.6909 40.2196 13.222C40.0512 13.4939 39.9294 13.7061 39.593 14.4497C39.3105 15.0688 39.2352 15.4779 39.2846 15.9234C39.3259 16.2938 39.5228 17.0061 39.6084 17.7235C39.7714 19.0935 39.5022 19.7644 39.5022 19.7644C39.5022 19.7644 39.5074 19.759 39.5176 19.7541C39.5152 19.759 39.5125 19.7695 39.5125 19.7695C39.5125 19.7695 41.139 18.6947 42.1647 16.2963C42.162 16.2963 42.1596 16.2963 42.1545 16.2938H42.1569C41.9652 16.2574 41.8124 16.2055 41.6776 16.1356C41.5407 16.0684 41.4211 15.9855 41.2942 15.8872C40.3825 15.1928 40.5874 14.4522 40.8855 14.1052C40.9681 14.0042 41.0564 13.9084 41.1468 13.8125C41.3747 13.569 41.6234 13.323 41.8823 13.0201C42.2114 12.6367 42.3305 12.2533 42.3718 11.9166C42.3848 11.7999 42.4031 11.6836 42.4031 11.5618C42.4031 10.5542 41.9133 9.86782 41.2894 9.52357C41.082 9.40693 40.8593 9.32917 40.6368 9.29029C39.9399 9.17122 39.0851 9.43285 38.4609 9.85756C38.2251 10.0182 37.8315 10.3784 37.7229 10.6503C37.5855 11.3288 37.7902 11.5021 37.9948 12.2041C38 12.2198 38.0078 12.2301 38.0129 12.2454C38.4403 13.8074 38.2203 14.5637 36.8112 14.8615Z" fill="black"/>
<path d="M29.8284 13.4656C30.012 13.8538 30.3487 14.2321 30.3487 14.2321L30.3514 14.2297C30.3538 14.2321 30.4005 14.2812 30.4005 14.2812C30.4005 14.2812 30.5844 14.1182 31.0688 13.9319C31.4676 13.7764 31.9803 13.7218 31.9803 13.7218C31.9803 13.7218 31.4781 13.0225 31.382 12.0151C31.3277 11.4295 31.3536 11.1293 31.359 11.1241C31.3563 11.1241 31.3509 11.1241 31.3482 11.1241V11.119C31.092 11.075 30.828 11.1268 30.5844 11.2408C30.4186 11.3339 30.2682 11.4373 30.1467 11.5488C29.9291 11.7405 29.7844 11.9579 29.7272 12.1887C29.6391 12.4347 29.6078 12.7066 29.6599 12.9863C29.6651 13.0123 29.7531 13.3025 29.8284 13.4656Z" fill="black"/>
<path d="M32.0559 12.4322C32.2732 13.0356 32.6307 13.5433 32.908 13.6496C32.952 13.6677 32.9933 13.678 33.0325 13.678C33.317 13.6445 33.698 13.0667 33.8816 12.3598C34.0528 11.6967 33.9361 11.1424 33.6462 10.9067C33.5814 10.8576 33.5087 10.8162 33.431 10.7798C33.3535 10.746 33.2706 10.7177 33.185 10.6996C33.172 10.6969 33.1594 10.6915 33.1464 10.6866C33.3845 10.57 33.5449 10.3084 33.5298 10.0106C33.5193 9.71519 33.3378 9.46922 33.0943 9.37094C33.0117 9.33719 32.9209 9.3191 32.8248 9.32153C32.4598 9.33989 32.1749 9.67118 32.193 10.0651C32.2087 10.3629 32.3926 10.6116 32.6385 10.7047H32.6412C32.4574 10.7539 32.294 10.8443 32.162 10.9637C31.8925 11.2226 31.8253 11.7874 32.0559 12.4322Z" fill="black"/>
<path d="M34.0136 13.6674C34.0136 13.6674 34.8708 13.6726 35.7232 14.0066C35.7383 14.0117 35.7489 14.0222 35.7643 14.0273C35.8785 13.8824 36.0443 13.6518 36.1555 13.4161C36.2306 13.253 36.3188 12.963 36.3237 12.9395C36.3758 12.6571 36.3445 12.3855 36.2565 12.1392C36.1995 11.9062 36.0545 11.6913 35.8396 11.4996C35.7151 11.3881 35.565 11.2847 35.399 11.1915C35.3968 11.1915 35.3941 11.1915 35.3914 11.1886C35.3914 11.1886 35.3887 11.1861 35.3865 11.1861C35.1454 11.0722 34.8811 11.0231 34.6246 11.0644C34.63 11.0698 34.6556 11.3727 34.6014 11.9554C34.5058 12.963 34.0031 13.6623 34.0031 13.6623C34.0031 13.6623 34.0136 13.6623 34.016 13.6623L34.0136 13.6674Z" fill="black"/>
<path d="M28.4429 8.02912C28.4429 8.02912 29.2456 8.09635 29.8521 8.31127C30.1083 8.40199 30.3129 8.49271 30.4733 8.5729C30.5384 8.60665 30.5978 8.6377 30.6469 8.66362C30.7922 8.74651 30.8648 8.80078 30.8648 8.80078H30.8673C30.8697 8.80348 30.8751 8.80591 30.8751 8.80591C30.8751 8.80591 31.3773 8.24404 31.6521 7.66111C31.6675 7.62763 31.6832 7.59118 31.6962 7.555C31.7531 7.42027 31.8047 7.26502 31.8436 7.14325C31.8927 6.95155 31.9213 6.75202 31.9213 6.54493C31.9213 5.80432 31.5846 5.1412 31.056 4.70083C31.0457 4.693 31.0355 4.68544 31.0252 4.67761C30.6135 4.34605 30.0929 4.14652 29.5229 4.14652C29.4711 4.14652 29.4219 4.15165 29.3701 4.15435C29.3804 4.18027 29.4141 4.6282 29.3339 5.48032C29.1914 6.98773 28.4429 8.02912 28.4429 8.02912Z" fill="black"/>
<path d="M28.9735 10.3471C28.9735 10.3471 29.0664 10.8161 29.1236 11.0283C29.1263 11.0256 29.1806 11.0283 29.1806 11.0307C29.5405 10.8884 30.2398 10.6786 30.2398 10.4429V9.84973V9.69448C30.2398 9.55705 30.1051 9.43015 29.8618 9.31891C29.3672 9.08833 28.44 8.92768 27.3859 8.90716H26.7719C25.6841 8.91742 24.7076 9.0805 24.1975 9.31891C23.9565 9.43015 23.8141 9.55705 23.8141 9.69448V9.84973V10.4429C23.8141 10.6786 24.5238 10.8884 24.8812 11.0307C24.8812 11.0283 24.9382 11.0256 24.9406 11.0283C24.9978 10.8161 25.0935 10.3471 25.0935 10.3471C25.0935 10.3471 25.0159 10.316 25.0029 10.285C24.9589 10.1891 25.0392 10.1349 25.1712 10.0622C25.3034 9.98959 25.521 9.94558 25.7048 9.93775C25.8187 10.3522 25.8343 10.9972 25.8111 11.5513C25.7618 12.6626 25.5521 14.0585 24.8915 15.0092C25.1428 15.2527 25.4173 15.5686 25.7021 15.9725C26.386 14.6619 26.4921 13.2272 26.5518 11.7508C26.5751 11.1009 26.5491 10.3395 26.5518 9.81868C26.6138 9.81868 26.8263 9.79276 27.036 9.79276C27.2458 9.79276 27.4556 9.81868 27.5204 9.81868C27.5204 10.3395 27.4945 11.1009 27.5204 11.7508C27.5774 13.2558 27.6835 14.7138 28.4009 16.0427C28.6598 15.6642 28.9166 15.3561 29.1523 15.1153C29.1677 15.0921 29.183 15.0713 29.2011 15.048C28.5229 14.0974 28.308 12.6783 28.2586 11.5513C28.2353 10.9972 28.2507 10.3522 28.3647 9.93775C28.5485 9.94558 28.7662 9.98959 28.8982 10.0622C29.0305 10.1349 29.1104 10.1891 29.0664 10.285C29.0513 10.316 28.9735 10.3471 28.9735 10.3471Z" fill="black"/>
<path d="M38.1866 20.8446C38.1812 20.8446 38.1812 20.8394 38.1764 20.8394C38.1658 20.8367 38.1553 20.8343 38.145 20.8367H38.127C38.0881 20.8421 38.0519 20.8446 38.0157 20.8497C37.6248 20.8729 37.2438 20.8446 36.9303 20.7204C36.7516 20.6631 36.5988 20.5624 36.4513 20.456C36.4149 20.4277 36.0185 20.0753 35.9462 20.0105C35.6586 19.7411 35.1148 19.345 34.553 19.2907C33.9182 19.2259 33.5116 19.4589 33.0585 19.6377C33.0169 19.6557 32.9832 19.6973 32.9805 19.7438C32.978 19.7983 33.0091 19.845 33.0531 19.8655C33.0688 19.8731 33.0869 19.8812 33.1074 19.8812C33.5556 19.9147 33.9854 19.9897 34.3923 20.1091C34.6926 20.2022 34.9931 20.2981 35.2288 20.4666C35.5395 20.6866 35.8087 20.9688 35.9875 21.0827C36.2205 21.2304 36.4278 21.3729 36.6922 21.4248C36.9719 21.4739 37.2646 21.4531 37.5365 21.3832C37.5492 21.3781 37.5624 21.3754 37.5726 21.3702C37.6453 21.3549 37.7152 21.3262 37.7851 21.3003C37.881 21.2614 37.9717 21.2201 38.0597 21.1686C38.0622 21.1686 38.0646 21.1656 38.07 21.1632C38.1243 21.1294 38.1839 21.1038 38.2358 21.0649C38.2358 21.0622 38.2385 21.0622 38.2409 21.0622C38.2719 21.0363 38.2927 20.9947 38.2876 20.9507C38.2849 20.8964 38.2409 20.8524 38.1866 20.8446Z" fill="black"/>
<path d="M36.4434 16.6564C36.4717 16.7445 36.5678 16.84 36.6764 16.9024C37.0131 17.0992 37.1348 17.3895 36.627 17.4489C36.2568 17.4929 35.8734 17.2469 34.5061 17.6198C33.7056 17.8399 32.7603 18.6507 32.4314 19.0238C32.3305 19.1375 32.2268 19.2722 32.1282 19.4123C31.8123 19.8705 31.815 20.4869 32.1568 20.9249C32.3612 21.1862 32.5894 21.3547 32.6566 21.4012C33.856 22.212 34.9824 21.541 35.1044 21.4168C35.2027 21.3183 35.2078 21.2797 35.1898 21.2562C35.1871 21.251 35.1846 21.2537 35.1822 21.251H35.1792C35.1768 21.2459 34.7988 21.4506 34.2677 21.4506C33.9648 21.4506 33.6564 21.3987 33.3999 21.2821C33.2109 21.1968 32.7784 20.9662 32.5219 20.5569C32.3564 20.2901 32.3899 19.9483 32.5918 19.7074C32.794 19.4663 33.0373 19.2385 33.2655 19.0702C33.7806 18.6895 34.3714 18.4617 35.0577 18.4511C35.0731 18.4511 35.0888 18.4487 35.1066 18.4487C35.4514 18.4487 35.7802 18.5081 36.0937 18.6121C36.2492 18.6636 36.4018 18.7257 36.5468 18.8008C36.9844 19.0262 37.3678 19.35 37.6581 19.7436L37.6605 19.7409C37.6632 19.7436 37.6657 19.7463 37.6684 19.749C37.7799 19.5573 37.9068 19.2722 38.0129 18.871C38.0337 18.8008 38.0518 18.7284 38.0698 18.6507C38.2202 17.98 38.1762 16.4183 36.692 16.4183C36.6661 16.4183 36.6375 16.431 36.6118 16.4388C36.4539 16.4801 36.4147 16.5657 36.4434 16.6564Z" fill="black"/>
<path d="M12.0581 13.0201C12.317 13.323 12.5656 13.569 12.7936 13.8125C12.8841 13.9084 12.9697 14.0042 13.0552 14.1052C13.3505 14.4522 13.5551 15.1928 12.646 15.8872C12.519 15.9855 12.3999 16.0684 12.2627 16.1356C12.1279 16.2055 11.9752 16.2574 11.7834 16.2938H11.7861C11.781 16.2963 11.7783 16.2963 11.7731 16.2963C12.8014 18.6947 14.428 19.7695 14.428 19.7695C14.428 19.7695 14.4253 19.759 14.4227 19.7541C14.4331 19.759 14.4383 19.7644 14.4383 19.7644C14.4383 19.7644 14.1689 19.0935 14.332 17.7235C14.4175 17.0061 14.6143 16.2938 14.6559 15.9234C14.7051 15.4779 14.6299 15.0688 14.3475 14.4497C14.0108 13.7061 13.8891 13.4939 13.7208 13.222C13.3945 12.6909 12.7677 11.5775 12.7677 11.5775C12.7677 11.5775 12.9619 11.3752 13.2805 11.2224C13.4747 11.1293 13.713 11.0569 13.9798 11.0569C14.7051 11.0569 14.9665 11.484 15.1272 11.6679C15.1194 11.6784 15.1144 11.699 15.1092 11.7122C14.9406 12.067 14.8474 13.1778 14.9926 13.9705C15.1687 14.9417 15.7826 15.6126 16.114 16.0217C16.1192 16.0295 16.1581 16.0659 16.1581 16.0659C16.3989 15.8248 16.8937 15.7395 16.8962 15.7368C16.8962 15.7368 16.8832 15.25 17.1293 14.8615C15.7204 14.5637 15.5002 13.8074 15.9274 12.2454C15.9326 12.2301 15.9405 12.2198 15.9457 12.2041C16.1503 11.5021 16.3549 11.3288 16.2177 10.6503C16.1089 10.3784 15.7152 10.0182 15.4794 9.85756C14.8552 9.43285 14.0006 9.17122 13.3038 9.29029C13.0785 9.32917 12.8583 9.40693 12.651 9.52357C12.027 9.86782 11.5375 10.5542 11.5375 11.5618C11.5375 11.6836 11.553 11.7999 11.5685 11.9166C11.6099 12.2533 11.729 12.6367 12.0581 13.0201Z" fill="black"/>
<path d="M21.9601 13.7218C21.9601 13.7218 22.4702 13.7764 22.8718 13.9319C23.356 14.1182 23.5399 14.2812 23.5399 14.2812C23.5399 14.2812 23.5866 14.2321 23.5893 14.2297L23.5918 14.2321C23.5918 14.2321 23.9284 13.8538 24.1124 13.4656C24.1875 13.3025 24.2755 13.0123 24.2807 12.9863C24.3324 12.7066 24.3014 12.4347 24.2133 12.1887C24.1564 11.9579 24.0112 11.7405 23.7939 11.5488C23.6694 11.4373 23.5219 11.3339 23.3534 11.2408C23.1127 11.1268 22.8484 11.075 22.592 11.119V11.1241C22.5894 11.1241 22.5842 11.1241 22.5816 11.1241C22.5868 11.1293 22.6127 11.4295 22.5558 12.0151C22.4626 13.0225 21.9601 13.7218 21.9601 13.7218Z" fill="black"/>
<path d="M20.9081 13.678C20.947 13.678 20.9885 13.6677 21.0299 13.6496C21.3095 13.5433 21.667 13.0356 21.8845 12.4322C22.1151 11.7874 22.0479 11.2226 21.7783 10.9637C21.6437 10.8443 21.4832 10.7539 21.2992 10.7047C21.5478 10.6116 21.7318 10.3629 21.7473 10.0651C21.7628 9.67118 21.4804 9.33989 21.1152 9.32153C21.0196 9.3191 20.9288 9.33719 20.8459 9.37094C20.6026 9.46922 20.4213 9.71519 20.4082 10.0106C20.3953 10.3084 20.556 10.57 20.7942 10.6866C20.7813 10.6915 20.7682 10.6969 20.7554 10.6996C20.6673 10.7177 20.5869 10.746 20.5092 10.7798C20.4316 10.8162 20.359 10.8576 20.2943 10.9067C20.0042 11.1424 19.885 11.6967 20.0588 12.3598C20.2425 13.0667 20.6233 13.6445 20.9081 13.678Z" fill="black"/>
<path d="M17.7845 13.4161C17.8959 13.6518 18.0616 13.8824 18.1757 14.0273C18.1912 14.0222 18.2015 14.0117 18.217 14.0066C19.0692 13.6726 19.9239 13.6674 19.9239 13.6674L19.9214 13.6623C19.9266 13.6623 19.9343 13.6623 19.9343 13.6623C19.9343 13.6623 19.4345 12.963 19.3386 11.9554C19.2841 11.3727 19.3075 11.0698 19.3153 11.0644C19.0589 11.0231 18.7947 11.0722 18.5513 11.1861L18.5486 11.1886C18.546 11.1915 18.5435 11.1915 18.5407 11.1915C18.375 11.2847 18.2249 11.3881 18.1005 11.4996C17.8857 11.6913 17.7405 11.9062 17.6837 12.1392C17.5956 12.3855 17.5643 12.6571 17.6163 12.9395C17.6214 12.963 17.7095 13.253 17.7845 13.4161Z" fill="black"/>
<path d="M20.833 19.8812C20.8537 19.8812 20.872 19.8731 20.8873 19.8655C20.9313 19.845 20.9625 19.7983 20.9599 19.7438C20.9572 19.6973 20.9236 19.6557 20.8822 19.6377C20.4263 19.4589 20.0222 19.2259 19.3877 19.2907C18.8258 19.345 18.2817 19.7411 17.9942 20.0105C17.9217 20.0753 17.5255 20.4277 17.4893 20.456C17.3415 20.5624 17.1863 20.6631 17.0101 20.7204C16.6942 20.8446 16.3159 20.8729 15.9249 20.8497C15.8886 20.8446 15.8524 20.8421 15.8134 20.8367H15.7953C15.7851 20.8343 15.7746 20.8367 15.7643 20.8394C15.7593 20.8394 15.7593 20.8446 15.7539 20.8446C15.6997 20.8524 15.6556 20.8964 15.6504 20.9507C15.6478 20.9947 15.6659 21.0363 15.6997 21.0622C15.7021 21.0622 15.7021 21.0622 15.7047 21.0649C15.7564 21.1038 15.8162 21.1294 15.8705 21.1632C15.8757 21.1656 15.8782 21.1686 15.8809 21.1686C15.9663 21.2201 16.0595 21.2614 16.1554 21.3003C16.2252 21.3262 16.2926 21.3549 16.3651 21.3702C16.3781 21.3754 16.3909 21.3781 16.404 21.3832C16.676 21.4531 16.966 21.4739 17.2483 21.4248C17.5126 21.3729 17.7197 21.2304 17.953 21.0827C18.1315 20.9688 18.3983 20.6866 18.7116 20.4666C18.9474 20.2981 19.2453 20.2022 19.5483 20.1091C19.9549 19.9897 20.3849 19.9147 20.833 19.8812Z" fill="black"/>
<path d="M15.8708 18.6507C15.8889 18.7284 15.907 18.8008 15.9276 18.871C16.034 19.2722 16.1608 19.5573 16.2722 19.749C16.2749 19.7463 16.2773 19.7436 16.2801 19.7409L16.2827 19.7436C16.5727 19.35 16.9533 19.0262 17.3938 18.8008C17.5387 18.7257 17.6915 18.6636 17.847 18.6121C18.1579 18.5081 18.4893 18.4487 18.8336 18.4487C18.8519 18.4487 18.8674 18.4511 18.8831 18.4511C19.5693 18.4617 20.1598 18.6895 20.6752 19.0702C20.9032 19.2385 21.1467 19.4663 21.3487 19.7074C21.548 19.9483 21.5844 20.2901 21.4187 20.5569C21.1621 20.9662 20.7295 21.1968 20.5407 21.2821C20.2843 21.3987 19.976 21.4506 19.6731 21.4506C19.142 21.4506 18.7637 21.2459 18.7613 21.251H18.7587C18.7561 21.2537 18.7535 21.251 18.7509 21.2562C18.7302 21.2797 18.7379 21.3183 18.8364 21.4168C18.9581 21.541 20.0848 22.212 21.284 21.4012C21.3513 21.3547 21.5793 21.1862 21.7813 20.9249C22.1257 20.4869 22.1283 19.8705 21.8122 19.4123C21.7139 19.2722 21.6102 19.1375 21.5067 19.0238C21.1803 18.6507 20.2349 17.8399 19.4347 17.6198C18.0671 17.2469 17.6812 17.4929 17.3134 17.4489C16.8058 17.3895 16.925 17.0992 17.2643 16.9024C17.373 16.84 17.4688 16.7445 17.4972 16.6564C17.5258 16.5657 17.4869 16.4801 17.329 16.4388C17.3031 16.431 17.2747 16.4183 17.2485 16.4183C15.7646 16.4183 15.7206 17.98 15.8708 18.6507Z" fill="black"/>
<path d="M33.9236 41.5386L33.9257 41.554C33.9284 41.554 33.9311 41.5567 33.9338 41.554C33.9311 41.5491 33.9284 41.5437 33.9236 41.5386Z" fill="black"/>
<path d="M27.813 26.4128C27.8621 26.5114 28.0565 26.6666 28.0978 26.9699C28.1032 27.0007 28.8465 26.1798 28.8465 26.1798V25.3898L28.0538 25.7265L27.813 26.4128Z" fill="black"/>
<path d="M22.9649 47.1177C23.325 47.0218 23.6538 46.913 24.001 46.7783C24.1717 46.711 24.3454 46.636 24.5164 46.5504C24.6899 46.4623 24.8609 46.3614 25.0265 46.2447C25.1897 46.1305 25.3425 45.9856 25.472 45.8228C25.5368 45.7423 25.5911 45.6516 25.6378 45.556C25.6611 45.5066 25.6845 45.4522 25.7001 45.4056L25.7336 45.276V45.2708C25.7568 45.1777 25.7001 45.0818 25.6068 45.0586C25.5704 45.0508 25.5343 45.0559 25.5031 45.0662C25.472 45.0768 25.4436 45.0951 25.4202 45.1208C25.3115 45.2476 25.195 45.3357 25.0706 45.4029C24.9463 45.4704 24.8142 45.5168 24.6718 45.5609C24.3817 45.644 24.0632 45.6879 23.7368 45.732C23.4155 45.7733 23.0661 45.807 22.7448 45.8381C22.4236 45.8695 22.0999 45.8849 21.7683 45.8975L20.7401 45.9288C20.3853 45.9496 20.0123 45.9678 19.5876 46.0659C19.427 46.1049 19.2509 46.1516 19.0721 46.2369C19.0125 46.2655 18.9504 46.2966 18.8908 46.3354C18.6577 46.4805 18.4246 46.7159 18.3106 46.9907C18.1915 47.2653 18.176 47.5373 18.2225 47.7678C18.277 48.0008 18.3702 48.2003 18.5385 48.3764C18.6059 48.4439 18.7044 48.4617 18.7896 48.4255C18.8158 48.4149 18.8908 48.3505 18.8908 48.3505C19.1861 47.8742 19.818 47.6174 19.9423 47.589C20.4526 47.4673 21.1829 47.436 21.8875 47.3328C22.2449 47.2808 22.6049 47.2133 22.9649 47.1177Z" fill="black"/>
<path d="M19.748 45.1412C19.7401 45.2374 19.8128 45.3203 19.906 45.3253C19.9475 45.3278 19.9837 45.3175 20.0149 45.297L20.02 45.2916C20.0225 45.2916 20.0225 45.2916 20.0225 45.2916L20.0795 45.253C20.1598 45.1982 20.2427 45.1542 20.3255 45.1155C20.5795 45.0016 20.8333 44.9603 21.0844 44.9549C21.4289 44.942 21.7785 44.9859 22.1825 45.0586C22.6178 45.1363 23.1072 45.1699 23.5838 45.1337C23.8247 45.1155 24.0681 45.0688 24.3168 45.0016C24.4412 44.9603 24.5654 44.9187 24.6951 44.8512C24.6951 44.8485 24.6976 44.8485 24.6976 44.8485C24.7002 44.8485 24.7026 44.8464 24.7054 44.8464C24.8218 44.7789 24.985 44.6933 25.0679 44.5118C25.1015 44.4422 25.0705 44.3593 24.9981 44.3282C24.9876 44.3228 24.9773 44.3177 24.9668 44.3177C24.9668 44.3177 24.4825 44.2273 24.2857 44.1703L23.6719 44.0123C23.2523 43.9083 22.8508 43.818 22.4002 43.7429C21.9211 43.6598 21.3513 43.6624 20.8202 43.8695C20.7528 43.8957 20.6882 43.9265 20.6235 43.9602C20.1703 44.1908 19.7841 44.6103 19.748 45.1412Z" fill="black"/>
<path d="M20.4393 43.4422C20.4627 43.437 20.745 43.3361 20.877 43.292H20.8745C20.8796 43.2894 19.2142 42.6883 20.1595 41.6162L20.1622 41.5746C20.1595 41.5773 20.157 41.5671 20.1544 41.5697C19.9964 41.5489 19.8359 41.5643 19.6882 41.624C19.538 41.6837 19.4085 41.7819 19.2997 41.9167C18.8491 42.4761 19.4681 43.0846 19.4836 43.0976C19.3929 43.0898 19.1703 43.0564 19.0769 43.0458C18.6754 42.7712 18.0072 42.0927 18.9657 40.6579C18.9397 40.6553 18.9163 40.6553 18.8931 40.6525C18.7532 40.6449 18.6184 40.6709 18.4916 40.7278C18.4166 40.7535 18.344 40.7822 18.2766 40.8159C17.8054 41.0461 17.4841 41.492 17.4841 42.0071C17.4841 42.2196 17.541 42.4164 17.637 42.5952C17.7069 42.7248 17.7976 42.8387 17.9062 42.9424C17.8363 42.9346 17.5307 42.9162 17.4582 42.8956C17.0205 42.3905 16.5362 41.448 17.4712 40.3445C17.4453 40.342 17.422 40.3391 17.3986 40.3391C17.2587 40.3315 17.1242 40.3599 16.9972 40.4147C16.9116 40.4454 16.8339 40.4819 16.7589 40.5259C16.2435 40.821 15.9897 41.3856 15.9897 41.8518C15.9897 42.0643 16.0648 42.4062 16.1423 42.5952C16.7563 44.0975 19.6546 43.6417 20.4393 43.4422Z" fill="black"/>
<path d="M35.1844 46.3354C35.1247 46.2966 35.0623 46.2655 35.0032 46.2369C34.8242 46.1516 34.6482 46.1049 34.4875 46.0659C34.0601 45.9678 33.6899 45.9496 33.3324 45.9288L32.3067 45.8975C31.9754 45.8849 31.649 45.8695 31.3277 45.8381C31.0094 45.807 30.6597 45.7733 30.3381 45.732C30.012 45.6879 29.6937 45.644 29.4031 45.5609C29.2608 45.5168 29.1288 45.4704 29.0046 45.4029C28.8777 45.3357 28.7611 45.2476 28.6523 45.1208C28.6315 45.0951 28.6031 45.0768 28.5718 45.0662C28.5383 45.0559 28.5046 45.0508 28.4684 45.0586C28.3725 45.0818 28.3156 45.1777 28.3388 45.2708L28.3415 45.276L28.3725 45.4056C28.3906 45.4522 28.4139 45.5066 28.4371 45.556C28.4841 45.6516 28.5356 45.7423 28.6031 45.8228C28.7325 45.9856 28.8828 46.1305 29.0486 46.2447C29.2144 46.3614 29.3853 46.4623 29.5589 46.5504C29.7296 46.636 29.9005 46.711 30.0744 46.7783C30.4213 46.913 30.7477 47.0218 31.1076 47.1177C31.4676 47.2133 31.8302 47.2808 32.1876 47.3328C32.8894 47.436 33.6224 47.4673 34.1327 47.589C34.2545 47.6174 34.8893 47.8742 35.1844 48.3505C35.1844 48.3505 35.2567 48.4149 35.2854 48.4255C35.3707 48.4617 35.4692 48.4439 35.5365 48.3764C35.7022 48.2003 35.7981 48.0008 35.8499 47.7678C35.8991 47.5373 35.8837 47.2653 35.7643 46.9907C35.6504 46.7159 35.4174 46.4805 35.1844 46.3354Z" fill="black"/>
<path d="M29.3701 44.8464C29.3701 44.8464 29.3755 44.8485 29.3779 44.8485H29.3803C29.5075 44.9187 29.6344 44.9603 29.7586 45.0016C30.0048 45.0688 30.2508 45.1155 30.4916 45.1337C30.9658 45.1699 31.4577 45.1363 31.8927 45.0586C32.2969 44.9859 32.6465 44.942 32.991 44.9549C33.2421 44.9603 33.4962 45.0016 33.7497 45.1155C33.8329 45.1542 33.9131 45.1982 33.9957 45.253L34.0502 45.2916H34.0529L34.0605 45.297C34.0918 45.3175 34.1277 45.3278 34.1696 45.3253C34.2625 45.3203 34.3351 45.2374 34.3275 45.1412C34.2911 44.6103 33.9025 44.1908 33.4522 43.9602C33.3871 43.9265 33.3199 43.8957 33.2551 43.8695C32.7243 43.6624 32.1546 43.6598 31.675 43.7429C31.2247 43.818 30.8232 43.9083 30.4033 44.0123L29.7869 44.1703C29.5904 44.2273 29.1087 44.3177 29.1087 44.3177C29.0984 44.3177 29.0852 44.3228 29.0749 44.3282C29.005 44.3593 28.974 44.4422 29.005 44.5118C29.0876 44.6933 29.2537 44.7789 29.3701 44.8464Z" fill="black"/>
<path d="M37.3131 40.5259C37.2408 40.4819 37.163 40.4454 37.0774 40.4147C36.9505 40.3599 36.8133 40.3315 36.6759 40.3391C36.6527 40.3391 36.6265 40.342 36.6033 40.3445C37.5383 41.448 37.0539 42.3905 36.6163 42.8956C36.5439 42.9162 36.2382 42.9346 36.1656 42.9424C36.2747 42.8387 36.3676 42.7248 36.4375 42.5952C36.5309 42.4164 36.5903 42.2196 36.5903 42.0071C36.5903 41.492 36.2693 41.0461 35.7979 40.8159C35.7279 40.7822 35.658 40.7535 35.583 40.7278C35.4561 40.6709 35.3189 40.6449 35.1817 40.6525C35.1583 40.6553 35.1323 40.6553 35.1088 40.6579C36.0673 42.0927 35.3988 42.7712 34.9976 43.0458C34.9042 43.0564 34.6814 43.0898 34.5883 43.0976C34.6066 43.0846 35.2257 42.4761 34.7748 41.9167C34.6663 41.7819 34.534 41.6837 34.3863 41.624C34.2389 41.5643 34.0782 41.5489 33.9203 41.5697C33.9176 41.5671 33.9149 41.5773 33.9125 41.5746L33.9149 41.6162C34.8602 42.6883 33.1948 43.2894 33.2002 43.292H33.1975C33.3295 43.3361 33.612 43.437 33.6352 43.4422C34.4176 43.6417 37.3183 44.0975 37.932 42.5952C38.0073 42.4062 38.085 42.0643 38.085 41.8518C38.085 41.3856 37.831 40.821 37.3131 40.5259Z" fill="black"/>
<path d="M29.7404 36.1201C29.7247 36.0996 29.6729 36.0893 29.6729 36.0893C29.6497 36.0839 29.624 36.0864 29.6032 36.0969C29.4634 36.1826 29.3753 36.2757 29.2949 36.3716C29.2249 36.4649 29.1655 36.5632 29.1291 36.6615C29.0929 36.7598 29.0646 36.861 29.0851 36.9671C29.1107 37.0735 29.1628 37.1847 29.3105 37.3065C29.3443 37.3349 29.4709 37.3816 29.5592 37.3532C29.7404 37.2935 29.8308 37.2107 29.8959 37.1199C29.9553 37.0292 29.9656 36.9258 29.9683 36.8195C29.9734 36.7158 29.9553 36.6045 29.9242 36.4906C29.8854 36.3716 29.8389 36.2525 29.7404 36.1201Z" fill="black"/>
<path d="M31.1982 31.1941C31.2579 31.2486 31.3122 31.3135 31.3664 31.3831C31.3872 31.4169 31.4002 31.4376 31.4156 31.4688C31.4366 31.5076 31.4571 31.5465 31.4779 31.5877C31.5892 31.8208 31.6591 32.0619 31.7134 32.344C31.6642 32.3262 31.6202 32.3208 31.5633 32.3208C30.8899 32.3027 30.5167 32.6862 30.4028 33.2869C30.4028 33.2869 30.618 33.1238 30.7992 33.077C30.9598 33.0382 31.1853 33.0668 31.1853 33.0668C30.9315 33.3749 30.6596 33.6729 30.3771 33.9656C30.3229 33.8309 30.2397 33.7429 30.1387 33.7219C30.0275 33.7013 29.9109 33.7634 29.8047 33.8798C29.6908 33.6263 29.4316 32.9893 29.3773 32.839C29.3773 32.839 29.5742 32.8209 29.7375 32.8956C29.9187 32.9788 30.0974 33.2091 30.0974 33.2091C30.1258 33.0614 30.0974 32.7769 30.0456 32.6189C29.9395 32.2925 29.6984 32.0851 29.3023 32.0335C29.2218 32.0254 29.1468 32.0281 29.069 32.0387C29.3722 31.5697 29.7219 31.2251 30.0742 31.0545C29.9754 31.7952 30.9909 31.9453 31.1982 31.1941ZM31.654 34.9625C31.6021 35.2552 31.5503 35.4625 31.4674 35.7266C31.4029 35.9312 31.2862 36.2266 31.2009 36.4105C31.0324 36.1853 30.7111 35.6464 30.3771 35.0328C30.3901 34.9809 30.4055 34.9263 30.4158 34.872C30.4365 34.7605 30.4495 34.652 30.4549 34.5511C30.7992 34.2117 31.1256 33.8152 31.4701 33.4268C31.4701 33.4268 31.6281 33.5822 31.5711 33.8593C31.5192 34.1182 31.2808 34.2816 31.2808 34.2816C31.5039 34.2867 31.5946 34.297 31.7938 34.2117C31.7706 34.4135 31.6902 34.7529 31.654 34.9625ZM29.2531 38.1639C28.9083 38.1199 28.7169 37.9204 28.6054 37.7883C28.2895 37.4206 28.2533 37.0682 28.2506 37.0658L29.4783 35.5686C29.5431 35.7552 29.6803 35.8201 29.7167 35.8251C29.7192 35.8251 29.7192 35.8276 29.7219 35.8276C29.8358 35.8511 29.9549 35.7836 30.0661 35.6593C30.0974 35.7369 30.8094 37.0504 30.8383 37.0709C30.3925 37.7986 29.714 38.2233 29.2531 38.1639ZM28.2639 34.1806C28.2817 34.0769 28.3492 33.7764 28.3697 33.6778C28.3751 33.6833 28.4369 33.8385 28.5924 33.9448C28.7763 34.0691 28.8903 34.0743 28.981 34.0871C28.981 34.0871 28.8492 33.8981 28.8155 33.6546C28.7736 33.3439 28.9189 33.0952 28.9189 33.0952C28.9942 33.2196 29.3671 34.1263 29.5121 34.4265C29.4861 34.507 29.4629 34.5897 29.4448 34.6804C29.4346 34.7297 29.4292 34.7763 29.424 34.8253C29.4189 34.854 29.4135 34.8799 29.4111 34.9056C29.3876 34.9291 28.3697 36.1643 28.1291 36.4105C27.989 35.5686 28.1548 34.7997 28.2639 34.1806ZM29.9808 30.2076C29.9781 30.2048 29.9754 30.2022 29.9754 30.1998L29.9265 30.2308C29.7192 30.3215 29.5172 30.4508 29.3177 30.6169C28.5125 31.3005 27.8154 32.577 27.5124 34.108C27.2225 35.574 27.3572 36.9338 27.8 37.8401C28.0954 38.4412 28.5249 38.8451 29.0587 38.9355C29.5844 39.0236 30.1312 38.7984 30.6307 38.3477C31.4053 37.6485 32.066 36.4105 32.3587 34.9291C32.6589 33.4164 32.5061 32.01 32.0268 31.1088C31.7342 30.5544 31.32 30.1868 30.8094 30.1011C30.5378 30.0544 30.2578 30.0961 29.9808 30.2076Z" fill="black"/>
<path d="M26.3316 32.5875C26.3316 32.5875 25.0443 33.0743 24.4305 33.3206L25.6841 31.1473C25.6893 31.1579 25.7437 31.4533 26.2538 31.6655C26.2384 31.746 26.3316 32.5875 26.3316 32.5875ZM27.0104 42.168C27.0025 42.168 26.9946 42.1655 26.9843 42.1655C24.7568 42.1552 22.7885 40.6581 21.5971 38.379C22.1513 37.4437 23.2987 35.4001 23.2987 35.4001C23.4076 35.82 24.0473 38.5886 24.0473 38.5886C24.0473 38.5886 23.2366 38.9384 23.6458 39.1893C24.055 39.438 24.9253 39.2544 24.9253 39.2544C24.9253 39.2544 25.1453 39.4536 25.3836 39.6194C25.6685 39.8344 25.9872 39.9922 26.3342 40.0857C26.4663 40.1345 26.5543 40.1662 26.5543 40.1662C26.5543 40.1662 26.4741 40.5492 26.5984 40.7488C26.645 40.8263 26.6917 40.8938 26.847 40.8938C26.8911 40.8938 26.9377 40.8836 26.9818 40.8679C27.1165 40.8161 27.2458 40.7097 27.3209 40.6349C27.5074 40.4405 27.5747 40.3031 27.7145 40.1167C27.707 40.1089 27.7145 40.0959 27.7275 40.083C28.0593 39.9923 28.4087 39.8707 28.7403 39.4564C27.9322 39.1402 27.2458 38.402 26.9818 37.1797C26.8858 36.7342 26.8315 36.2498 26.8263 35.7368C26.8212 35.2036 26.8652 34.6417 26.9714 34.0639C26.9739 34.0431 26.9791 34.025 26.9818 34.0043C27.3625 32.0049 28.6055 30.4767 28.9657 30.3446C28.8542 30.0905 28.9009 29.438 28.0304 29.078C27.8414 29.0003 27.2588 28.9641 27.2042 28.6974C27.4788 28.511 27.6889 28.1612 27.738 27.7389C27.808 27.1743 27.5695 26.6667 27.1888 26.4855C27.282 26.2782 27.5047 25.9936 27.5047 25.9936L27.0698 25.527L26.9818 25.5737L26.5078 25.8278C26.5078 25.8278 26.6502 26.2342 26.6502 26.4545C26.2747 26.5814 25.9975 26.8741 25.9328 27.3995C25.9016 27.6562 26.0416 28.055 26.3342 28.3477C26.4921 28.5057 26.5232 28.6404 26.4249 28.7362C26.2125 28.9512 25.767 28.8994 25.5391 29.2309C25.3967 29.4406 25.2231 29.9251 25.2231 29.9251C25.1144 30.1426 24.4849 31.6552 24.1742 32.1887C24.0964 32.3208 23.783 32.8154 23.783 32.8154C23.783 32.8154 23.6458 32.9115 23.4929 33.0354C23.3687 33.134 23.234 33.2531 23.151 33.3619C22.9103 33.6651 23.0087 34.2142 23.1537 34.4446L21.3173 37.7985C21.2475 37.646 21.2112 37.5604 21.2112 37.5604C20.6958 36.3017 20.4031 34.8566 20.4031 33.3206C20.4031 28.6223 23.1537 24.7683 26.6138 24.4937H26.9765H27.4167C27.7974 24.5248 28.1706 24.5998 28.5305 24.7138C28.7222 24.7762 28.906 24.8461 29.0899 24.9263C31.7189 26.0943 33.62 29.4148 33.62 33.3206C33.62 38.2 30.657 42.168 27.0104 42.168ZM48.7818 26.8921C48.7429 26.7574 48.6498 26.6537 48.5332 26.5943C48.4219 26.5322 48.2845 26.5114 48.1525 26.5528L48.1292 26.5582C47.5541 26.7288 46.9531 26.9102 46.3629 27.045C46.0648 27.12 45.7721 27.1899 45.477 27.2548C45.1843 27.3168 44.8941 27.366 44.5758 27.4102C43.9567 27.4905 43.3351 27.5604 42.7136 27.6147C42.3169 27.6482 41.9079 27.6743 41.5115 27.6922C41.5688 27.677 41.6255 27.6638 41.6854 27.646C41.8561 27.5992 42.027 27.5499 42.1954 27.4983C42.5297 27.3919 42.8583 27.2806 43.1847 27.1613C43.8352 26.9232 44.4667 26.664 45.0988 26.387C45.7281 26.1175 46.3912 25.8094 46.9742 25.4339C47.5647 25.0453 48.1163 24.6387 48.6341 24.1338C48.7921 23.9783 48.8337 23.7296 48.7173 23.5277C48.6652 23.437 48.5874 23.3697 48.4994 23.3284C48.3547 23.2558 48.1759 23.2531 48.0256 23.3414L48.0048 23.3541C47.4607 23.6675 46.8835 23.9913 46.3084 24.2686C45.7254 24.5534 45.1714 24.8253 44.5498 25.0378C43.9361 25.2527 43.3068 25.4547 42.6798 25.6283C42.3664 25.7163 42.0529 25.7965 41.7424 25.8688L41.535 25.9131C41.693 25.8456 41.8458 25.7757 41.9959 25.7033C42.3353 25.5376 42.6617 25.3615 42.9803 25.1801C43.6173 24.8123 44.2261 24.4187 44.8217 24.0121C45.4306 23.6003 46.0392 23.1521 46.57 22.6418C47.0981 22.1212 47.5852 21.5877 48.0126 20.9584C48.1368 20.7721 48.1265 20.5156 47.9686 20.3419C47.9192 20.2901 47.8649 20.2512 47.8028 20.2256C47.6268 20.14 47.4091 20.1632 47.2539 20.3058L47.2355 20.3212C46.7463 20.7667 46.2206 21.2251 45.6868 21.6293C45.1482 22.0438 44.6225 22.4474 44.0344 22.7844C43.9256 22.8492 43.8117 22.9086 43.7029 22.9709C43.2133 23.248 42.7187 23.5147 42.2214 23.7556C42.1228 23.8023 42.027 23.8463 41.9314 23.8903C41.7499 23.9732 41.5661 24.0509 41.3846 24.126C41.4184 24.1028 41.4521 24.082 41.4856 24.0585C41.6981 23.9084 41.9003 23.7504 42.0969 23.5925C42.2057 23.5045 42.3148 23.4162 42.4209 23.3257C43.0033 22.8284 43.55 22.3051 44.0706 21.7716C44.0784 21.7638 44.086 21.7586 44.0914 21.7511C44.6454 21.1887 45.1636 20.6063 45.6037 19.9664C46.0365 19.3189 46.425 18.6663 46.7279 17.9227C46.8135 17.713 46.7463 17.4646 46.5543 17.3298C46.5519 17.3271 46.5468 17.3271 46.5441 17.3247C46.3189 17.164 46.0078 17.2186 45.8499 17.4438L45.8345 17.4646C45.4354 18.0318 44.9951 18.6172 44.5318 19.1531C44.3943 19.3165 44.2545 19.4769 44.1146 19.6375C43.7884 20.0104 43.4518 20.373 43.0837 20.6967C42.9023 20.8574 42.716 21.0129 42.5297 21.1708C42.1954 21.453 41.8561 21.73 41.5115 21.9892C41.5634 21.9193 41.6179 21.8494 41.6695 21.7794C41.957 21.3858 42.2187 20.987 42.4727 20.5855C42.6461 20.3058 42.817 20.026 42.9828 19.7436C43.273 19.2541 43.5398 18.7543 43.7701 18.2389C43.8738 18.0083 43.972 17.7753 44.0576 17.5396C44.3347 16.7677 44.5574 16.0012 44.674 15.1671C44.7078 14.939 44.5758 14.7114 44.3503 14.6309L44.3452 14.6285C44.3425 14.6285 44.3425 14.6258 44.3374 14.6258C44.0811 14.5326 43.796 14.6674 43.7029 14.9263L43.695 14.9522C43.4855 15.5427 43.2314 16.1513 42.9593 16.7393C42.9153 16.8325 42.8767 16.9283 42.8326 17.0215C42.5216 17.6563 42.2006 18.2829 41.8223 18.871C41.8018 18.9045 41.781 18.9409 41.7578 18.9771C41.4754 19.3915 41.1802 19.7928 40.8795 20.1867C39.9499 21.2224 38.3803 22.2587 37.5336 22.6731C37.1192 22.8724 36.6996 23.147 36.2749 23.3541C36.2695 23.3568 36.2617 23.3622 36.2565 23.3646C35.9717 23.502 35.7254 23.7245 35.5804 24.0067C35.5443 24.0769 35.5156 24.1546 35.4897 24.2297C35.4457 24.3668 35.4174 24.5118 35.4174 24.6646C35.4174 25.206 35.7127 25.7266 36.1582 25.9598C36.3057 26.04 36.4687 26.0867 36.6451 26.0919C36.6737 26.0919 36.6969 26.0892 36.7228 26.0867C36.8754 26.0711 36.9585 26.0038 36.9585 26.0038C36.9585 26.0038 36.8392 25.685 37.0206 25.5427C37.0517 25.5222 37.083 25.5038 37.1165 25.4911C37.2018 25.4522 37.2925 25.4312 37.3908 25.4312C37.4842 25.4312 37.5695 25.4495 37.65 25.4806C37.8854 25.5867 38.0515 25.8197 38.0515 26.0943C38.0515 26.4337 37.7974 26.711 37.4713 26.7547C37.3211 26.8144 37.0363 26.8222 36.8548 26.8222C36.4793 26.8222 36.1115 26.7833 35.7568 26.7185C35.267 26.6281 34.7985 26.4726 34.363 26.273C33.8325 26.0295 32.8583 25.3175 32.874 25.2759C31.8717 24.346 31.2397 23.0695 31.1854 21.6552C31.1827 21.5904 31.1749 21.5256 31.1749 21.4608C31.1749 21.2562 31.1881 21.0361 31.2137 20.8393C31.2526 20.4896 31.3328 20.1475 31.4416 19.8163C31.636 19.2258 31.9338 18.6715 32.3121 18.1949C32.3507 18.1482 32.5216 17.9592 32.7419 17.7416C32.7546 17.7286 32.7703 17.7157 32.7835 17.7027C32.7859 17.7003 32.7859 17.6976 32.7884 17.6949C33.0346 17.454 33.3297 17.1848 33.5838 17.0215C33.5838 17.0215 33.5811 17.0215 33.5811 17.0191C33.5838 17.0191 33.5838 17.0191 33.5838 17.0191C33.5681 17.0088 33.5398 16.9826 33.5112 16.9567C33.4774 16.9232 33.4464 16.8895 33.4283 16.8687C32.9674 16.8247 32.804 16.6046 32.7263 16.4207C32.7238 16.4129 32.7211 16.4078 32.7187 16.4024C32.7133 16.387 32.7058 16.3716 32.7004 16.3584C32.6771 16.2887 32.6771 16.0789 32.6874 16.0503C32.7211 15.8794 32.8246 15.7109 32.9104 15.6283C32.9517 15.5816 32.9957 15.5403 33.0397 15.5065C33.1796 15.3974 33.3376 15.3407 33.506 15.307C33.5473 15.2992 33.5887 15.2916 33.6302 15.2865C33.6381 15.2865 33.6432 15.2835 33.6483 15.2835C34.0757 15.2395 34.498 15.4236 34.6689 15.8613V15.8637C34.6454 15.8821 34.3995 15.9285 34.3995 15.9285H34.3968C34.3087 15.7395 34.1638 15.6618 33.9928 15.6747C33.9359 15.6774 33.8765 15.6931 33.8141 15.7163C33.7728 15.7317 33.739 15.7525 33.7104 15.7784C33.4361 16.0114 33.6767 16.6046 34.0601 16.6459C34.117 16.651 34.1821 16.6435 34.2466 16.62C34.2493 16.62 34.2518 16.6176 34.2545 16.6176C34.4203 16.5501 35.4822 16.2963 36.1218 16.1953C36.2436 16.1772 36.3524 16.1615 36.4353 16.1564C36.4353 16.1564 36.4404 16.154 36.4431 16.1513H36.4455C36.5543 15.9701 36.5595 14.7916 35.6299 14.4057C34.8968 14.1025 34.2572 14.0534 33.6821 14.0534C33.1591 14.0509 32.6823 14.1052 32.1955 14.214C30.3046 14.6285 29.1523 15.7239 28.0979 18.0937C27.3859 19.4952 27.1292 20.8393 27.0258 21.2095C27.0258 21.2095 26.9869 21.2095 26.9196 21.2122C26.8133 20.8134 26.557 19.4769 25.8551 18.0964C24.8008 15.7266 23.6432 14.6309 21.7523 14.214C21.2655 14.1079 20.7837 14.0534 20.2606 14.0534C19.6831 14.0561 19.0459 14.1052 18.3103 14.4082C17.3805 14.7916 17.3856 15.9725 17.497 16.1513C17.4997 16.154 17.5023 16.154 17.5049 16.1564C17.5851 16.1615 17.6939 16.1772 17.8182 16.1953C18.4579 16.2963 19.5199 16.5501 19.6856 16.6176C19.6882 16.6176 19.6908 16.62 19.6934 16.62C19.758 16.6435 19.8204 16.651 19.88 16.6459C20.2994 16.5995 20.5508 15.8845 20.1286 15.7187C20.0663 15.6931 20.0067 15.6799 19.9498 15.6747C19.7788 15.6618 19.6313 15.7422 19.5432 15.9285C19.5432 15.9285 19.2815 15.8821 19.2687 15.8664L19.2712 15.8613C19.4421 15.4236 19.8644 15.2395 20.2918 15.2835C20.2969 15.2835 20.3021 15.2865 20.3073 15.2865C20.3514 15.2916 20.3926 15.2992 20.4341 15.307C20.6568 15.351 20.8641 15.4414 21.0299 15.6307C21.1178 15.7136 21.2214 15.8821 21.2551 16.0527C21.263 16.0813 21.2655 16.2911 21.2397 16.3611C21.237 16.374 21.2292 16.3897 21.2242 16.4051C21.2214 16.4102 21.219 16.4153 21.2164 16.4207C21.1385 16.607 20.9755 16.8274 20.5145 16.8714C20.4964 16.8922 20.4627 16.9259 20.4316 16.9567C20.4031 16.9853 20.3747 17.0088 20.3565 17.0215C20.6258 17.1978 20.9444 17.4905 21.1981 17.7416C21.421 17.9616 21.5918 18.1509 21.6282 18.1973C22.0089 18.6739 22.3042 19.2282 22.5011 19.8187C22.6097 20.1502 22.6874 20.4948 22.7289 20.842C22.7522 21.0385 22.7677 21.264 22.7677 21.466C22.7677 21.5308 22.76 21.601 22.7574 21.6655C22.7522 21.7821 22.7419 21.8985 22.7315 22.0151C22.6045 22.6081 22.3403 23.569 21.8509 24.3825C21.8277 24.4187 21.8017 24.4576 21.7758 24.4937H21.7837C21.5971 24.7864 21.3795 25.0556 21.1257 25.2759C21.1412 25.3175 20.1673 26.0295 19.6391 26.273C19.2014 26.4726 18.735 26.6281 18.2455 26.7185C17.8883 26.7833 17.5203 26.8222 17.1448 26.8222C16.9635 26.8222 16.6786 26.8144 16.531 26.7547C16.2021 26.711 15.9483 26.4337 15.9483 26.0943C15.9483 25.8197 16.114 25.5867 16.3497 25.4806C16.4299 25.4495 16.518 25.4312 16.6087 25.4312C16.707 25.4312 16.8004 25.4522 16.8832 25.4911C16.9169 25.5038 16.948 25.5222 16.9789 25.5427C17.1602 25.685 17.0412 26.0038 17.0412 26.0038C17.0412 26.0038 17.1266 26.0711 17.2795 26.0867C17.3028 26.0892 17.3261 26.0919 17.3546 26.0919C17.5308 26.0867 17.6965 26.04 17.8442 25.9598C18.287 25.7266 18.5823 25.206 18.5823 24.6646C18.5823 24.5118 18.5538 24.3668 18.5097 24.2297C18.4839 24.1546 18.4554 24.0769 18.419 24.0067C18.2741 23.7245 18.0307 23.502 17.7456 23.3646C17.738 23.3622 17.7328 23.3568 17.7249 23.3541C17.3028 23.147 16.8806 22.8724 16.4688 22.6731C15.6192 22.2587 14.0524 21.2224 13.1225 20.1867C12.8196 19.7928 12.5243 19.3915 12.2418 18.9771C12.2212 18.9409 12.2005 18.9045 12.1772 18.871C11.8017 18.2829 11.4779 17.6563 11.1696 17.0215C11.1231 16.9283 11.0867 16.8325 11.0426 16.7393C10.7682 16.1513 10.5145 15.5427 10.3046 14.9522L10.2968 14.9263C10.2062 14.6674 9.92118 14.5326 9.66225 14.6258C9.65971 14.6258 9.6571 14.6285 9.65456 14.6285C9.65456 14.6285 9.65191 14.6285 9.65191 14.6309C9.4239 14.7114 9.29449 14.939 9.32551 15.1671C9.44469 16.0012 9.66744 16.7677 9.94197 17.5396C10.03 17.7753 10.1285 18.0083 10.232 18.2389C10.4625 18.7543 10.7269 19.2541 11.0195 19.7436C11.1852 20.026 11.3536 20.3058 11.5297 20.5855C11.781 20.987 12.045 21.3858 12.33 21.7794C12.3818 21.8494 12.4362 21.9193 12.4905 21.9892C12.1435 21.73 11.8069 21.453 11.4701 21.1708C11.2837 21.0129 11.0998 20.8574 10.9158 20.6967C10.5506 20.373 10.2139 20.0104 9.885 19.6375C9.74517 19.4769 9.60542 19.3165 9.46788 19.1531C9.00434 18.6172 8.564 18.0318 8.16524 17.4646L8.14974 17.4438C7.99174 17.2186 7.6808 17.164 7.45554 17.3247C7.4529 17.3271 7.45036 17.3271 7.44785 17.3298C7.25356 17.4646 7.18616 17.713 7.27159 17.9227C7.57734 18.6663 7.96325 19.3189 8.39833 19.9664C8.83864 20.6063 9.35683 21.1887 9.9083 21.7511C9.91603 21.7586 9.92394 21.7638 9.92909 21.7716C10.4522 22.3051 10.9961 22.8284 11.5815 23.3257C11.6878 23.4162 11.7964 23.5045 11.9052 23.5925C12.1021 23.7504 12.3016 23.9084 12.5164 24.0585C12.5476 24.082 12.5812 24.1028 12.615 24.126C12.4337 24.0509 12.2525 23.9732 12.0708 23.8903C11.9726 23.8463 11.8768 23.8023 11.781 23.7556C11.281 23.5147 10.7889 23.248 10.2994 22.9709C10.188 22.9086 10.0766 22.8492 9.96517 22.7844C9.37729 22.4474 8.85163 22.0438 8.31541 21.6293C7.77933 21.2251 7.25356 20.7667 6.76407 20.3212L6.74593 20.3058C6.59311 20.1632 6.37554 20.14 6.19678 20.2256C6.13719 20.2512 6.08032 20.2901 6.03372 20.3419C5.87583 20.5156 5.86276 20.7721 5.98974 20.9584C6.4171 21.5877 6.90393 22.1212 7.43221 22.6418C7.96063 23.1521 8.56929 23.6003 9.18046 24.0121C9.77627 24.4187 10.3849 24.8123 11.0195 25.1801C11.3406 25.3615 11.6644 25.5376 12.0063 25.7033C12.1538 25.7757 12.3092 25.8456 12.4673 25.9131L12.2575 25.8688C11.9467 25.7965 11.6333 25.7163 11.3198 25.6283C10.6958 25.4547 10.0663 25.2527 9.44995 25.0378C8.82822 24.8253 8.27661 24.5534 7.6939 24.2686C7.11899 23.9913 6.54121 23.6675 5.99479 23.3541L5.97413 23.3414C5.82382 23.2531 5.64781 23.2558 5.50269 23.3284C5.41461 23.3697 5.33699 23.437 5.2852 23.5277C5.16602 23.7296 5.20747 23.9783 5.36788 24.1338C5.88341 24.6387 6.43767 25.0453 7.02554 25.4339C7.61101 25.8094 8.27143 26.1175 8.90342 26.387C9.53273 26.664 10.1647 26.9232 10.8173 27.1613C11.1412 27.2806 11.4701 27.3919 11.8069 27.4983C11.9752 27.5499 12.1435 27.5992 12.317 27.646C12.3766 27.6638 12.4337 27.677 12.4905 27.6922C12.0917 27.6743 11.6849 27.6482 11.2862 27.6147C10.6671 27.5604 10.043 27.4905 9.4239 27.4102C9.10538 27.366 8.81799 27.3168 8.52277 27.2548C8.23009 27.1899 7.93479 27.12 7.63947 27.045C7.04895 26.9102 6.44547 26.7288 5.87056 26.5582L5.84966 26.5528C5.7152 26.5114 5.58042 26.5322 5.46661 26.5943C5.35249 26.6537 5.25915 26.7574 5.21792 26.8921C5.15304 27.1122 5.24638 27.3427 5.43529 27.4592C6.01809 27.8194 6.61114 28.0809 7.2329 28.3243C7.84926 28.56 8.53311 28.7104 9.15981 28.8397C9.79431 28.9771 10.4314 29.1012 11.0738 29.2104C11.6514 29.3059 12.2135 29.3888 12.8168 29.451C12.4492 29.4949 12.0813 29.5365 11.7111 29.5754C11.1204 29.6324 10.5247 29.6815 9.93174 29.7204C9.78386 29.7307 9.63906 29.7361 9.48613 29.7409L9.05888 29.749L8.19888 29.7333C7.62143 29.7255 7.02554 29.6839 6.45328 29.653H6.43502C6.33156 29.648 6.23304 29.6737 6.15025 29.7231C6.00778 29.806 5.90671 29.9534 5.89891 30.1298C5.88606 30.3576 6.02843 30.5571 6.23568 30.6295C6.84424 30.8396 7.44531 30.9637 8.06958 31.0648C8.3828 31.1115 8.69617 31.1397 9.01468 31.1527C9.17266 31.1606 9.33331 31.163 9.49404 31.1657L9.95239 31.1733C10.5636 31.1865 11.1774 31.1889 11.7886 31.1811C12.2135 31.176 12.3041 31.176 12.7315 31.1606L12.7858 31.3444C12.0866 31.5645 11.6073 31.7095 10.9029 31.9066C10.3512 32.0618 9.8306 32.1628 9.28944 32.2741C8.75322 32.3959 8.19634 32.4919 7.65496 32.6032L7.64211 32.6083C7.60572 32.6162 7.56954 32.6291 7.53579 32.6418C7.32095 32.7325 7.19397 32.9658 7.24313 33.2015C7.2872 33.4243 7.47369 33.5822 7.68863 33.6003C8.28957 33.6545 8.86978 33.6391 9.46534 33.6003C10.0559 33.5614 10.6543 33.4267 11.2163 33.323C11.7835 33.2169 12.6201 33.02 13.1821 32.901L13.2261 33.0436C12.993 33.178 12.4853 33.4475 12.2525 33.5768C12.0165 33.7064 11.7835 33.8231 11.5504 33.9397C11.3173 34.0509 11.0842 34.1622 10.8537 34.2788H10.8511C10.8485 34.2815 10.8458 34.2815 10.8433 34.2842C10.3745 34.5247 9.89019 34.7577 9.42136 35.0092L9.41356 35.0146C9.17015 35.1466 9.07954 35.4495 9.2116 35.6928C9.31789 35.8899 9.53803 35.9881 9.74779 35.9469C10.2994 35.8408 10.8225 35.6852 11.3536 35.5144C11.8793 35.338 12.3897 35.0947 12.892 34.8744C13.0242 34.8174 13.5473 34.592 13.682 34.5326L13.7702 34.9495C13.6897 35.0064 13.397 35.2111 13.3945 35.2138L12.8168 35.7136C12.4362 36.0556 12.0788 36.4258 11.7421 36.8195C11.5608 37.0344 11.5867 37.3506 11.7991 37.5318C11.9598 37.6692 12.1822 37.6872 12.3585 37.5939C12.361 37.5939 12.3635 37.5917 12.3664 37.5917L12.3688 37.589C12.8324 37.3479 13.2701 37.0785 13.6872 36.781L14.1274 36.5245C14.1301 36.5323 14.3709 37.98 14.4331 38.5782C14.6299 40.4456 14.573 42.5953 14.775 42.8464C14.9433 43.0565 15.2801 43.0098 15.5805 43.0176C15.5598 42.9474 15.5493 42.8802 15.5339 42.8105C15.5339 42.8051 15.5365 42.7973 15.5339 42.7895C15.3189 41.79 15.6167 41.0491 15.8005 40.7488C15.8032 40.7434 15.8032 40.7382 15.8058 40.7332C15.8085 40.7254 15.8266 40.6657 15.8266 40.6527C15.7593 39.4642 15.6012 37.5474 15.3318 36.0608C14.9046 33.6881 14.187 29.8889 13.9824 28.814C13.9695 28.7492 13.9928 28.6922 14.0316 28.6507C14.0782 28.6121 14.1405 28.5913 14.2079 28.6067C14.9356 28.7905 16.1296 28.8994 16.9013 28.9487C17.4791 28.9873 18.8543 28.9849 20.2736 28.5496C19.6728 29.9664 19.3281 31.5931 19.3281 33.3206C19.3281 36.7109 20.6439 39.7074 22.6486 41.5051C22.4104 41.5413 22.2342 41.5747 22.1851 41.5931C21.6696 41.7746 21.2655 42.0335 21.0377 42.1655C21.0324 42.168 21.0271 42.173 21.0246 42.1784C21.0092 42.1836 20.991 42.1914 20.978 42.1993C20.9004 42.2433 20.8952 42.3312 20.9132 42.419C20.9677 42.6628 21.1024 42.9685 21.237 43.1497C21.2655 43.1912 21.294 43.2298 21.3431 43.2326C23.2184 43.3257 24.5962 43.4683 25.6997 44.1676C25.7048 44.1703 25.71 44.1729 25.7152 44.1778C25.7437 44.1959 25.7722 44.2191 25.8033 44.2402C26.3239 44.6492 26.5337 45.4989 26.109 46.1048C25.9611 46.2549 25.8111 46.4026 25.6582 46.5401C25.1453 46.9828 24.5885 47.3611 24.0033 47.6433C23.4179 47.9284 22.8065 48.1044 22.1876 48.1952C21.5633 48.3091 20.9392 48.3917 20.126 48.5834L20.1206 48.5861C20.0948 48.5912 20.069 48.6044 20.0483 48.6198C19.9809 48.6636 19.9446 48.7441 19.9626 48.8269C19.9731 48.8607 19.9887 48.8917 20.012 48.9177C20.6103 49.5624 21.4934 49.8163 22.343 49.7697C22.9879 49.7204 23.6147 49.5341 24.1845 49.2619C24.376 49.1688 24.5627 49.0677 24.7413 48.959C25.451 48.5213 26.0597 47.9489 26.5206 47.2779C26.531 47.2625 26.5388 47.2496 26.5491 47.2339C26.5466 47.2421 26.5439 47.2496 26.5439 47.2572C26.4378 47.6201 26.0907 48.5758 25.8135 48.8944C25.5339 49.2179 25.2774 49.5265 24.9796 49.7697C24.7568 49.9509 24.5264 50.1038 24.2675 50.2361C24.1818 50.2774 24.0938 50.316 24.0033 50.3524C23.6301 50.5077 23.2002 50.6086 22.6952 50.7178H22.69C22.6641 50.7256 22.6408 50.7358 22.6228 50.7488C22.5579 50.7901 22.519 50.8654 22.5373 50.9456C22.5476 50.9921 22.5735 51.0309 22.6097 51.0572C23.0578 51.3755 23.625 51.5259 24.2129 51.4894C24.5108 51.4716 24.8061 51.4014 25.0883 51.2848C25.3655 51.1735 25.6272 51.0153 25.8551 50.8263C25.9328 50.7644 25.9924 50.6943 26.0622 50.6243C26.1918 50.8805 26.3291 51.1398 26.4275 51.396C26.5595 51.7019 26.6631 52.01 26.8315 52.3159C26.8677 52.3856 26.9531 52.4169 26.9843 52.4115C26.9843 52.4169 27.1165 52.3856 27.1551 52.3159C27.3236 52.01 27.4426 51.7019 27.5722 51.396C27.6732 51.1398 27.8107 50.8805 27.9397 50.6243C28.0072 50.6943 28.0696 50.7644 28.1446 50.8263C28.3752 51.0153 28.6369 51.1735 28.9139 51.2848C29.1936 51.4014 29.4917 51.4716 29.7865 51.4894C30.3746 51.5259 30.9418 51.3755 31.39 51.0572C31.4262 51.0309 31.4546 50.9921 31.4648 50.9456C31.4808 50.8654 31.4443 50.7901 31.3798 50.7488C31.359 50.7358 31.3358 50.7256 31.3096 50.7178H31.3069C30.802 50.6086 30.3719 50.5077 29.9966 50.3524C29.9059 50.316 29.8178 50.2774 29.7349 50.2361C29.4757 50.1038 29.243 49.9509 29.02 49.7697C28.7249 49.5265 28.4684 49.2179 28.1862 48.8944C27.9089 48.5758 27.562 47.6201 27.4583 47.2572C27.4556 47.2496 27.4532 47.2421 27.4532 47.2339C27.4607 47.2496 27.4713 47.2625 27.4788 47.2779C27.9397 47.9489 28.5513 48.5213 29.2608 48.959C29.4396 49.0677 29.6237 49.1688 29.8151 49.2619C30.3875 49.5341 31.0115 49.7204 31.6568 49.7697C32.5087 49.8163 33.3921 49.5624 33.9904 48.9177C34.0112 48.8917 34.029 48.8607 34.0369 48.8269C34.0576 48.7441 34.0188 48.6636 33.9513 48.6198C33.9307 48.6044 33.9073 48.5912 33.8789 48.5861L33.8765 48.5834C33.0605 48.3917 32.439 48.3091 31.8148 48.1952C31.1956 48.1044 30.5819 47.9284 29.9966 47.6433C29.4112 47.3611 28.8542 46.9828 28.3415 46.5401C28.1914 46.4026 28.0385 46.2549 27.8935 46.1048C27.4661 45.4989 27.6759 44.6492 28.1989 44.2402C28.2275 44.2191 28.2559 44.1959 28.2872 44.1778C28.2923 44.1729 28.2975 44.1703 28.3026 44.1676C29.4058 43.4683 30.7839 43.3257 32.6563 43.2326C32.7058 43.2298 32.7341 43.1912 32.7654 43.1497C32.8975 42.9685 33.0322 42.6628 33.0865 42.419C33.1045 42.3312 33.0994 42.2433 33.0217 42.1993C33.0087 42.1914 32.9906 42.1836 32.9749 42.1784C32.9698 42.173 32.9647 42.168 32.9593 42.1655C32.7317 42.0335 32.3251 41.7746 31.8069 41.5931C31.7602 41.5747 31.5893 41.5437 31.3666 41.5075C33.3737 39.7129 34.6921 36.7137 34.6921 33.3206C34.6921 31.5931 34.3479 29.9718 33.7466 28.5524C35.1584 28.9823 36.5233 28.9873 37.0981 28.9487C37.87 28.8994 39.0667 28.7905 39.7946 28.6067C39.8591 28.5913 39.9239 28.6121 39.9679 28.6507C40.0095 28.6922 40.0303 28.7492 40.0198 28.814C39.8151 29.8889 39.0953 33.6881 38.6679 36.0608C38.4011 37.5474 38.2405 39.4642 38.176 40.6527C38.176 40.6657 38.1913 40.7254 38.1965 40.7332C38.1992 40.7382 38.1965 40.7434 38.1992 40.7488C38.3855 41.0491 38.6809 41.79 38.4659 42.7895C38.4659 42.7973 38.4686 42.8051 38.4659 42.8105C38.4503 42.8802 38.4427 42.9474 38.4219 43.0176C38.7222 43.0098 39.0562 43.0565 39.2246 42.8464C39.4266 42.5953 39.3723 40.4456 39.5694 38.5782C39.6313 37.98 39.8724 36.5323 39.8724 36.5245L40.3125 36.781C40.7296 37.0785 41.1697 37.3479 41.6309 37.589L41.636 37.5917C41.6387 37.5917 41.6387 37.5939 41.6414 37.5939C41.8199 37.6872 42.0426 37.6692 42.2033 37.5318C42.4155 37.3506 42.439 37.0344 42.2575 36.8195C41.9209 36.4258 41.5661 36.0556 41.1854 35.7136L40.6051 35.2138C40.6051 35.2111 40.3125 35.0064 40.2296 34.9495L40.3203 34.5326C40.4523 34.592 40.978 34.8174 41.1103 34.8744C41.6101 35.0947 42.1204 35.338 42.6488 35.5144C43.1772 35.6852 43.7029 35.8408 44.2545 35.9469C44.4645 35.9881 44.6819 35.8899 44.788 35.6928C44.92 35.4495 44.8296 35.1466 44.586 35.0146L44.5782 35.0092C44.1119 34.7577 43.6278 34.5247 43.1591 34.2842C43.1564 34.2815 43.1537 34.2815 43.1488 34.2788C42.9153 34.1622 42.6823 34.0509 42.4517 33.9397C42.2162 33.8231 41.983 33.7064 41.7499 33.5768C41.5142 33.4475 41.0093 33.178 40.7736 33.0436L40.8203 32.901C41.3825 33.02 42.2162 33.2169 42.7835 33.323C43.3481 33.4267 43.9464 33.5614 44.5369 33.6003C45.1298 33.6391 45.71 33.6545 46.3135 33.6003C46.5284 33.5822 46.7125 33.4243 46.759 33.2015C46.8081 32.9658 46.6788 32.7325 46.4639 32.6418C46.4301 32.6291 46.3964 32.6162 46.3602 32.6083L46.3445 32.6032C45.8059 32.4919 45.2491 32.3959 44.7105 32.2741C44.1691 32.1628 43.6483 32.0618 43.0994 31.9066C42.3923 31.7095 41.9157 31.5645 41.214 31.3444L41.2707 31.1606C41.6957 31.176 41.7888 31.176 42.2111 31.1811C42.8245 31.1889 43.4361 31.1865 44.0498 31.1733L44.5085 31.1657C44.6665 31.163 44.8269 31.1606 44.9848 31.1527C45.3034 31.1397 45.6196 31.1115 45.9301 31.0648C46.5543 30.9637 47.1578 30.8396 47.7666 30.6295C47.9713 30.5571 48.1136 30.3576 48.1033 30.1298C48.0928 29.9534 47.9918 29.806 47.8519 29.7231C47.7693 29.6737 47.6708 29.648 47.5671 29.653H47.5466C46.9742 29.6839 46.381 29.7255 45.8035 29.7333L44.9408 29.749L44.5161 29.7409C44.3633 29.7361 44.2159 29.7307 44.0679 29.7204C43.475 29.6815 42.8818 29.6324 42.2886 29.5754C41.9209 29.5365 41.5507 29.4949 41.1854 29.451C41.7888 29.3888 42.3507 29.3059 42.9285 29.2104C43.5706 29.1012 44.2053 28.9771 44.8398 28.8397C45.4692 28.7104 46.1531 28.56 46.7668 28.3243C47.3908 28.0809 47.9842 27.8194 48.5669 27.4592C48.7532 27.3427 48.8466 27.1122 48.7818 26.8921Z" fill="black"/>
<path d="M16.4171 34.3724H15.9897V34.0302H16.8237V35.6826H16.4171V34.3724Z" fill="black"/>
<path d="M17.4036 36.1229L18.2947 34.3954H17.3156V34.0301H18.7039V34.3152L17.7559 36.2419L17.4036 36.1229Z" fill="black"/>
<path d="M35.2208 35.3874C35.4308 35.2268 36.0572 34.8512 36.0572 34.6258C36.0572 34.4473 35.9303 34.3955 35.7519 34.3955C35.599 34.3955 35.4357 34.4525 35.3606 34.4836L35.2623 34.2011C35.3425 34.1492 35.5626 34.0743 35.7672 34.0743C36.3035 34.0743 36.4379 34.3491 36.4379 34.6129C36.4379 34.9679 35.9614 35.2579 35.713 35.3926H36.5184V35.7085H35.2208V35.3874Z" fill="black"/>
<path d="M37.6012 35.3897V34.5274L37.1141 35.3897H37.6012ZM37.6012 35.7084H36.7075V35.3897L37.4249 34.1181H37.9897V35.3897H38.2927V35.7084H37.9897V36.2651H37.6012V35.7084Z" fill="black"/>
<path d="M74.942 14.168C74.298 14.168 73.7147 14.0653 73.192 13.86C72.6787 13.6453 72.2353 13.328 71.862 12.908C71.498 12.488 71.218 11.97 71.022 11.354C70.826 10.7287 70.728 10.0053 70.728 9.184C70.728 8.36267 70.826 7.63467 71.022 7C71.218 6.356 71.498 5.81933 71.862 5.39C72.2353 4.95133 72.6787 4.62 73.192 4.396C73.7147 4.172 74.298 4.06 74.942 4.06C75.8193 4.06 76.5473 4.24667 77.126 4.62C77.7047 4.99333 78.1667 5.558 78.512 6.314L76.93 7.154C76.79 6.71533 76.5613 6.36533 76.244 6.104C75.9267 5.83333 75.4927 5.698 74.942 5.698C74.2513 5.698 73.7007 5.93133 73.29 6.398C72.8887 6.86467 72.688 7.518 72.688 8.358V9.898C72.688 10.7473 72.8887 11.4007 73.29 11.858C73.7007 12.306 74.2513 12.53 74.942 12.53C75.4927 12.53 75.9407 12.3807 76.286 12.082C76.6407 11.7833 76.8973 11.4147 77.056 10.976L78.554 11.858C78.1993 12.586 77.728 13.1553 77.14 13.566C76.552 13.9673 75.8193 14.168 74.942 14.168ZM85.5544 14C85.1624 14 84.8498 13.888 84.6164 13.664C84.3924 13.4307 84.2524 13.1227 84.1964 12.74H84.1124C83.9911 13.216 83.7438 13.5753 83.3704 13.818C82.9971 14.0513 82.5351 14.168 81.9844 14.168C81.2378 14.168 80.6638 13.972 80.2624 13.58C79.8611 13.188 79.6604 12.6653 79.6604 12.012C79.6604 11.256 79.9311 10.696 80.4724 10.332C81.0138 9.95867 81.7838 9.772 82.7824 9.772H84.0284V9.24C84.0284 8.82933 83.9211 8.512 83.7064 8.288C83.4918 8.064 83.1464 7.952 82.6704 7.952C82.2504 7.952 81.9098 8.04533 81.6484 8.232C81.3964 8.40933 81.1818 8.624 81.0044 8.876L79.9404 7.924C80.2111 7.504 80.5704 7.168 81.0184 6.916C81.4664 6.65467 82.0591 6.524 82.7964 6.524C83.7858 6.524 84.5371 6.748 85.0504 7.196C85.5638 7.644 85.8204 8.288 85.8204 9.128V12.572H86.5484V14H85.5544ZM82.5864 12.866C82.9878 12.866 83.3284 12.7773 83.6084 12.6C83.8884 12.4227 84.0284 12.1613 84.0284 11.816V10.85H82.8804C81.9471 10.85 81.4804 11.1487 81.4804 11.746V11.984C81.4804 12.2827 81.5738 12.5067 81.7604 12.656C81.9564 12.796 82.2318 12.866 82.5864 12.866ZM88.1587 6.692H89.9507V9.562H92.7647V6.692H94.5567V14H92.7647V10.99H89.9507V14H88.1587V6.692ZM96.7953 6.692H98.5873V9.562H99.7633L100.869 7.644C101.075 7.28933 101.285 7.042 101.499 6.902C101.714 6.762 101.999 6.692 102.353 6.692H103.151V8.12H102.367L101.597 9.464C101.467 9.70667 101.341 9.87933 101.219 9.982C101.098 10.0753 100.953 10.1453 100.785 10.192V10.262C100.953 10.2993 101.103 10.3647 101.233 10.458C101.373 10.5513 101.509 10.7147 101.639 10.948L102.549 12.572H103.319V14H102.409C102.055 14 101.761 13.9253 101.527 13.776C101.303 13.6267 101.089 13.37 100.883 13.006L99.7633 10.976H98.5873V14H96.7953V6.692ZM106.533 8.12H104.307V6.692H110.551V8.12H108.325V14H106.533V8.12ZM111.657 10.626V8.848H115.661V10.626H111.657ZM117.786 4.228H125.346V14H123.498V5.866H119.634V14H117.786V4.228ZM130.645 14.168C130.104 14.168 129.618 14.0793 129.189 13.902C128.769 13.7153 128.41 13.4587 128.111 13.132C127.822 12.796 127.598 12.3947 127.439 11.928C127.28 11.452 127.201 10.92 127.201 10.332C127.201 9.75333 127.276 9.23067 127.425 8.764C127.584 8.29733 127.808 7.90067 128.097 7.574C128.386 7.238 128.741 6.98133 129.161 6.804C129.581 6.61733 130.057 6.524 130.589 6.524C131.158 6.524 131.653 6.622 132.073 6.818C132.493 7.014 132.838 7.28 133.109 7.616C133.38 7.952 133.58 8.344 133.711 8.792C133.851 9.23067 133.921 9.702 133.921 10.206V10.794H129.063V10.976C129.063 11.508 129.212 11.9373 129.511 12.264C129.81 12.5813 130.253 12.74 130.841 12.74C131.289 12.74 131.653 12.6467 131.933 12.46C132.222 12.2733 132.479 12.0353 132.703 11.746L133.669 12.824C133.37 13.244 132.96 13.5753 132.437 13.818C131.924 14.0513 131.326 14.168 130.645 14.168ZM130.617 7.868C130.141 7.868 129.763 8.02667 129.483 8.344C129.203 8.66133 129.063 9.072 129.063 9.576V9.688H132.059V9.562C132.059 9.058 131.933 8.652 131.681 8.344C131.438 8.02667 131.084 7.868 130.617 7.868ZM137.032 8.12H134.806V6.692H141.05V8.12H138.824V14H137.032V8.12ZM145.389 14.168C144.848 14.168 144.362 14.0793 143.933 13.902C143.513 13.7153 143.154 13.4587 142.855 13.132C142.566 12.796 142.342 12.3947 142.183 11.928C142.024 11.452 141.945 10.92 141.945 10.332C141.945 9.75333 142.02 9.23067 142.169 8.764C142.328 8.29733 142.552 7.90067 142.841 7.574C143.13 7.238 143.485 6.98133 143.905 6.804C144.325 6.61733 144.801 6.524 145.333 6.524C145.902 6.524 146.397 6.622 146.817 6.818C147.237 7.014 147.582 7.28 147.853 7.616C148.124 7.952 148.324 8.344 148.455 8.792C148.595 9.23067 148.665 9.702 148.665 10.206V10.794H143.807V10.976C143.807 11.508 143.956 11.9373 144.255 12.264C144.554 12.5813 144.997 12.74 145.585 12.74C146.033 12.74 146.397 12.6467 146.677 12.46C146.966 12.2733 147.223 12.0353 147.447 11.746L148.413 12.824C148.114 13.244 147.704 13.5753 147.181 13.818C146.668 14.0513 146.07 14.168 145.389 14.168ZM145.361 7.868C144.885 7.868 144.507 8.02667 144.227 8.344C143.947 8.66133 143.807 9.072 143.807 9.576V9.688H146.803V9.562C146.803 9.058 146.677 8.652 146.425 8.344C146.182 8.02667 145.828 7.868 145.361 7.868ZM150.402 6.692H152.194V7.896H152.25C152.38 7.476 152.628 7.14467 152.992 6.902C153.356 6.65 153.78 6.524 154.266 6.524C155.199 6.524 155.908 6.85533 156.394 7.518C156.888 8.17133 157.136 9.10933 157.136 10.332C157.136 11.564 156.888 12.5113 156.394 13.174C155.908 13.8367 155.199 14.168 154.266 14.168C153.78 14.168 153.356 14.042 152.992 13.79C152.637 13.538 152.39 13.202 152.25 12.782H152.194V16.8H150.402V6.692ZM153.692 12.684C154.158 12.684 154.536 12.53 154.826 12.222C155.115 11.914 155.26 11.4987 155.26 10.976V9.716C155.26 9.19333 155.115 8.778 154.826 8.47C154.536 8.15267 154.158 7.994 153.692 7.994C153.262 7.994 152.903 8.10133 152.614 8.316C152.334 8.53067 152.194 8.81533 152.194 9.17V11.494C152.194 11.8767 152.334 12.1707 152.614 12.376C152.903 12.5813 153.262 12.684 153.692 12.684ZM161.924 14.168C161.392 14.168 160.916 14.0793 160.496 13.902C160.085 13.7247 159.73 13.4493 159.432 13.076C159.142 12.6933 158.918 12.208 158.76 11.62C158.61 11.032 158.536 10.332 158.536 9.52C158.536 8.55867 158.61 7.728 158.76 7.028C158.909 6.328 159.142 5.74467 159.46 5.278C159.777 4.802 160.183 4.438 160.678 4.186C161.172 3.934 161.76 3.77533 162.442 3.71L164.794 3.486V5.222L162.4 5.446C162.036 5.48333 161.732 5.558 161.49 5.67C161.247 5.77267 161.046 5.93133 160.888 6.146C160.738 6.36067 160.626 6.64533 160.552 7C160.486 7.34533 160.44 7.77467 160.412 8.288H160.468C160.645 7.80267 160.888 7.43867 161.196 7.196C161.513 6.95333 161.938 6.832 162.47 6.832C162.871 6.832 163.244 6.91133 163.59 7.07C163.944 7.22867 164.248 7.462 164.5 7.77C164.752 8.06867 164.948 8.43733 165.088 8.876C165.237 9.31467 165.312 9.814 165.312 10.374C165.312 10.9527 165.232 11.4753 165.074 11.942C164.924 12.4087 164.7 12.81 164.402 13.146C164.112 13.4727 163.758 13.7247 163.338 13.902C162.918 14.0793 162.446 14.168 161.924 14.168ZM161.952 12.726C162.409 12.726 162.773 12.5813 163.044 12.292C163.314 12.0027 163.45 11.5873 163.45 11.046V9.996C163.45 9.436 163.31 9.01133 163.03 8.722C162.759 8.43267 162.386 8.288 161.91 8.288C161.424 8.288 161.051 8.428 160.79 8.708C160.538 8.97867 160.412 9.35667 160.412 9.842V11.004C160.412 11.564 160.547 11.9933 160.818 12.292C161.098 12.5813 161.476 12.726 161.952 12.726ZM171.444 6.692H173.124L170.184 15.302C170.09 15.5633 169.983 15.7873 169.862 15.974C169.75 16.17 169.614 16.3287 169.456 16.45C169.297 16.5713 169.106 16.66 168.882 16.716C168.658 16.772 168.396 16.8 168.098 16.8H167.02V15.372H168.336L168.672 14.35L166.054 6.692H167.832L169.106 10.556L169.582 12.404H169.666L170.17 10.556L171.444 6.692ZM174.466 6.692H176.258V7.896H176.314C176.444 7.476 176.692 7.14467 177.056 6.902C177.42 6.65 177.844 6.524 178.33 6.524C179.263 6.524 179.972 6.85533 180.458 7.518C180.952 8.17133 181.2 9.10933 181.2 10.332C181.2 11.564 180.952 12.5113 180.458 13.174C179.972 13.8367 179.263 14.168 178.33 14.168C177.844 14.168 177.42 14.042 177.056 13.79C176.701 13.538 176.454 13.202 176.314 12.782H176.258V16.8H174.466V6.692ZM177.756 12.684C178.222 12.684 178.6 12.53 178.89 12.222C179.179 11.914 179.324 11.4987 179.324 10.976V9.716C179.324 9.19333 179.179 8.778 178.89 8.47C178.6 8.15267 178.222 7.994 177.756 7.994C177.326 7.994 176.967 8.10133 176.678 8.316C176.398 8.53067 176.258 8.81533 176.258 9.17V11.494C176.258 11.8767 176.398 12.1707 176.678 12.376C176.967 12.5813 177.326 12.684 177.756 12.684ZM183.02 6.692H187.864V8.12H184.812V14H183.02V6.692ZM192.093 14.168C191.552 14.168 191.071 14.0793 190.651 13.902C190.231 13.7247 189.877 13.468 189.587 13.132C189.307 12.796 189.093 12.3947 188.943 11.928C188.794 11.452 188.719 10.92 188.719 10.332C188.719 9.744 188.794 9.21667 188.943 8.75C189.093 8.28333 189.307 7.88667 189.587 7.56C189.877 7.224 190.231 6.96733 190.651 6.79C191.071 6.61267 191.552 6.524 192.093 6.524C192.831 6.524 193.437 6.68733 193.913 7.014C194.399 7.34067 194.749 7.79333 194.963 8.372L193.493 9.03C193.409 8.722 193.251 8.47 193.017 8.274C192.793 8.06867 192.485 7.966 192.093 7.966C191.589 7.966 191.211 8.12467 190.959 8.442C190.717 8.75933 190.595 9.17467 190.595 9.688V11.018C190.595 11.5313 190.717 11.9467 190.959 12.264C191.211 12.572 191.589 12.726 192.093 12.726C192.523 12.726 192.854 12.6187 193.087 12.404C193.321 12.18 193.503 11.9047 193.633 11.578L195.005 12.236C194.763 12.88 194.394 13.3653 193.899 13.692C193.405 14.0093 192.803 14.168 192.093 14.168ZM196.547 6.692H198.339V9.562H199.515L200.621 7.644C200.827 7.28933 201.037 7.042 201.251 6.902C201.466 6.762 201.751 6.692 202.105 6.692H202.903V8.12H202.119L201.349 9.464C201.219 9.70667 201.093 9.87933 200.971 9.982C200.85 10.0753 200.705 10.1453 200.537 10.192V10.262C200.705 10.2993 200.855 10.3647 200.985 10.458C201.125 10.5513 201.261 10.7147 201.391 10.948L202.301 12.572H203.071V14H202.161C201.807 14 201.513 13.9253 201.279 13.776C201.055 13.6267 200.841 13.37 200.635 13.006L199.515 10.976H198.339V14H196.547V6.692ZM204.815 6.692H206.565V9.954L206.411 11.662H206.467L207.321 10.108L209.603 6.692H211.213V14H209.463V10.738L209.617 9.016H209.561L208.707 10.584L206.425 14H204.815V6.692ZM213.451 6.692H215.201V9.954L215.047 11.662H215.103L215.957 10.108L218.239 6.692H219.849V14H218.099V10.738L218.253 9.016H218.197L217.343 10.584L215.061 14H213.451V6.692ZM216.657 5.824C216.069 5.824 215.598 5.70267 215.243 5.46C214.888 5.208 214.608 4.85333 214.403 4.396L214.109 3.738L215.537 3.178L215.999 4.522C216.074 4.55 216.172 4.57333 216.293 4.592C216.414 4.60133 216.536 4.606 216.657 4.606C216.778 4.606 216.9 4.60133 217.021 4.592C217.142 4.57333 217.24 4.55 217.315 4.522L217.777 3.178L219.205 3.738L218.911 4.396C218.706 4.85333 218.426 5.208 218.071 5.46C217.716 5.70267 217.245 5.824 216.657 5.824ZM71.148 22.228H76.762V23.866H72.996V32H71.148V22.228ZM79.8362 32.168C79.3135 32.168 78.8422 32.0793 78.4222 31.902C78.0115 31.7247 77.6569 31.468 77.3582 31.132C77.0689 30.796 76.8449 30.3947 76.6862 29.928C76.5275 29.452 76.4482 28.92 76.4482 28.332C76.4482 27.744 76.5275 27.2167 76.6862 26.75C76.8449 26.2833 77.0689 25.8867 77.3582 25.56C77.6569 25.224 78.0115 24.9673 78.4222 24.79C78.8422 24.6127 79.3135 24.524 79.8362 24.524C80.3589 24.524 80.8302 24.6127 81.2502 24.79C81.6702 24.9673 82.0249 25.224 82.3142 25.56C82.6129 25.8867 82.8415 26.2833 83.0002 26.75C83.1589 27.2167 83.2382 27.744 83.2382 28.332C83.2382 28.92 83.1589 29.452 83.0002 29.928C82.8415 30.3947 82.6129 30.796 82.3142 31.132C82.0249 31.468 81.6702 31.7247 81.2502 31.902C80.8302 32.0793 80.3589 32.168 79.8362 32.168ZM79.8362 30.726C80.3122 30.726 80.6855 30.5813 80.9562 30.292C81.2269 30.0027 81.3622 29.578 81.3622 29.018V27.66C81.3622 27.1093 81.2269 26.6893 80.9562 26.4C80.6855 26.1107 80.3122 25.966 79.8362 25.966C79.3695 25.966 79.0009 26.1107 78.7302 26.4C78.4595 26.6893 78.3242 27.1093 78.3242 27.66V29.018C78.3242 29.578 78.4595 30.0027 78.7302 30.292C79.0009 30.5813 79.3695 30.726 79.8362 30.726ZM87.8709 32.168C87.3295 32.168 86.8489 32.0793 86.4289 31.902C86.0089 31.7247 85.6542 31.468 85.3649 31.132C85.0849 30.796 84.8702 30.3947 84.7209 29.928C84.5715 29.452 84.4969 28.92 84.4969 28.332C84.4969 27.744 84.5715 27.2167 84.7209 26.75C84.8702 26.2833 85.0849 25.8867 85.3649 25.56C85.6542 25.224 86.0089 24.9673 86.4289 24.79C86.8489 24.6127 87.3295 24.524 87.8709 24.524C88.6082 24.524 89.2149 24.6873 89.6909 25.014C90.1762 25.3407 90.5262 25.7933 90.7409 26.372L89.2709 27.03C89.1869 26.722 89.0282 26.47 88.7949 26.274C88.5709 26.0687 88.2629 25.966 87.8709 25.966C87.3669 25.966 86.9889 26.1247 86.7369 26.442C86.4942 26.7593 86.3729 27.1747 86.3729 27.688V29.018C86.3729 29.5313 86.4942 29.9467 86.7369 30.264C86.9889 30.572 87.3669 30.726 87.8709 30.726C88.3002 30.726 88.6315 30.6187 88.8649 30.404C89.0982 30.18 89.2802 29.9047 89.4109 29.578L90.7829 30.236C90.5402 30.88 90.1715 31.3653 89.6769 31.692C89.1822 32.0093 88.5802 32.168 87.8709 32.168ZM96.7909 24.692H98.4709L95.5309 33.302C95.4376 33.5633 95.3303 33.7873 95.2089 33.974C95.0969 34.17 94.9616 34.3287 94.8029 34.45C94.6443 34.5713 94.4529 34.66 94.2289 34.716C94.0049 34.772 93.7436 34.8 93.4449 34.8H92.3669V33.372H93.6829L94.0189 32.35L91.4009 24.692H93.1789L94.4529 28.556L94.9289 30.404H95.0129L95.5169 28.556L96.7909 24.692ZM98.5883 30.572H99.5123C99.7829 30.18 99.9836 29.6853 100.114 29.088C100.245 28.4907 100.31 27.7207 100.31 26.778V24.692H105.924V30.572H107.17V33.96H105.546V32H100.212V33.96H98.5883V30.572ZM104.132 30.572V26.12H102.018V26.862C102.018 27.8607 101.958 28.654 101.836 29.242C101.715 29.8207 101.566 30.264 101.388 30.572H104.132ZM113.989 32C113.597 32 113.285 31.888 113.051 31.664C112.827 31.4307 112.687 31.1227 112.631 30.74H112.547C112.426 31.216 112.179 31.5753 111.805 31.818C111.432 32.0513 110.97 32.168 110.419 32.168C109.673 32.168 109.099 31.972 108.697 31.58C108.296 31.188 108.095 30.6653 108.095 30.012C108.095 29.256 108.366 28.696 108.907 28.332C109.449 27.9587 110.219 27.772 111.217 27.772H112.463V27.24C112.463 26.8293 112.356 26.512 112.141 26.288C111.927 26.064 111.581 25.952 111.105 25.952C110.685 25.952 110.345 26.0453 110.083 26.232C109.831 26.4093 109.617 26.624 109.439 26.876L108.375 25.924C108.646 25.504 109.005 25.168 109.453 24.916C109.901 24.6547 110.494 24.524 111.231 24.524C112.221 24.524 112.972 24.748 113.485 25.196C113.999 25.644 114.255 26.288 114.255 27.128V30.572H114.983V32H113.989ZM111.021 30.866C111.423 30.866 111.763 30.7773 112.043 30.6C112.323 30.4227 112.463 30.1613 112.463 29.816V28.85H111.315C110.382 28.85 109.915 29.1487 109.915 29.746V29.984C109.915 30.2827 110.009 30.5067 110.195 30.656C110.391 30.796 110.667 30.866 111.021 30.866ZM116.594 24.692H118.386V25.896H118.442C118.572 25.476 118.82 25.1447 119.184 24.902C119.548 24.65 119.972 24.524 120.458 24.524C121.391 24.524 122.1 24.8553 122.586 25.518C123.08 26.1713 123.328 27.1093 123.328 28.332C123.328 29.564 123.08 30.5113 122.586 31.174C122.1 31.8367 121.391 32.168 120.458 32.168C119.972 32.168 119.548 32.042 119.184 31.79C118.829 31.538 118.582 31.202 118.442 30.782H118.386V34.8H116.594V24.692ZM119.884 30.684C120.35 30.684 120.728 30.53 121.018 30.222C121.307 29.914 121.452 29.4987 121.452 28.976V27.716C121.452 27.1933 121.307 26.778 121.018 26.47C120.728 26.1527 120.35 25.994 119.884 25.994C119.454 25.994 119.095 26.1013 118.806 26.316C118.526 26.5307 118.386 26.8153 118.386 27.17V29.494C118.386 29.8767 118.526 30.1707 118.806 30.376C119.095 30.5813 119.454 30.684 119.884 30.684ZM128.032 32.168C127.491 32.168 127.01 32.0793 126.59 31.902C126.17 31.7247 125.816 31.468 125.526 31.132C125.246 30.796 125.032 30.3947 124.882 29.928C124.733 29.452 124.658 28.92 124.658 28.332C124.658 27.744 124.733 27.2167 124.882 26.75C125.032 26.2833 125.246 25.8867 125.526 25.56C125.816 25.224 126.17 24.9673 126.59 24.79C127.01 24.6127 127.491 24.524 128.032 24.524C128.77 24.524 129.376 24.6873 129.852 25.014C130.338 25.3407 130.688 25.7933 130.902 26.372L129.432 27.03C129.348 26.722 129.19 26.47 128.956 26.274C128.732 26.0687 128.424 25.966 128.032 25.966C127.528 25.966 127.15 26.1247 126.898 26.442C126.656 26.7593 126.534 27.1747 126.534 27.688V29.018C126.534 29.5313 126.656 29.9467 126.898 30.264C127.15 30.572 127.528 30.726 128.032 30.726C128.462 30.726 128.793 30.6187 129.026 30.404C129.26 30.18 129.442 29.9047 129.572 29.578L130.944 30.236C130.702 30.88 130.333 31.3653 129.838 31.692C129.344 32.0093 128.742 32.168 128.032 32.168ZM134.052 26.12H131.826V24.692H138.07V26.12H135.844V32H134.052V26.12ZM139.55 24.692H143.568C144.222 24.692 144.721 24.86 145.066 25.196C145.412 25.5227 145.584 25.966 145.584 26.526C145.584 27.45 145.08 27.982 144.072 28.122V28.178C144.67 28.234 145.118 28.4067 145.416 28.696C145.715 28.9853 145.864 29.3727 145.864 29.858C145.864 30.4927 145.668 31.0107 145.276 31.412C144.884 31.804 144.338 32 143.638 32H139.55V24.692ZM143.274 30.698C143.517 30.698 143.704 30.6373 143.834 30.516C143.965 30.3853 144.03 30.2033 144.03 29.97V29.578C144.03 29.3447 143.965 29.1673 143.834 29.046C143.704 28.9153 143.517 28.85 143.274 28.85H141.3V30.698H143.274ZM143.064 27.716C143.279 27.716 143.447 27.6553 143.568 27.534C143.699 27.4127 143.764 27.2447 143.764 27.03V26.68C143.764 26.4653 143.699 26.2973 143.568 26.176C143.447 26.0547 143.279 25.994 143.064 25.994H141.3V27.716H143.064ZM150.662 32.168C150.121 32.168 149.636 32.0793 149.206 31.902C148.786 31.7153 148.427 31.4587 148.128 31.132C147.839 30.796 147.615 30.3947 147.456 29.928C147.298 29.452 147.218 28.92 147.218 28.332C147.218 27.7533 147.293 27.2307 147.442 26.764C147.601 26.2973 147.825 25.9007 148.114 25.574C148.404 25.238 148.758 24.9813 149.178 24.804C149.598 24.6173 150.074 24.524 150.606 24.524C151.176 24.524 151.67 24.622 152.09 24.818C152.51 25.014 152.856 25.28 153.126 25.616C153.397 25.952 153.598 26.344 153.728 26.792C153.868 27.2307 153.938 27.702 153.938 28.206V28.794H149.08V28.976C149.08 29.508 149.23 29.9373 149.528 30.264C149.827 30.5813 150.27 30.74 150.858 30.74C151.306 30.74 151.67 30.6467 151.95 30.46C152.24 30.2733 152.496 30.0353 152.72 29.746L153.686 30.824C153.388 31.244 152.977 31.5753 152.454 31.818C151.941 32.0513 151.344 32.168 150.662 32.168ZM150.634 25.868C150.158 25.868 149.78 26.0267 149.5 26.344C149.22 26.6613 149.08 27.072 149.08 27.576V27.688H152.076V27.562C152.076 27.058 151.95 26.652 151.698 26.344C151.456 26.0267 151.101 25.868 150.634 25.868ZM155.675 24.692H157.467V27.562H160.281V24.692H162.073V32H160.281V28.99H157.467V32H155.675V24.692ZM164.311 24.692H166.103V27.562H168.917V24.692H170.709V32H168.917V28.99H166.103V32H164.311V24.692ZM172.948 24.692H174.74V27.002H176.56C176.915 27.002 177.241 27.058 177.54 27.17C177.848 27.282 178.109 27.4453 178.324 27.66C178.548 27.8653 178.721 28.122 178.842 28.43C178.973 28.738 179.038 29.0927 179.038 29.494C179.038 29.8953 178.977 30.2547 178.856 30.572C178.735 30.88 178.562 31.1413 178.338 31.356C178.123 31.5613 177.862 31.72 177.554 31.832C177.255 31.944 176.924 32 176.56 32H172.948V24.692ZM176.196 30.67C176.513 30.67 176.761 30.5953 176.938 30.446C177.125 30.2967 177.218 30.0727 177.218 29.774V29.228C177.218 28.9293 177.125 28.7053 176.938 28.556C176.761 28.4067 176.513 28.332 176.196 28.332H174.74V30.67H176.196ZM180.06 24.692H181.852V32H180.06V24.692ZM184.087 24.692H185.837V27.954L185.683 29.662H185.739L186.593 28.108L188.875 24.692H190.485V32H188.735V28.738L188.889 27.016H188.833L187.979 28.584L185.697 32H184.087V24.692ZM187.293 23.824C186.705 23.824 186.233 23.7027 185.879 23.46C185.524 23.208 185.244 22.8533 185.039 22.396L184.745 21.738L186.173 21.178L186.635 22.522C186.709 22.55 186.807 22.5733 186.929 22.592C187.05 22.6013 187.171 22.606 187.293 22.606C187.414 22.606 187.535 22.6013 187.657 22.592C187.778 22.5733 187.876 22.55 187.951 22.522L188.413 21.178L189.841 21.738L189.547 22.396C189.341 22.8533 189.061 23.208 188.707 23.46C188.352 23.7027 187.881 23.824 187.293 23.824ZM71.778 48.362H73.402L73.682 47.648L70.21 40.228H72.17L73.766 43.686L74.55 45.548H74.592L75.278 43.658L76.65 40.228H78.484L75.04 48.67C74.9373 48.922 74.8253 49.132 74.704 49.3C74.5827 49.468 74.4427 49.608 74.284 49.72C74.1253 49.8227 73.9387 49.8973 73.724 49.944C73.5187 49.9813 73.276 50 72.996 50H71.778V48.362ZM79.194 42.692H80.986V45.562H83.8V42.692H85.592V50H83.8V46.99H80.986V50H79.194V42.692ZM87.8306 42.692H89.5806V45.954L89.4266 47.662H89.4826L90.3366 46.108L92.6186 42.692H94.2286V50H92.4786V46.738L92.6326 45.016H92.5766L91.7226 46.584L89.4406 50H87.8306V42.692ZM96.4672 42.692H100.485C101.139 42.692 101.638 42.86 101.983 43.196C102.329 43.5227 102.501 43.966 102.501 44.526C102.501 45.45 101.997 45.982 100.989 46.122V46.178C101.587 46.234 102.035 46.4067 102.333 46.696C102.632 46.9853 102.781 47.3727 102.781 47.858C102.781 48.4927 102.585 49.0107 102.193 49.412C101.801 49.804 101.255 50 100.555 50H96.4672V42.692ZM100.191 48.698C100.434 48.698 100.621 48.6373 100.751 48.516C100.882 48.3853 100.947 48.2033 100.947 47.97V47.578C100.947 47.3447 100.882 47.1673 100.751 47.046C100.621 46.9153 100.434 46.85 100.191 46.85H98.2172V48.698H100.191ZM99.9812 45.716C100.196 45.716 100.364 45.6553 100.485 45.534C100.616 45.4127 100.681 45.2447 100.681 45.03V44.68C100.681 44.4653 100.616 44.2973 100.485 44.176C100.364 44.0547 100.196 43.994 99.9812 43.994H98.2172V45.716H99.9812ZM107.579 50.168C107.038 50.168 106.553 50.0793 106.123 49.902C105.703 49.7153 105.344 49.4587 105.045 49.132C104.756 48.796 104.532 48.3947 104.373 47.928C104.215 47.452 104.135 46.92 104.135 46.332C104.135 45.7533 104.21 45.2307 104.359 44.764C104.518 44.2973 104.742 43.9007 105.031 43.574C105.321 43.238 105.675 42.9813 106.095 42.804C106.515 42.6173 106.991 42.524 107.523 42.524C108.093 42.524 108.587 42.622 109.007 42.818C109.427 43.014 109.773 43.28 110.043 43.616C110.314 43.952 110.515 44.344 110.645 44.792C110.785 45.2307 110.855 45.702 110.855 46.206V46.794H105.997V46.976C105.997 47.508 106.147 47.9373 106.445 48.264C106.744 48.5813 107.187 48.74 107.775 48.74C108.223 48.74 108.587 48.6467 108.867 48.46C109.157 48.2733 109.413 48.0353 109.637 47.746L110.603 48.824C110.305 49.244 109.894 49.5753 109.371 49.818C108.858 50.0513 108.261 50.168 107.579 50.168ZM107.551 43.868C107.075 43.868 106.697 44.0267 106.417 44.344C106.137 44.6613 105.997 45.072 105.997 45.576V45.688H108.993V45.562C108.993 45.058 108.867 44.652 108.615 44.344C108.373 44.0267 108.018 43.868 107.551 43.868ZM112.592 42.692H114.384V43.896H114.44C114.571 43.476 114.818 43.1447 115.182 42.902C115.546 42.65 115.971 42.524 116.456 42.524C117.389 42.524 118.099 42.8553 118.584 43.518C119.079 44.1713 119.326 45.1093 119.326 46.332C119.326 47.564 119.079 48.5113 118.584 49.174C118.099 49.8367 117.389 50.168 116.456 50.168C115.971 50.168 115.546 50.042 115.182 49.79C114.827 49.538 114.58 49.202 114.44 48.782H114.384V52.8H112.592V42.692ZM115.882 48.684C116.349 48.684 116.727 48.53 117.016 48.222C117.305 47.914 117.45 47.4987 117.45 46.976V45.716C117.45 45.1933 117.305 44.778 117.016 44.47C116.727 44.1527 116.349 43.994 115.882 43.994C115.453 43.994 115.093 44.1013 114.804 44.316C114.524 44.5307 114.384 44.8153 114.384 45.17V47.494C114.384 47.8767 114.524 48.1707 114.804 48.376C115.093 48.5813 115.453 48.684 115.882 48.684ZM124.03 50.168C123.489 50.168 123.008 50.0793 122.588 49.902C122.168 49.7247 121.814 49.468 121.524 49.132C121.244 48.796 121.03 48.3947 120.88 47.928C120.731 47.452 120.656 46.92 120.656 46.332C120.656 45.744 120.731 45.2167 120.88 44.75C121.03 44.2833 121.244 43.8867 121.524 43.56C121.814 43.224 122.168 42.9673 122.588 42.79C123.008 42.6127 123.489 42.524 124.03 42.524C124.768 42.524 125.374 42.6873 125.85 43.014C126.336 43.3407 126.686 43.7933 126.9 44.372L125.43 45.03C125.346 44.722 125.188 44.47 124.954 44.274C124.73 44.0687 124.422 43.966 124.03 43.966C123.526 43.966 123.148 44.1247 122.896 44.442C122.654 44.7593 122.532 45.1747 122.532 45.688V47.018C122.532 47.5313 122.654 47.9467 122.896 48.264C123.148 48.572 123.526 48.726 124.03 48.726C124.46 48.726 124.791 48.6187 125.024 48.404C125.258 48.18 125.44 47.9047 125.57 47.578L126.942 48.236C126.7 48.88 126.331 49.3653 125.836 49.692C125.342 50.0093 124.74 50.168 124.03 50.168ZM128.484 42.692H130.234V45.954L130.08 47.662H130.136L130.99 46.108L133.272 42.692H134.882V50H133.132V46.738L133.286 45.016H133.23L132.376 46.584L130.094 50H128.484V42.692ZM138.591 44.12H136.365V42.692H142.609V44.12H140.383V50H138.591V44.12ZM146.948 50.168C146.406 50.168 145.921 50.0793 145.492 49.902C145.072 49.7153 144.712 49.4587 144.414 49.132C144.124 48.796 143.9 48.3947 143.742 47.928C143.583 47.452 143.504 46.92 143.504 46.332C143.504 45.7533 143.578 45.2307 143.728 44.764C143.886 44.2973 144.11 43.9007 144.4 43.574C144.689 43.238 145.044 42.9813 145.464 42.804C145.884 42.6173 146.36 42.524 146.892 42.524C147.461 42.524 147.956 42.622 148.376 42.818C148.796 43.014 149.141 43.28 149.412 43.616C149.682 43.952 149.883 44.344 150.014 44.792C150.154 45.2307 150.224 45.702 150.224 46.206V46.794H145.366V46.976C145.366 47.508 145.515 47.9373 145.814 48.264C146.112 48.5813 146.556 48.74 147.144 48.74C147.592 48.74 147.956 48.6467 148.236 48.46C148.525 48.2733 148.782 48.0353 149.006 47.746L149.972 48.824C149.673 49.244 149.262 49.5753 148.74 49.818C148.226 50.0513 147.629 50.168 146.948 50.168ZM146.92 43.868C146.444 43.868 146.066 44.0267 145.786 44.344C145.506 44.6613 145.366 45.072 145.366 45.576V45.688H148.362V45.562C148.362 45.058 148.236 44.652 147.984 44.344C147.741 44.0267 147.386 43.868 146.92 43.868ZM153.335 44.12H151.109V42.692H157.353V44.12H155.127V50H153.335V44.12Z" fill="black"/>
</svg>
