<svg xmlns="http://www.w3.org/2000/svg" viewBox="0 0 826.85 595.28"><path d="M93.62,595.28h146V302.15h-146Z" transform="translate(0 0)" style="fill:#000"/><path d="M403.74,595.28H565.87L403.74,314.46Z" transform="translate(0 0)" style="fill:#000"/><path d="M401.84,293.14H585.25L418.61,4.51l-91.7,158.84Z" transform="translate(0 0)" style="fill:#000"/><path d="M252,293.14H391.43L321.7,172.37Z" transform="translate(0 0)" style="fill:#000"/><path d="M0,0,89.11,154.34,178.22,0Z" transform="translate(0 0)" style="fill:#000"/><path d="M93.62,293.14h146v-131L333.28,0H188.62l-95,164.57Z" transform="translate(0 0)" style="fill:#000"/><path d="M407,302.15l80.25,139a71,71,0,0,0-20.72-139Z" transform="translate(0 0)" style="fill:#000"/><path d="M248.68,302.15V595.28c80.58-.28,146.05-65.92,146.05-146.57S329.26,302.43,248.68,302.15Z" transform="translate(0 0)" style="fill:#000"/><path d="M680.28,302.15c-80.82,0-146.57,65.75-146.57,146.56s65.75,146.57,146.57,146.57,146.57-65.75,146.57-146.57S761.1,302.15,680.28,302.15Z" transform="translate(0 0)" style="fill:#000"/></svg>