<svg id="Layer_1" data-name="Layer 1" xmlns="http://www.w3.org/2000/svg" viewBox="0 0 205.99 115.06"><defs><style>.cls-1,.cls-5{fill:#222220;}.cls-2{fill:#dee0e1;}.cls-2,.cls-4,.cls-5{fill-rule:evenodd;}.cls-3{fill:#fff;}.cls-4{fill:#fce527;}</style></defs><title>9</title><path class="cls-1" d="M8.24,100.26H0V95.19H22.48v5.08H14.24v14h-6Z" transform="translate(0 0)"/><path class="cls-1" d="M45.52,95.19v19h-5.8V103.14l-10,11.08H24.6v-19h5.8v11.08l10-11.08Z" transform="translate(0 0)"/><path class="cls-1" d="M55.51,114.22h-5.8v-19h5.8v7h9.32v-7h5.8v19h-5.8v-7.08H55.51Z" transform="translate(0 0)"/><path class="cls-1" d="M74.81,114.22v-19h5.8v5.12h6a12.37,12.37,0,0,1,4.24.52,6.41,6.41,0,0,1,4.36,6.36,6.57,6.57,0,0,1-5,6.6,13.19,13.19,0,0,1-3.64.44Zm5.8-4.6h5a5.46,5.46,0,0,0,2.28-.28,2.39,2.39,0,0,0,1.48-2.24A2.14,2.14,0,0,0,87.81,105a6.76,6.76,0,0,0-2.24-.24h-5Z" transform="translate(0 0)"/><path class="cls-1" d="M103.64,114.22h-5.8v-19h5.8v7.16h1.6l7-7.16h7.28l-9.28,9.12,9.64,9.92h-7.72l-6.92-7.2h-1.6Z" transform="translate(0 0)"/><path class="cls-1" d="M144.39,104.74c0,5.68-4.68,10.08-12.44,10.08s-12.48-4.4-12.48-10.08S124.15,94.67,132,94.67,144.39,99.06,144.39,104.74Zm-6.08,0c0-3.12-2.52-5.4-6.36-5.4s-6.36,2.28-6.36,5.4,2.48,5.44,6.36,5.44S138.31,107.86,138.31,104.74Z" transform="translate(0 0)"/><path class="cls-1" d="M175.19,104.7c0,5.44-4.36,8.28-11.68,8.44v1.92h-5.8v-1.92c-7.28-.16-11.64-3-11.64-8.44s4.36-8.52,11.64-8.68V94.11h5.8V96C170.83,96.18,175.19,99.26,175.19,104.7Zm-17.48-4.56c-4,.16-5.76,2-5.76,4.56s1.76,4.2,5.76,4.36Zm11.56,4.56c0-2.56-1.72-4.4-5.76-4.56v8.92C167.55,108.9,169.27,107.26,169.27,104.7Z" transform="translate(0 0)"/><path class="cls-1" d="M206,104.7c0,5.44-4.36,8.28-11.68,8.44v1.92h-5.8v-1.92c-7.28-.16-11.64-3-11.64-8.44s4.36-8.52,11.64-8.68V94.11h5.8V96C201.63,96.18,206,99.26,206,104.7Zm-17.48-4.56c-4,.16-5.76,2-5.76,4.56s1.76,4.2,5.76,4.36Zm11.56,4.56c0-2.56-1.72-4.4-5.76-4.56v8.92C198.35,108.9,200.07,107.26,200.07,104.7Z" transform="translate(0 0)"/><path class="cls-2" d="M85.78,53.95c1-.83,1.91-1.24,1.87-3.24-1.57.8-6,.76-7.87-1.8-.53-.73,0-1.09.54-.52,1.27,1.44,3.62.79,4.48.37A3.39,3.39,0,0,0,84,47.34c.32-.32,1.23-.79,1.42-1.6A11.35,11.35,0,0,0,83,45.29a1.63,1.63,0,0,0,.46-1.78c-1.93.59-4.31-.21-4.85-.92s0-1.36.46-.9c1,1,5.69,2.17,7.45.41A2.62,2.62,0,0,1,85,41c1.63-.16,2.93-1.12,3-2.32a7.25,7.25,0,0,1-3.18-.5,2,2,0,0,0,1.52-1.45c-3-.18-3.22-2.39-3.23-2.76,1.94,1.12,5.36.62,4.47-2.13-1.61-.09-3.24-2.7,1.2-5.1,4-2.18,8.62-4.54,8.22-8.41-.27-2.48-4.35-4.17-4.87-5.43-1.7.81-2,1.75-1.28,3.33,0,0-3.8.38-4.1-2a3.58,3.58,0,0,1,1.32-2.78c-.43,0-3.29-.77-4.15,1.57-1.61-1.09-3-1.06-4.06.1,1.72,1,2.79,4.53,5.64,5.57-2,1.1-5.31.64-7.22-2.74-1.81,2.73-2.85,5.43,1,8.31-7.07,3.22-7,9.36-13.16,12.29.63,1.67,1.94,1.67,3.61,1.41-2.66,3.45-.39,7.07-4.6,8.54.39,1.41,1.18,2.53,2.74,2.12-.44.69-.73.67-1.42,1.43,2.3,1.45,5,.4,5.65-4.25.11-.83,1.25-.31.86.5-2.62,5.42,4,9.5,1.66,13.48,2.07-.09,3.64-.25,4.51-.95a4.47,4.47,0,0,1,.58,2.48,1.81,1.81,0,0,0,1.64-1.68c.75,2.18,3.42,4.51,7.71,4.51-2.27-3.23-.16-6.52-3.37-10.22m-4.23,4-.92,1.56a20,20,0,0,0-1.3-2.84c-.73,1.52-1.9,1.55-3,1.55C76.56,54.58,72,50.93,74,46.79a1.68,1.68,0,0,0-.72-2.28c-3.06-1.55-1.64,4.89-4.7,5.08a8.15,8.15,0,0,0,.89-2.39c-.65.17-2.21,1.16-2.91-.11a5,5,0,0,0,2.58-3.9A15,15,0,0,1,70,39.71a19.51,19.51,0,0,1,2.27-3.2c-.31,0-3.75.77-4.52.41,5.95-3.65,4.61-8.3,13.67-12.43-2.38-1.77-4.81-3.17-3.07-6.55,2.48,3,7.21,2,9.75.56-2.52-.5-5.77-2.72-6.54-5.19,1-.15,2.18.88,2.89,1.36.34-.91.48-2,1.58-2.2-1.47,3.16,1.44,4.8,4.22,4.81.43,0,2.23-.18,2.23-.18-.29-.59-1.45-2.2-.6-2.86.68.64,1.49,1.15,2.23,1.71,5.4,4.18-2.57,8.05-5.83,9.81-5.12,2.76-3.75,6.05-1.61,6.89,0,.37-.24.54-.59.65-1.49.5-2.9-.57-4.09-1.25.07,2.06-.07,4,2.21,5.18l-1.57.58c1.35,1,1.76,1.57,3.39,1.78a7.37,7.37,0,0,1-2.51.44,6,6,0,0,0,.8,1.86c-3.33.4-4.66-1.51-5.69-1.43-2.2.16-2.06,4.3,3.35,4.3l-.56.93a6.16,6.16,0,0,0,2,.71c-.36.29-.71.68-1,1l.86.74c-2.21.4-2.83-2-4.26-.82-2.18,1.73,2.63,5.38,7.25,4.84a15,15,0,0,1-1.94,1.61c3.76,3.55,1.91,6.9,3.45,9.35a6.81,6.81,0,0,1-6.21-5.17" transform="translate(0 0)"/><path class="cls-2" d="M75.62,45c.78.81,1.73.9,3.52.78-2-.24-3.08-.72-3.77-2a19.12,19.12,0,0,1-.2-2.17,15.05,15.05,0,0,1,2.06-7.25,5.07,5.07,0,0,0,4.34,4.81c-2.7-1.18-4.29-3.84-3.42-6.41.56-.9,1.2-1.83,1.91-2.77.36-.46.7-.89,1-1.3-.36,1.31,1.22,2.67,2.29,2.89-.58-.56-1.81-2.39,1-5.44a13,13,0,0,0-2.34,1.43c5.18-5.6,9.44-5.76,11.4-8.58-2.84,1.94-10.34,3-13.71,2.07,1.86,1.24,6.35,1.13,7.44.9-3.66,3.56-11.64,7.23-13,10.5a9.32,9.32,0,0,1,4.89-3.08,32.47,32.47,0,0,0-3.34,5.74c-2.12,4.61-5,4.67-5.15,8.48,1-3,2.94-3.7,4.3-5.63a19,19,0,0,0-.31,4.19,13.06,13.06,0,0,0,.94,4.59c-.14,1.88,0,5.09,2.19,7.22a9.73,9.73,0,0,1-1.65-6c1.69,3.26,6.5,7.76,8.83,10.78-2.33-3.89-8-8.43-9.26-13.68" transform="translate(0 0)"/><path class="cls-2" d="M128.91,29.34a9.34,9.34,0,0,1,4.89,3.08c-1.38-3.27-9.37-6.94-13-10.5,1.1.23,5.59.35,7.45-.9-3.37.92-10.88-.13-13.71-2.07,2,2.82,6.22,3,11.4,8.58a12.94,12.94,0,0,0-2.34-1.43c2.85,3.05,1.62,4.87,1,5.44,1.06-.23,2.65-1.58,2.29-2.89.34.41.69.85,1,1.3.71.94,1.34,1.87,1.9,2.77.86,2.57-.73,5.23-3.42,6.41a5.06,5.06,0,0,0,4.33-4.81,15,15,0,0,1,2.06,7.25,19.14,19.14,0,0,1-.2,2.17c-.69,1.31-1.8,1.79-3.76,2,1.79.11,2.73,0,3.52-.78-1.23,5.24-6.93,9.79-9.26,13.68,2.33-3,7.14-7.52,8.83-10.78a9.74,9.74,0,0,1-1.65,6c2.15-2.12,2.32-5.33,2.18-7.22a13.19,13.19,0,0,0,.94-4.59,18.58,18.58,0,0,0-.31-4.19c1.36,1.94,3.33,2.68,4.3,5.63-.18-3.81-3-3.87-5.15-8.48a32.16,32.16,0,0,0-3.34-5.74" transform="translate(0 0)"/><path class="cls-2" d="M138.15,38c1.67.26,3,.26,3.61-1.41-6.15-2.93-6.1-9.07-13.16-12.29,3.88-2.88,2.84-5.59,1-8.31-1.91,3.38-5.2,3.84-7.22,2.74,2.85-1,3.92-4.55,5.64-5.57C127,12,125.6,11.93,124,13c-.87-2.33-3.72-1.57-4.15-1.57a3.58,3.58,0,0,1,1.32,2.78c-.3,2.34-4.09,2-4.09,2,.76-1.58.43-2.52-1.28-3.33-.52,1.26-4.6,2.95-4.86,5.43-.41,3.88,4.18,6.23,8.21,8.41,4.44,2.4,2.81,5,1.2,5.1-.89,2.76,2.53,3.25,4.47,2.13,0,.37-.25,2.58-3.23,2.76a2,2,0,0,0,1.52,1.45,7.3,7.3,0,0,1-3.18.5c.11,1.2,1.41,2.16,3,2.32a2.61,2.61,0,0,1-1.51,1.13c1.76,1.75,6.49.6,7.45-.41.44-.46,1,.2.46.89s-2.92,1.52-4.85.93a1.64,1.64,0,0,0,.45,1.78,11.34,11.34,0,0,0-2.37.45c.18.81,1.1,1.28,1.42,1.6a3.4,3.4,0,0,0-.84,1.42c.86.42,3.22,1.07,4.48-.37.51-.57,1.07-.21.55.52-1.86,2.56-6.3,2.6-7.87,1.8,0,2,.82,2.41,1.87,3.25-3.21,3.7-1.09,7-3.36,10.22,4.28,0,7-2.33,7.71-4.51a1.81,1.81,0,0,0,1.64,1.68,4.54,4.54,0,0,1,.58-2.48c.87.7,2.45.86,4.51.95-2.34-4,4.29-8.05,1.66-13.48-.39-.81.75-1.33.86-.5.61,4.64,3.35,5.7,5.65,4.25-.69-.76-1-.74-1.42-1.43,1.55.41,2.34-.71,2.74-2.12-4.21-1.48-1.94-5.09-4.6-8.54m.35,9.23a7.86,7.86,0,0,0,.88,2.4c-3.06-.2-1.64-6.64-4.7-5.09a1.68,1.68,0,0,0-.72,2.28c2,4.14-2.56,7.79-2.3,11.42-1.13,0-2.3,0-3-1.55a20.12,20.12,0,0,0-1.3,2.84l-.92-1.56a6.82,6.82,0,0,1-6.21,5.17c1.54-2.45-.31-5.79,3.45-9.35a14.79,14.79,0,0,1-1.94-1.61c4.62.55,9.43-3.11,7.24-4.84-1.43-1.13-2.06,1.22-4.26.82l.86-.74c-.3-.3-.65-.69-1-1a6.12,6.12,0,0,0,2-.71l-.56-.93c5.41,0,5.54-4.14,3.35-4.3-1-.08-2.37,1.82-5.69,1.43a6.25,6.25,0,0,0,.8-1.86,7.38,7.38,0,0,1-2.51-.44c1.63-.21,2-.76,3.39-1.78l-1.57-.58c2.28-1.14,2.14-3.12,2.2-5.18-1.19.69-2.6,1.75-4.08,1.25-.35-.12-.59-.28-.59-.65,2.14-.84,3.5-4.13-1.61-6.89C116.4,24,108.42,20.14,113.83,16c.74-.56,1.54-1.07,2.22-1.71.85.65-.31,2.26-.6,2.86,0,0,1.8.18,2.22.18,2.78,0,5.7-1.66,4.23-4.81,1.11.23,1.24,1.29,1.57,2.2.71-.48,1.94-1.51,2.89-1.36-.77,2.47-4,4.69-6.54,5.19,2.55,1.39,7.27,2.42,9.75-.56,1.74,3.37-.68,4.78-3.07,6.55,9.07,4.14,7.73,8.78,13.68,12.43-.77.36-4.22-.36-4.52-.41a19.23,19.23,0,0,1,2.28,3.2,15.11,15.11,0,0,1,.88,3.48,5.05,5.05,0,0,0,2.58,3.9c-.7,1.27-2.25.28-2.9.11" transform="translate(0 0)"/><path class="cls-2" d="M95.32,57.37l1.29-1.1-.2-.4c-.14-.28-.07-.3.08-.41l.68-.51a.54.54,0,0,1,.52-.07l2,.48H97.58a.83.83,0,0,0-.83.59l-.15.31-.56,1.14a1.29,1.29,0,0,0,.21,1.51l.39.46L95.86,61h.67l.55-1.12a3.64,3.64,0,0,0,1-1.55c-.23-.19-.4-.32-.27-.59l.25-.53c.08-.18.11-.25.35-.2l2.15.47a.75.75,0,0,0,.95-.24c.3-.45.34-.4,1-.33l1.1.12a5.78,5.78,0,0,0,3.58-.7,14.08,14.08,0,0,0,.8,1.19c.07.13,0,.32-.14.56L106.66,61h1.9l1.08-2.69a1.54,1.54,0,0,1,.36-.56L109.38,61h1.84l.49-3.22c.11-.71,0-.94-.3-1.24-.77-.65-.75-2-1-2.84a.74.74,0,0,1,.46-.09c.4,0,.7,1.07,1.18,1.72.94,1.33,2.23,2.79,3.71.73a4.79,4.79,0,0,0-.48-.65l-.41-.48c-.24-.27-1.38-1.57-1.86-2a2.78,2.78,0,0,0-3.41-.4c-1.5-.78-3.08,0-3.46,0l-2.58-.16a.51.51,0,0,1-.42-.25l.48-.16c-.45-1.87-1.58-3.44-3.55-3.7,0,0-.12-.59-.41-.71l-.59.7a2,2,0,0,0-.5.14l-2.52-.94,1.89,1.91S97,50.72,96.69,51a.51.51,0,0,0,0,.71l.37.48c.19.25.4.24.7.08l.41-.21c.18-.15.79.15,1-.09A7.64,7.64,0,0,0,99,53.46l-1.7-.2a.86.86,0,0,0-.77.18l-1.45,1.11a1.26,1.26,0,0,0-.33,1.6Zm14,.32-1.15,2.83h-.71l1.15-2.74c.12-.35-.11-.52-.39-.91a8.33,8.33,0,0,0,1.25.6,1.4,1.4,0,0,0-.14.22M98.25,51.55l-.33.17c-.23.13-.34.19-.54-.06l-.14-.18a.37.37,0,0,1,.05-.46l1.41-1.65-1.3-1.07,1.66.61.61-.76c.18.15.12.59.12.59a3.36,3.36,0,0,1,2.69,3.39,1.61,1.61,0,0,0,1,.69l2.87.17c.47,0,1.66-.91,3.19,0a3.06,3.06,0,0,1,1.22-.47,3.72,3.72,0,0,1,3.08,1.78c.54.68,1.28,1.73,1.28,1.73-.32.38-.63.5-.89.41a1.32,1.32,0,0,1-.65-1,3.13,3.13,0,0,0-1-1.31,6,6,0,0,1,.44,1.5c-1.12-1.11-1.33-2.47-2.12-2.65a1.15,1.15,0,0,0-1.13.5c.4.92.38,2,.78,2.69.31.53.37.58.51.7.33.24.14.66.09,1l-.43,2.66H110l.47-2.61c.14-.79-2.09-.79-3.23-2.31-1,1.14-3.7.85-4.88.67a1,1,0,0,0-1.2.43c-.15.27-.41.19-.57.15l-2.15-.46a.52.52,0,0,0-.71.33l-.43.89a.4.4,0,0,0,.08.53l.21.22a1.77,1.77,0,0,1-.51.75l-.47-.53a.94.94,0,0,1-.06-1l.7-1.45a.56.56,0,0,1,.52-.33l2.66,0-.82-1.33c-.61-1,.4-2.77.25-3.61-.08,1.12-1.43.61-1.65.76M95.35,54.9l1.26-1a.78.78,0,0,1,.63-.25l1.78.23a2.9,2.9,0,0,0,.38.85l-1.89-.4a.65.65,0,0,0-.6.16l-.9.68a.45.45,0,0,0-.08.58l.15.31-.63.47-.24-.45c-.24-.48-.26-.92.14-1.23" transform="translate(0 0)"/><path class="cls-2" d="M100.84,20.72a13.23,13.23,0,0,0,1.91,1v-.81l-2.69-1s0,.33.78.86" transform="translate(0 0)"/><path class="cls-2" d="M102.75,19.74v-.81L99.7,17.84a7.48,7.48,0,0,0,1.14.92,13,13,0,0,0,1.91,1" transform="translate(0 0)"/><path class="cls-2" d="M102.75,17.9v-.82l-3.34-1.23s.65.53,1.43,1.06a13.23,13.23,0,0,0,1.91,1" transform="translate(0 0)"/><path class="cls-2" d="M112.14,29h3.42a1.59,1.59,0,0,0-1.67-1,1.92,1.92,0,0,0-1.75,1" transform="translate(0 0)"/><path class="cls-2" d="M108.56,15.86l-3.34,1.23v.82a12.86,12.86,0,0,0,1.91-1c.78-.53,1.43-1.06,1.43-1.06" transform="translate(0 0)"/><path class="cls-2" d="M107.91,19.87l-2.69,1v.81a13.24,13.24,0,0,0,1.91-1c.78-.53.78-.86.78-.86" transform="translate(0 0)"/><path class="cls-2" d="M108.28,17.84l-3,1.09v.81a12.81,12.81,0,0,0,1.91-1,7.41,7.41,0,0,0,1.14-.92" transform="translate(0 0)"/><path class="cls-2" d="M94.08,28a1.58,1.58,0,0,0-1.67,1h3.42a1.93,1.93,0,0,0-1.75-1" transform="translate(0 0)"/><path class="cls-2" d="M110.77,13.67c0-1.92-3.23-3.64-6.79-3.64s-6.79,1.72-6.79,3.64l.08.47,1.42,8.16L92,26.23A4,4,0,0,0,90.23,29h1.23a2.73,2.73,0,0,1,2.84-2.38c1.55.08,2.47,1,3.39,2.38l.24.36.34.53h-9.9a10.69,10.69,0,0,1,1.42,4.69V55.14c0,5.3,4.07,7.82,8.48,7.82,3.4,0,3.86-.15,5.74,1.72,1.87-1.88,2.33-1.72,5.74-1.72,4.4,0,8.47-2.52,8.47-7.82V34.55a10.67,10.67,0,0,1,1.41-4.69h-9.91l.34-.53.24-.36c.91-1.35,1.83-2.29,3.39-2.38A2.73,2.73,0,0,1,116.51,29h1.23A4,4,0,0,0,116,26.23l-6.73-3.92,1.42-8.16Zm-12.2.94,5,1.71v7.86l-3.7-1.95Zm1.23,16.68a4.93,4.93,0,0,0,3,1.84,2.58,2.58,0,0,0,.87,1.42,2.53,2.53,0,0,0,1.9,3.06,2,2,0,0,0,1.35,1.51l-1.05,1.21a1.53,1.53,0,0,1-1.36.56l-4.69-.53c.2-.52-.34-1.13-1.82-.87l1.84-5.15-1.13-2.4-2.13,1.82-.16,5.41-.9-.45c-1.19-.51-1.54,1.64-.41,1.65h.45a.51.51,0,0,0,.21.54.37.37,0,0,0,0,.63.44.44,0,0,0-.09.71,1,1,0,0,0,.55,1.48c.67.18,1.09-.55,1.23-1l7.3,2.26a2.49,2.49,0,0,0,2.63-.62l1.9-1.67a2,2,0,0,0,1,2.4,9.89,9.89,0,0,0-.08,1.42h-19v-12a9.49,9.49,0,0,0-.71-3.27Zm7.85,4.56a2.47,2.47,0,0,0,.11,2.45l-.31.31c-1.37-.17-1.91-2.21-1.91-2.21a3.45,3.45,0,0,0,0,.54,1.91,1.91,0,0,1-1.26-2,3.23,3.23,0,0,0,1,.35l.09-.6a2.09,2.09,0,0,1-1.73-1.47l-.13,0,.51,0A5.71,5.71,0,0,0,105.6,33a2.64,2.64,0,0,0,1.81,1.05,2.9,2.9,0,0,0,.24,1.78m2,5.4a2,2,0,0,0-.32.63l-.76.7a3.68,3.68,0,0,0-1.28-3l.81-.8.16.16a1.88,1.88,0,0,0,1.39,2.28M106,40.89l.63-.61a3.43,3.43,0,0,1,1.22,3l-.68.63a2.38,2.38,0,0,1-.43.33,3.74,3.74,0,0,0-.73-3.34m-1.35.52h0a1.31,1.31,0,0,0,.69-.1,3.43,3.43,0,0,1,.28,3.22,3.41,3.41,0,0,1-.94-.14l-.24-.07a4.13,4.13,0,0,0,.19-2.91m-1.59-.2.89.11a4.34,4.34,0,0,1-.42,2.73l-1-.3a4.23,4.23,0,0,0,.57-2.55M101.21,41l1.07.13a4.25,4.25,0,0,1-.5,2.44l-1.09-.32a3.53,3.53,0,0,0,.52-2.25m-4.35-.29a.49.49,0,0,1-.7-.51,1.69,1.69,0,0,1,1.7.06c.26.17.48.64.84.93a8,8,0,0,1-.33,1.37,1,1,0,0,1-.68-1.68.67.67,0,0,0-.84-.18m-.7,2a2.36,2.36,0,0,0,.68.16.39.39,0,0,1-.46.35.37.37,0,0,1-.22-.51m-1-2.87a.28.28,0,0,1,.14-.53c.3,0,.7.35,1.1.52a3.84,3.84,0,0,1-1.24,0m1,2.09c.21.21.86.13.86.13l0,.13c-.28.38-1.07.21-.89-.26m.87-.43c-.47.19-.94-.07-.79-.37.21.2.82.1.82.1Zm.68-5.4-.89,3.24.3-5.23,1.38-1.18.7,1.54-1.77,5.08.47-3.42c0-.24-.15-.27-.19,0M97.81,40a5.63,5.63,0,0,1,1.27.06c.21.09.07.43-.2.4A5.64,5.64,0,0,1,97.81,40m1.55.79,1.08.13A3.57,3.57,0,0,1,100,43l-1-.3a6.69,6.69,0,0,0,.42-2m17.41,14.38a5.93,5.93,0,0,1-3.08,5.46l.69-1.4h-.67l-.88,1.8a8.72,8.72,0,0,1-3.11.54c-3.51,0-4.44.14-5.74,1.44-1.31-1.29-2.23-1.44-5.74-1.44a8.84,8.84,0,0,1-3.1-.53h0l.88-1.8H95.4l-.78,1.58c-.18-.09-.36-.18-.54-.28l.64-1.29h-.66l-.48,1a6,6,0,0,1-2.39-5V47.27h25.58Zm.71-23.85a9.29,9.29,0,0,0-.72,3.27v12h-1.4a8.16,8.16,0,0,1-1.17-2.66,3.33,3.33,0,0,0,.42,2.66h-1.8a10.53,10.53,0,0,1-.83-2.73c-.54.61-.2,2.27.14,2.73h-1.19a6,6,0,0,1,.17-1.78c-.62-.12-1.29-.45-1.29-1.14a.93.93,0,0,0,.88.29l.51-.4c-1.69.05-1.76-1.79-.43-2.66-1.33,0-2.33-.75-1.84-2.17a2,2,0,0,1-.58-2.8,2.39,2.39,0,0,1-.27-2.37,2.64,2.64,0,0,1-1.85-.73l-.11,0a4.69,4.69,0,0,0,2-1.54Zm-5.09-5.78c-1.39.24-2.58,1.94-3.56,3.47l-.11.18h-1v.18c-.11,1.18-1.23,2.78-3.7,2.78a4.05,4.05,0,0,1-2.59-.83,3,3,0,0,1-1-1.42,2.48,2.48,0,0,1-.11-.53v-.18h-1L99.13,29c-1-1.53-2.17-3.22-3.55-3.47l3.77-2.19L104,25.84l4.63-2.52Zm-4.33-3.28-3.7,1.95V16.32l5-1.71ZM104,15.45,98.5,13.29c.46-1.1,2.62-2,5.49-2s5,.94,5.49,2Z" transform="translate(0 0)"/><path class="cls-2" d="M116.19,39v-.6c-1.84,0-2.27-2.22-2.27-2.22A2.22,2.22,0,0,0,116.19,39" transform="translate(0 0)"/><path class="cls-2" d="M113.86,42.74l-.19-.57c-1.57.4-2.38-2.09-2.38-2.09a2.12,2.12,0,0,0,2.57,2.66" transform="translate(0 0)"/><path class="cls-2" d="M115,40.42c-1.88.3-2.65-1.89-2.65-1.89a2.13,2.13,0,0,0,1.81,2.53,1.65,1.65,0,0,0,2.42,1.8l-.18-.54a1.22,1.22,0,0,1-1.39-1.9" transform="translate(0 0)"/><path class="cls-2" d="M113.83,34.17l0-.6c-2.48-.51-2.27-2.22-2.27-2.22a2.22,2.22,0,0,0,2.26,2.82" transform="translate(0 0)"/><polygon class="cls-2" points="98.09 59.2 97.2 61 97.87 61 98.76 59.2 98.09 59.2"/><polygon class="cls-2" points="99.43 59.2 98.54 61 99.22 61 100.1 59.2 99.43 59.2"/><polygon class="cls-2" points="104.81 59.2 103.92 61 104.59 61 105.48 59.2 104.81 59.2"/><polygon class="cls-2" points="106.16 59.2 105.27 61 105.94 61 106.82 59.2 106.16 59.2"/><polygon class="cls-2" points="103.47 59.2 102.58 61 103.25 61 104.14 59.2 103.47 59.2"/><polygon class="cls-2" points="111.32 61 111.99 61 112.88 59.2 112.21 59.2 111.32 61"/><polygon class="cls-2" points="100.78 59.2 99.89 61 100.56 61 101.45 59.2 100.78 59.2"/><polygon class="cls-2" points="102.12 59.2 101.23 61 101.91 61 102.79 59.2 102.12 59.2"/><path class="cls-2" d="M99.08,49.5a.28.28,0,1,0,.23.28.26.26,0,0,0-.23-.28" transform="translate(0 0)"/><path class="cls-2" d="M104,8.81a10.11,10.11,0,0,1,6.18,1.9,12.34,12.34,0,0,1,1.6-4.11l-2.22.25-1.16-2.47-2.23,1.16L104,3.39l-2.16,2.15L99.59,4.38,98.42,6.85,96.21,6.6a12.24,12.24,0,0,1,1.6,4.11A10.11,10.11,0,0,1,104,8.81m-5.18-1,1.06-2.24,2,1L104,4.49l2.17,2.14,2-1,1,2.24,1.3-.2a10.19,10.19,0,0,0-.82,1.94,11.61,11.61,0,0,0-11.32,0,10.1,10.1,0,0,0-.82-1.94Z" transform="translate(0 0)"/><path class="cls-2" d="M106.26,4.39a.59.59,0,0,0,.64-.54,3.67,3.67,0,0,0-.44-1.18s-.71.76-.73,1.08a.59.59,0,0,0,.53.63" transform="translate(0 0)"/><path class="cls-2" d="M109.89,5.71a.59.59,0,0,0,.79-.25,3.62,3.62,0,0,0,.05-1.25s-.94.42-1.09.71a.6.6,0,0,0,.25.79" transform="translate(0 0)"/><path class="cls-2" d="M101.72,4.39a.59.59,0,0,0,.54-.63c0-.33-.73-1.08-.73-1.08a3.7,3.7,0,0,0-.44,1.18.59.59,0,0,0,.63.54" transform="translate(0 0)"/><path class="cls-2" d="M98.08,5.71a.59.59,0,0,0,.24-.79c-.15-.29-1.09-.71-1.09-.71a3.61,3.61,0,0,0,.06,1.25.58.58,0,0,0,.79.25" transform="translate(0 0)"/><path class="cls-2" d="M141.72,25.71a3.15,3.15,0,0,0,1.67-1.7c-2-.29-7.21-2.48-11.52-.69,1.61-1.53,3.06-1.73,3.2-3.93a1.56,1.56,0,0,0,2.44-.4c-.44-1.31-1.57-.25-1.72-.61s1.41.16,1.77-1.55c-1.27-.44-1.65.6-1.88.36s.81-.67.06-2c-1.32.77-.63,1.65-.91,1.74s-.07-.93-1.54-.88c-.14,1.57,1.38,1.62,1.12,1.87s-.69-.9-1.8-.29a1.63,1.63,0,0,0,2.11,1.67c-.17,2.41-2.38,2-4,4.68,3.49,1.79,5.06,4.91,7.21,7.06a12.34,12.34,0,0,0,1.92-2.74,2.82,2.82,0,0,0,4,0c-.8-.82-.83-1.44-2.05-2.56m-3.38.44a3.93,3.93,0,0,1-.42,3.8,15.91,15.91,0,0,0-4.51-5.76c-.32-.2.17-.57,1.06-.68,2.69-.51,5.83.63,7.33,1a3.86,3.86,0,0,1-2,.84,12.12,12.12,0,0,1,2.44,2.54c-1.06.26-1.65-.4-3.92-1.77" transform="translate(0 0)"/><path class="cls-2" d="M115.94,66.35V63.41A27,27,0,0,1,107,65.64l-.17,1.05c.32,0,.72.08,1.25.12a30.42,30.42,0,0,1-8.28,0c.53,0,.93-.07,1.25-.12l-.17-1.05A26.92,26.92,0,0,1,92,63.41v2.94L89,67.62a37.39,37.39,0,0,0,8,2.94l-.36,1.23a27.44,27.44,0,0,0,14.88,0l-.36-1.23a37.4,37.4,0,0,0,8-2.94ZM90.6,67.69l2.08-.84v-2.4A35,35,0,0,0,98.29,66l-1.18,3.85a34.44,34.44,0,0,1-6.51-2.18M104,72.12a28.14,28.14,0,0,1-6.61-.83l1.25-4a32.46,32.46,0,0,0,10.71,0l1.25,4a28.26,28.26,0,0,1-6.61.83m6.88-2.25L109.68,66a35,35,0,0,0,5.61-1.57v2.4l2.08.84a34,34,0,0,1-6.51,2.18" transform="translate(0 0)"/><path class="cls-2" d="M68.16,28.26A12.4,12.4,0,0,0,70.08,31c2.15-2.15,3.73-5.27,7.21-7.06-1.65-2.71-3.86-2.26-4-4.68a1.64,1.64,0,0,0,2.1-1.67c-1.11-.61-1.5.6-1.8.29s1.27-.3,1.12-1.87c-1.46,0-1.19,1-1.54.88s.41-1-.91-1.74c-.75,1.38.27,1.81.06,2s-.61-.8-1.88-.36c.34,1.7,2,1,1.76,1.55s-1.28-.7-1.72.61a1.55,1.55,0,0,0,2.43.4c.14,2.21,1.59,2.39,3.2,3.93-4.31-1.79-9.55.41-11.52.69a3.14,3.14,0,0,0,1.67,1.69c-1.22,1.13-1.25,1.75-2,2.56,0,0,1.63,1.79,4,0m-2.44-.34a11.84,11.84,0,0,1,2.45-2.54,3.9,3.9,0,0,1-2-.85c1.5-.4,4.65-1.53,7.33-1,.88.12,1.38.48,1.06.68a15.9,15.9,0,0,0-4.52,5.76,3.94,3.94,0,0,1-.42-3.8c-2.27,1.37-2.86,2-3.92,1.77" transform="translate(0 0)"/><path class="cls-2" d="M102.1,26.62v1.3a1.63,1.63,0,0,1,1.31-.43v1.87a2.79,2.79,0,0,1-.35,1.32h1.87a2.8,2.8,0,0,1-.36-1.32V27.48a1.62,1.62,0,0,1,1.31.43v-1.3H102.1Z" transform="translate(0 0)"/><path class="cls-3" d="M144.89,27.17a4.23,4.23,0,0,1-.55-.74l-.32-.48a5.12,5.12,0,0,0,.81-1.29l.84-1.9-2.05-.3c-.35-.05-.91-.2-1.56-.37a30.7,30.7,0,0,0-4.64-.94,3.14,3.14,0,0,0,1.47-1.38l.34-.61s-.09-.85-.42-1.12a3.8,3.8,0,0,0,.29-.87l.28-1.36-1.31-.45a3.63,3.63,0,0,0-.61-.15,4.15,4.15,0,0,0-.33-.79L136.33,13l-1.41.82a3.75,3.75,0,0,0-.88.7,3.64,3.64,0,0,0-.67-.06,4.15,4.15,0,0,0-1.69.23l-1.13-1.17-1.34-1.43A4.13,4.13,0,0,0,124.51,11a4.45,4.45,0,0,0-3.3-1.21,9.55,9.55,0,0,0-1.3.1,7.87,7.87,0,0,0-3.44,1.58l-1.5-.72a5.36,5.36,0,0,1-2.73,2.09,3.76,3.76,0,0,0-.61-1.29l.1-.56a10.74,10.74,0,0,1,1.37-3.52l1.79-2.79L112.35,5a7.2,7.2,0,0,0,0-.9l-.23-2.17-2,.9c-.22.1-.41.2-.58.29l-.39-.84-.91.47a7.26,7.26,0,0,0-.37-.77L106.79,0l-1.49,1.61c-.15.17-.28.32-.4.46l-.91-.9-.91.91c-.11-.15-.24-.3-.39-.46L101.19,0l-1.06,1.94a7.68,7.68,0,0,0-.37.77l-.91-.47-.4.84-.58-.29-2-.9-.22,2.18a7,7,0,0,0,0,.9l-2.55-.29,1.8,2.79A10.64,10.64,0,0,1,96.25,11l.09.56a3.77,3.77,0,0,0-.61,1.3A7.75,7.75,0,0,1,93,10.75l-1.54.73a7.77,7.77,0,0,0-4.73-1.7A4.28,4.28,0,0,0,83.46,11a4.13,4.13,0,0,0-4.68,1.08S78,13,77.44,13.5a7,7,0,0,1-1.29,1,5.59,5.59,0,0,0-2.21,0A3.78,3.78,0,0,0,73,13.8L71.64,13l-.78,1.44a4,4,0,0,0-.33.78,3.67,3.67,0,0,0-.61.15l-1.3.45.27,1.35a3.58,3.58,0,0,0,.29.88,3.26,3.26,0,0,0-.2.46l-.22.66.34.61a3.12,3.12,0,0,0,1.47,1.39,30.64,30.64,0,0,0-4.64.94c-.65.17-1.21.32-1.56.37l-2.06.3.47,1.06.38.84A5.27,5.27,0,0,0,64,26a14.32,14.32,0,0,1-.87,1.22l-1,1.06,1,1.1a4.34,4.34,0,0,0,3.06,1.31,4.4,4.4,0,0,0,1.48-.26,7.39,7.39,0,0,0,1.58,1.9,10.63,10.63,0,0,1-3.63,2.86l-1.31.62.56,1.49a3.66,3.66,0,0,0,2.45,2.27A15.56,15.56,0,0,0,66.69,42c-.3,1.77-.42,2.5-2,3l-1.4.49.4,1.42A5.23,5.23,0,0,0,65,49.39l-.93,1a10.31,10.31,0,0,0,4.36,1.85,3.53,3.53,0,0,0,2.7-.93,20.63,20.63,0,0,0,1.33,3.3c1,2.05,1.5,3.27.84,4.38l-1.47,2.5,2.9-.12A17.9,17.9,0,0,0,78.25,61a1.33,1.33,0,0,1,0,.16L78,63.32l2.54-.54a3.94,3.94,0,0,0,.75-.31,10.11,10.11,0,0,0,7.86,3.28h.21l-4.15,1.7,3,1.57a36.72,36.72,0,0,0,6.71,2.64l-.35,1.21,1.52.44a28.93,28.93,0,0,0,15.77,0l1.51-.44L113,71.66A36.74,36.74,0,0,0,119.75,69l3-1.57-4.15-1.7h.21a10.1,10.1,0,0,0,7.85-3.28,4.17,4.17,0,0,0,.75.31l2.54.54-.23-2.15c0-.05,0-.1,0-.16a18,18,0,0,0,3.46.38l2.9.12L134.62,59c-.66-1.11-.13-2.33.84-4.38a20.39,20.39,0,0,0,1.33-3.3,4.47,4.47,0,0,0,1.76.81,4.07,4.07,0,0,0,.91.15,4.32,4.32,0,0,0,2.81-.88l1.6-1-.94-1A5.24,5.24,0,0,0,144.26,47l.4-1.43-1.4-.49c-1.56-.55-1.68-1.28-2-3a15.44,15.44,0,0,0-.56-2.46,3.66,3.66,0,0,0,2.45-2.27l.56-1.49-1.31-.62a10.63,10.63,0,0,1-3.63-2.86,7.46,7.46,0,0,0,1.59-1.9,4.4,4.4,0,0,0,1.47.26h0a4.33,4.33,0,0,0,3.06-1.31l1-1.1Z" transform="translate(0 0)"/><path class="cls-4" d="M91.2,46.57v-12a9.43,9.43,0,0,0-.71-3.26h9.31a5.44,5.44,0,0,0,8.36,0h9.32a9.26,9.26,0,0,0-.71,3.26v12ZM104,63c-1.3-1.3-2.23-1.44-5.74-1.44-4.19,0-7-2.46-7-6.39V47.27h25.57v7.87c0,3.93-2.84,6.39-7,6.39-3.51,0-4.44.14-5.74,1.44" transform="translate(0 0)"/><path class="cls-3" d="M92.68,64.46v2.4l-2.08.84a34.25,34.25,0,0,0,6.51,2.18L98.29,66a35.4,35.4,0,0,1-5.61-1.57" transform="translate(0 0)"/><path class="cls-3" d="M104,67.7a28,28,0,0,1-5.36-.45l-1.25,4a26.61,26.61,0,0,0,13.21,0l-1.25-4a28,28,0,0,1-5.35.45" transform="translate(0 0)"/><path class="cls-3" d="M115.29,64.46A35.37,35.37,0,0,1,109.68,66l1.18,3.84a34,34,0,0,0,6.5-2.18l-2.08-.84Z" transform="translate(0 0)"/><path class="cls-3" d="M88.33,25.79C91.59,24,99.55,20.16,94.15,16c-.74-.57-1.55-1.08-2.23-1.71-.84.65.32,2.26.61,2.85,0,0-1.8.18-2.23.18-2.78,0-5.69-1.66-4.21-4.81-1.11.23-1.24,1.29-1.58,2.2-.71-.48-1.94-1.51-2.89-1.36.77,2.47,4,4.69,6.54,5.19-2.55,1.39-7.27,2.42-9.75-.57-1.74,3.37.69,4.78,3.06,6.55-9.06,4.13-7.73,8.77-13.67,12.43.77.36,4.21-.36,4.52-.41A19.7,19.7,0,0,0,70,39.72a15.17,15.17,0,0,0-.88,3.48,5,5,0,0,1-2.58,3.9c.7,1.27,2.25.28,2.9.11a8.16,8.16,0,0,1-.89,2.4c3.05-.2,1.64-6.64,4.7-5.09A1.69,1.69,0,0,1,74,46.8c-2,4.14,2.55,7.79,2.31,11.42,1.12,0,2.28,0,3-1.55a20.45,20.45,0,0,1,1.3,2.84l.91-1.55a6.8,6.8,0,0,0,6.21,5.16c-1.55-2.45.31-5.79-3.45-9.34a14.74,14.74,0,0,0,1.94-1.6c-4.61.54-9.43-3.11-7.24-4.84,1.43-1.13,2.05,1.22,4.26.82l-.86-.74c.3-.3.65-.69,1-1a6.12,6.12,0,0,1-2-.71l.56-.92c-5.4,0-5.54-4.14-3.35-4.3,1-.08,2.36,1.82,5.69,1.43a6,6,0,0,1-.8-1.86,7.29,7.29,0,0,0,2.51-.44c-1.62-.21-2-.75-3.39-1.78l1.57-.58C82,36.13,82.11,34.14,82,32.08c1.19.69,2.59,1.75,4.09,1.25.36-.12.58-.28.59-.65-2.14-.84-3.5-4.13,1.61-6.89m-3.9.32c-2.85,3.05-1.62,4.88-1,5.44-1.06-.23-2.65-1.58-2.29-2.89-.34.41-.68.84-1,1.3-.71.94-1.34,1.87-1.9,2.77-.86,2.57.72,5.23,3.42,6.41a5.06,5.06,0,0,1-4.34-4.81,15,15,0,0,0-2.05,7.25,19.3,19.3,0,0,0,.2,2.17c.69,1.31,1.8,1.79,3.77,2-1.79.11-2.74,0-3.52-.79,1.22,5.24,6.92,9.79,9.25,13.68-2.32-3-7.14-7.52-8.83-10.78a9.72,9.72,0,0,0,1.65,6c-2.16-2.12-2.32-5.33-2.18-7.21a13.06,13.06,0,0,1-.94-4.59,19,19,0,0,1,.31-4.19c-1.36,1.94-3.33,2.68-4.3,5.63.19-3.8,3-3.86,5.15-8.48a32.5,32.5,0,0,1,3.34-5.74,9.33,9.33,0,0,0-4.88,3.07c1.38-3.27,9.36-6.94,13-10.49-1.1.23-5.58.35-7.44-.9,3.37.91,10.88-.13,13.71-2.07-2,2.81-6.21,3-11.4,8.57a13.32,13.32,0,0,1,2.35-1.43" transform="translate(0 0)"/><path class="cls-3" d="M138.81,43.2a15.15,15.15,0,0,0-.88-3.48,19.09,19.09,0,0,0-2.28-3.2c.31,0,3.75.77,4.52.41-5.95-3.65-4.61-8.29-13.67-12.43,2.38-1.77,4.81-3.18,3.07-6.55-2.48,3-7.21,2-9.75.57,2.52-.5,5.76-2.73,6.54-5.19-1-.15-2.18.88-2.89,1.36-.34-.91-.47-2-1.57-2.2,1.48,3.16-1.44,4.8-4.22,4.81-.43,0-2.22-.18-2.22-.18.29-.59,1.45-2.2.6-2.85-.68.64-1.48,1.15-2.22,1.71-5.4,4.18,2.57,8.05,5.83,9.81,5.11,2.76,3.75,6,1.61,6.89,0,.37.24.53.59.65,1.49.5,2.89-.57,4.08-1.25-.07,2.06.07,4-2.2,5.18l1.57.58c-1.35,1-1.76,1.57-3.38,1.78a7.32,7.32,0,0,0,2.51.44,6.27,6.27,0,0,1-.8,1.86c3.33.4,4.67-1.5,5.69-1.43,2.19.16,2.06,4.3-3.35,4.3l.56.92a6.09,6.09,0,0,1-2,.71c.36.29.71.68,1,1l-.86.74c2.2.4,2.83-2,4.26-.82,2.18,1.73-2.63,5.38-7.24,4.84a14.92,14.92,0,0,0,1.94,1.6c-3.76,3.55-1.91,6.9-3.45,9.35a6.83,6.83,0,0,0,6.21-5.17l.91,1.55a21,21,0,0,1,1.3-2.84c.73,1.52,1.9,1.55,3,1.55-.25-3.63,4.3-7.28,2.3-11.42a1.69,1.69,0,0,1,.72-2.28c3.06-1.55,1.64,4.89,4.7,5.09a7.91,7.91,0,0,1-.89-2.4c.65.17,2.2,1.16,2.9-.11a5.05,5.05,0,0,1-2.58-3.9m-5.72-5.26a18.64,18.64,0,0,1,.31,4.19,13.19,13.19,0,0,1-.94,4.59c.14,1.88,0,5.09-2.18,7.21a9.76,9.76,0,0,0,1.65-6c-1.69,3.26-6.5,7.76-8.83,10.78,2.33-3.89,8-8.43,9.25-13.68-.79.82-1.73.9-3.52.79,2-.24,3.07-.72,3.76-2a18.91,18.91,0,0,0,.2-2.17,15,15,0,0,0-2.06-7.25,5.06,5.06,0,0,1-4.34,4.81c2.69-1.18,4.28-3.84,3.42-6.41-.56-.9-1.19-1.82-1.9-2.77-.35-.45-.7-.89-1-1.3.36,1.31-1.22,2.66-2.29,2.89.58-.56,1.81-2.39-1-5.44a13.15,13.15,0,0,1,2.35,1.43c-5.18-5.6-9.44-5.75-11.4-8.57,2.84,1.94,10.34,3,13.71,2.07-1.86,1.24-6.35,1.13-7.44.9,3.65,3.55,11.65,7.23,13,10.49a9.33,9.33,0,0,0-4.88-3.07,32.29,32.29,0,0,1,3.34,5.74c2.13,4.61,5,4.67,5.16,8.48-1-3-2.94-3.7-4.3-5.63" transform="translate(0 0)"/><path class="cls-3" d="M108.17,31.3a5.15,5.15,0,0,1-4.18,2,6.14,6.14,0,0,1-1.19-.12,2.49,2.49,0,0,0,.87,1.41,2.53,2.53,0,0,0,1.9,3.06,2,2,0,0,0,1.35,1.51l-1,1.21a1.56,1.56,0,0,1-1.36.56l-4.69-.53c.2-.52-.34-1.12-1.82-.86l1.84-5.16L98.72,32l-2.13,1.82-.16,5.41-.92-.45c-1.18-.51-1.53,1.64-.4,1.65h.45a.51.51,0,0,0,.22.55.36.36,0,0,0,0,.63.45.45,0,0,0-.09.71,1,1,0,0,0,.55,1.48c.68.18,1.1-.55,1.24-1l7.3,2.26a2.49,2.49,0,0,0,2.63-.62l1.9-1.67a2,2,0,0,0,1,2.4,8.49,8.49,0,0,0-.08,1.41h6.57v-12a9.27,9.27,0,0,1,.71-3.27h-9.32Z" transform="translate(0 0)"/><path class="cls-3" d="M97.24,51.5l.14.18c.2.24.31.19.54.06l.33-.18c.21-.16,1.57.36,1.64-.77.15.84-.85,2.62-.25,3.61l.81,1.34-2.66,0a.56.56,0,0,0-.52.34l-.7,1.44a1,1,0,0,0,.06,1l.47.53a1.82,1.82,0,0,0,.51-.76l-.21-.21a.4.4,0,0,1-.08-.53l.43-.89a.52.52,0,0,1,.71-.34l2.15.46c.16,0,.41.12.57-.15a1,1,0,0,1,1.2-.43c1.18.18,3.91.46,4.88-.68,1.14,1.52,3.37,1.52,3.23,2.31L110,60.52h.71l.43-2.66c0-.31.24-.74-.1-1-.14-.11-.2-.16-.51-.7-.41-.71-.38-1.77-.78-2.69a1.16,1.16,0,0,1,1.12-.51c.79.19,1,1.55,2.12,2.66a5.89,5.89,0,0,0-.45-1.5,3.11,3.11,0,0,1,1,1.3,1.34,1.34,0,0,0,.65,1c.26.1.58,0,.89-.41,0,0-.74-1-1.28-1.73a3.69,3.69,0,0,0-3.07-1.78,3,3,0,0,0-1.22.46c-1.53-.86-2.72,0-3.19,0l-2.86-.17a1.63,1.63,0,0,1-1-.69,3.36,3.36,0,0,0-2.69-3.39s.06-.44-.11-.59l-.6.75-1.66-.61,1.3,1.07L97.29,51a.38.38,0,0,0-.05.46" transform="translate(0 0)"/><path class="cls-3" d="M95.36,54.9c-.4.31-.38.74-.14,1.23l.24.45.63-.48-.14-.31a.45.45,0,0,1,.08-.58l.9-.68a.63.63,0,0,1,.6-.16l1.89.4a2.89,2.89,0,0,1-.38-.84l-1.78-.23a.79.79,0,0,0-.63.24Z" transform="translate(0 0)"/><path class="cls-3" d="M107.47,60.52h.71l1.15-2.83a2,2,0,0,1,.14-.22,8.29,8.29,0,0,1-1.25-.6c.29.39.51.55.39.91Z" transform="translate(0 0)"/><path class="cls-3" d="M108.07,22.25l1.32-7.62-5,1.71v7.86Zm-2.85-5.14,3.34-1.23s-.65.53-1.42,1.06a13,13,0,0,1-1.91,1Zm0,1.84,3-1.09a7.67,7.67,0,0,1-1.14.92,13.37,13.37,0,0,1-1.91,1Zm0,2,2.68-1s0,.33-.77.85a13.07,13.07,0,0,1-1.91,1Z" transform="translate(0 0)"/><path class="cls-3" d="M99.13,29l.11.18h1v.18a2.37,2.37,0,0,0,.11.53,3.06,3.06,0,0,0,1,1.42,4,4,0,0,0,2.59.83c2.47,0,3.59-1.6,3.7-2.78v-.18h1l.11-.18c1-1.53,2.17-3.22,3.55-3.47l-3.78-2.19L104,25.85l-4.63-2.52-3.77,2.19c1.38.24,2.57,1.94,3.55,3.47" transform="translate(0 0)"/><path class="cls-3" d="M103.6,24.19V16.33l-5-1.71,1.32,7.62Zm-.84-2.47a13.2,13.2,0,0,1-1.91-1c-.78-.53-.78-.86-.78-.86l2.69,1Zm0-4.62v.81a13,13,0,0,1-1.91-1c-.78-.53-1.43-1.06-1.43-1.06Zm0,1.84v.81a13.15,13.15,0,0,1-1.91-1,7.53,7.53,0,0,1-1.14-.92Z" transform="translate(0 0)"/><path class="cls-3" d="M104,11.26c-2.87,0-5,.94-5.49,2L104,15.47l5.48-2.17c-.47-1.1-2.61-2-5.48-2" transform="translate(0 0)"/><path class="cls-3" d="M104,8.12a11.78,11.78,0,0,1,5.66,1.47,9.84,9.84,0,0,1,.82-1.94l-1.3.2-1-2.24-2,1L104,4.51l-2.16,2.14-2-1L98.81,7.85l-1.3-.2a10,10,0,0,1,.82,1.94A11.78,11.78,0,0,1,104,8.12" transform="translate(0 0)"/><path class="cls-3" d="M139.8,25.39a3.9,3.9,0,0,0,2-.85c-1.5-.4-4.64-1.53-7.32-1-.89.12-1.38.48-1.06.68A15.88,15.88,0,0,1,137.9,30a3.94,3.94,0,0,0,.42-3.8c2.27,1.37,2.86,2,3.91,1.77a11.87,11.87,0,0,0-2.44-2.54" transform="translate(0 0)"/><path class="cls-3" d="M70.07,30a15.87,15.87,0,0,1,4.52-5.76c.32-.2-.18-.56-1.06-.68-2.68-.51-5.83.63-7.33,1a3.92,3.92,0,0,0,2,.85,11.82,11.82,0,0,0-2.44,2.54c1.06.26,1.65-.4,3.91-1.77a4,4,0,0,0,.42,3.8" transform="translate(0 0)"/><path class="cls-5" d="M85.78,54c1-.83,1.91-1.24,1.87-3.24-1.57.8-6,.76-7.87-1.8-.53-.73,0-1.09.54-.52,1.27,1.44,3.63.79,4.48.37A3.37,3.37,0,0,0,84,47.35c.32-.32,1.23-.79,1.42-1.6A11.31,11.31,0,0,0,83,45.3a1.63,1.63,0,0,0,.45-1.78c-1.93.59-4.3-.21-4.85-.92s0-1.36.46-.89c1,1,5.69,2.16,7.45.41A2.61,2.61,0,0,1,85,41c1.63-.16,2.93-1.12,3-2.32a7.26,7.26,0,0,1-3.18-.5,2,2,0,0,0,1.52-1.45c-3-.18-3.21-2.39-3.23-2.76,1.94,1.12,5.36.62,4.47-2.13-1.61-.09-3.24-2.7,1.2-5.09,4-2.18,8.62-4.54,8.21-8.41-.26-2.48-4.35-4.17-4.86-5.43-1.7.81-2,1.75-1.28,3.33,0,0-3.8.38-4.1-2a3.58,3.58,0,0,1,1.32-2.78c-.43,0-3.29-.77-4.15,1.56-1.6-1.09-3-1.05-4.05.1,1.72,1,2.79,4.53,5.64,5.57-2,1.1-5.3.64-7.22-2.74-1.81,2.73-2.85,5.43,1,8.31-7.07,3.22-7,9.36-13.16,12.29.62,1.67,1.94,1.67,3.61,1.41-2.66,3.45-.39,7.07-4.6,8.54.4,1.41,1.19,2.53,2.74,2.12-.44.69-.73.67-1.42,1.43,2.3,1.45,5,.4,5.64-4.25.11-.83,1.25-.31.86.5-2.62,5.42,4,9.5,1.66,13.47,2.07-.09,3.64-.25,4.5-.94a4.44,4.44,0,0,1,.58,2.47,1.81,1.81,0,0,0,1.64-1.68c.75,2.18,3.42,4.52,7.7,4.52C86.87,60.94,89,57.65,85.78,54m-4.23,4-.91,1.55a20.45,20.45,0,0,0-1.3-2.84c-.73,1.52-1.9,1.55-3,1.55C76.57,54.59,72,50.94,74,46.8a1.69,1.69,0,0,0-.72-2.28c-3.06-1.55-1.64,4.89-4.7,5.09a8.16,8.16,0,0,0,.89-2.4c-.65.17-2.2,1.16-2.9-.11a5,5,0,0,0,2.58-3.9A15.07,15.07,0,0,1,70,39.72a19.63,19.63,0,0,1,2.27-3.2c-.31,0-3.74.77-4.52.41,5.95-3.65,4.61-8.29,13.67-12.43-2.38-1.77-4.81-3.18-3.06-6.55,2.48,3,7.2,2,9.75.57-2.52-.5-5.76-2.73-6.53-5.19.95-.15,2.18.88,2.89,1.36.34-.91.48-2,1.58-2.2-1.47,3.15,1.44,4.8,4.21,4.81.43,0,2.23-.18,2.23-.18-.29-.59-1.45-2.2-.61-2.85.68.64,1.49,1.15,2.23,1.71,5.4,4.18-2.57,8.05-5.83,9.81-5.11,2.76-3.74,6.05-1.61,6.89,0,.37-.24.53-.59.65-1.49.5-2.9-.57-4.09-1.25.07,2.06-.07,4,2.21,5.18l-1.57.57c1.35,1,1.76,1.57,3.39,1.78a7.32,7.32,0,0,1-2.51.44,6,6,0,0,0,.8,1.86c-3.33.4-4.66-1.5-5.69-1.43-2.2.16-2.06,4.3,3.35,4.3l-.56.92a6.11,6.11,0,0,0,2,.71c-.36.29-.7.68-1,1l.86.74c-2.21.4-2.83-2-4.26-.82-2.18,1.73,2.63,5.38,7.24,4.84a14.87,14.87,0,0,1-1.94,1.6c3.76,3.55,1.9,6.9,3.45,9.35a6.81,6.81,0,0,1-6.2-5.17" transform="translate(0 0)"/><path class="cls-5" d="M75.63,45c.78.82,1.73.9,3.52.79-2-.24-3.08-.72-3.77-2a19.64,19.64,0,0,1-.19-2.17,15,15,0,0,1,2.05-7.25,5.07,5.07,0,0,0,4.34,4.81c-2.7-1.18-4.28-3.84-3.42-6.41.56-.9,1.2-1.82,1.9-2.77.36-.45.7-.89,1-1.3-.36,1.31,1.22,2.66,2.28,2.89-.57-.56-1.81-2.39,1-5.44a13.36,13.36,0,0,0-2.34,1.43c5.18-5.6,9.44-5.75,11.4-8.57C90.65,20.91,83.15,22,79.77,21c1.86,1.24,6.35,1.13,7.44.9-3.66,3.55-11.64,7.23-13,10.49a9.3,9.3,0,0,1,4.89-3.07,32.48,32.48,0,0,0-3.34,5.74c-2.12,4.61-5,4.67-5.15,8.48,1-2.95,2.93-3.7,4.3-5.63a19.09,19.09,0,0,0-.31,4.19,13.09,13.09,0,0,0,.94,4.59c-.14,1.88,0,5.09,2.18,7.21a9.72,9.72,0,0,1-1.65-6c1.69,3.26,6.5,7.76,8.83,10.78-2.33-3.89-8-8.43-9.25-13.68" transform="translate(0 0)"/><path class="cls-5" d="M128.9,29.36a9.32,9.32,0,0,1,4.88,3.07c-1.38-3.27-9.37-6.94-13-10.49,1.1.23,5.58.35,7.44-.9-3.37.92-10.87-.13-13.71-2.07,2,2.82,6.22,3,11.4,8.57a13.15,13.15,0,0,0-2.35-1.43c2.85,3.05,1.62,4.88,1,5.44,1.06-.23,2.65-1.58,2.29-2.89.34.41.69.84,1,1.3.71.94,1.34,1.87,1.9,2.77.86,2.57-.73,5.23-3.42,6.41a5.06,5.06,0,0,0,4.33-4.81,15,15,0,0,1,2.06,7.25,19.27,19.27,0,0,1-.2,2.17c-.69,1.31-1.8,1.79-3.77,2,1.8.11,2.74,0,3.52-.79-1.22,5.24-6.93,9.79-9.25,13.68,2.33-3,7.14-7.52,8.83-10.78a9.74,9.74,0,0,1-1.65,6c2.16-2.12,2.32-5.33,2.18-7.22a13.18,13.18,0,0,0,.94-4.58,18.64,18.64,0,0,0-.31-4.19c1.36,1.94,3.33,2.68,4.3,5.63-.19-3.8-3-3.86-5.16-8.48a32.24,32.24,0,0,0-3.34-5.74" transform="translate(0 0)"/><path class="cls-5" d="M138.14,38c1.67.26,3,.26,3.61-1.41-6.15-2.93-6.09-9.07-13.16-12.29,3.88-2.88,2.84-5.58,1-8.31-1.91,3.38-5.2,3.84-7.22,2.74,2.84-1,3.92-4.55,5.64-5.57C127,12,125.59,12,124,13c-.87-2.33-3.72-1.56-4.15-1.56a3.57,3.57,0,0,1,1.32,2.78c-.3,2.34-4.09,2-4.09,2,.77-1.58.43-2.52-1.28-3.33-.52,1.26-4.6,2.95-4.86,5.43-.41,3.88,4.18,6.23,8.21,8.41,4.44,2.4,2.81,5,1.2,5.09-.89,2.76,2.52,3.25,4.47,2.13,0,.37-.26,2.58-3.23,2.76a2,2,0,0,0,1.52,1.44,7.27,7.27,0,0,1-3.18.5c.11,1.2,1.41,2.16,3,2.32a2.63,2.63,0,0,1-1.5,1.13c1.76,1.75,6.49.6,7.45-.41.44-.46,1,.19.45.89s-2.92,1.52-4.85.93A1.64,1.64,0,0,0,125,45.3a11.24,11.24,0,0,0-2.37.45c.18.81,1.1,1.28,1.42,1.6a3.39,3.39,0,0,0-.84,1.42c.86.42,3.22,1.07,4.48-.37.51-.57,1.07-.21.55.52-1.86,2.56-6.3,2.6-7.87,1.8,0,2,.82,2.41,1.87,3.24-3.21,3.7-1.09,7-3.36,10.22,4.28,0,7-2.33,7.7-4.52a1.81,1.81,0,0,0,1.64,1.68,4.52,4.52,0,0,1,.58-2.47c.87.7,2.45.86,4.51.94-2.34-4,4.29-8.05,1.66-13.47-.39-.81.75-1.33.86-.5.62,4.65,3.34,5.7,5.65,4.25-.69-.76-1-.74-1.42-1.43,1.55.41,2.34-.71,2.74-2.12-4.2-1.48-1.94-5.09-4.6-8.54m.35,9.23a7.93,7.93,0,0,0,.89,2.4c-3.06-.2-1.64-6.64-4.7-5.09A1.69,1.69,0,0,0,134,46.8c2,4.14-2.56,7.79-2.3,11.42-1.13,0-2.3,0-3-1.55a20.87,20.87,0,0,0-1.3,2.84l-.91-1.55a6.82,6.82,0,0,1-6.2,5.17c1.54-2.45-.31-5.79,3.45-9.35a14.73,14.73,0,0,1-1.94-1.6c4.62.54,9.43-3.11,7.24-4.84-1.43-1.13-2.06,1.22-4.26.82l.86-.74c-.3-.3-.65-.69-1-1a6.09,6.09,0,0,0,2-.71l-.56-.92c5.4,0,5.54-4.14,3.35-4.3-1-.08-2.36,1.82-5.69,1.43a6.25,6.25,0,0,0,.8-1.86,7.34,7.34,0,0,1-2.51-.44c1.63-.21,2-.75,3.39-1.78l-1.57-.58c2.28-1.14,2.13-3.12,2.2-5.18-1.19.69-2.6,1.75-4.08,1.25-.36-.12-.59-.28-.59-.65,2.14-.84,3.5-4.13-1.61-6.89-3.26-1.76-11.23-5.63-5.83-9.81.74-.57,1.54-1.08,2.22-1.71.85.65-.31,2.26-.6,2.85,0,0,1.8.18,2.22.18,2.78,0,5.7-1.66,4.22-4.81,1.11.23,1.24,1.29,1.57,2.2.71-.48,1.94-1.51,2.89-1.36-.77,2.47-4,4.69-6.54,5.19,2.55,1.39,7.27,2.42,9.75-.57,1.74,3.37-.69,4.78-3.07,6.55,9.07,4.13,7.73,8.77,13.67,12.43-.77.36-4.21-.36-4.52-.41a19.09,19.09,0,0,1,2.28,3.2,15.15,15.15,0,0,1,.88,3.48,5.06,5.06,0,0,0,2.58,3.9c-.7,1.27-2.25.28-2.9.11" transform="translate(0 0)"/><path class="cls-5" d="M95.32,57.37l1.29-1.1-.2-.39c-.14-.28-.07-.3.08-.41l.68-.51a.54.54,0,0,1,.52-.07l2,.48H97.58a.83.83,0,0,0-.83.6l-.15.3-.56,1.14a1.29,1.29,0,0,0,.21,1.51l.39.47L95.86,61h.67l.55-1.12a3.69,3.69,0,0,0,1-1.55c-.23-.19-.4-.33-.27-.59l.25-.53c.08-.18.11-.25.35-.2l2.15.46a.74.74,0,0,0,.95-.24c.29-.45.33-.4,1-.33l1.1.12a5.78,5.78,0,0,0,3.58-.7c.2.47.61.82.8,1.18.07.13,0,.32-.14.56L106.66,61h1.9l1.07-2.69a1.61,1.61,0,0,1,.36-.56L109.38,61h1.84l.49-3.22c.11-.71,0-.95-.3-1.24-.77-.65-.75-2-1-2.84a.73.73,0,0,1,.46-.09c.4,0,.7,1.06,1.18,1.72.94,1.33,2.23,2.79,3.71.73a4.63,4.63,0,0,0-.48-.65l-.41-.48c-.24-.27-1.38-1.57-1.86-2a2.77,2.77,0,0,0-3.4-.4c-1.5-.79-3.08,0-3.45,0l-2.58-.16a.51.51,0,0,1-.42-.25l.48-.16c-.45-1.87-1.58-3.43-3.55-3.7,0,0-.12-.59-.42-.7l-.59.69a1.94,1.94,0,0,0-.5.14l-2.52-.94L98,49.34S97,50.73,96.69,51a.5.5,0,0,0,0,.71l.37.48c.19.25.4.24.7.08l.41-.22c.18-.15.79.15,1-.09A7.42,7.42,0,0,0,99,53.46l-1.7-.2a.85.85,0,0,0-.76.18l-1.45,1.11a1.26,1.26,0,0,0-.33,1.6Zm14,.32-1.15,2.83h-.71l1.15-2.74c.12-.35-.11-.52-.39-.91a8.16,8.16,0,0,0,1.25.6,2,2,0,0,0-.14.22M98.25,51.55l-.33.17c-.23.13-.34.19-.54-.06l-.14-.18a.38.38,0,0,1,.05-.46l1.41-1.64-1.3-1.07,1.65.61.61-.76c.18.15.12.59.12.59a3.36,3.36,0,0,1,2.69,3.39,1.62,1.62,0,0,0,1,.68l2.87.17c.48,0,1.66-.91,3.19,0a3.12,3.12,0,0,1,1.22-.47,3.71,3.71,0,0,1,3.07,1.78c.54.68,1.28,1.73,1.28,1.73-.32.38-.63.5-.89.41a1.34,1.34,0,0,1-.65-1,3.12,3.12,0,0,0-1-1.3,6,6,0,0,1,.45,1.5c-1.12-1.11-1.33-2.46-2.12-2.65a1.15,1.15,0,0,0-1.13.5c.4.92.37,2,.78,2.69.31.53.37.58.51.7.33.24.14.66.09,1l-.43,2.66H110l.47-2.61c.14-.79-2.08-.79-3.23-2.31-1,1.14-3.7.85-4.88.68a1,1,0,0,0-1.2.43c-.15.26-.41.18-.57.15l-2.15-.46a.52.52,0,0,0-.71.33l-.43.89a.41.41,0,0,0,.08.53l.2.22a1.79,1.79,0,0,1-.51.75l-.47-.53a.93.93,0,0,1-.06-1l.7-1.45a.56.56,0,0,1,.52-.34l2.66,0-.81-1.33c-.61-1,.4-2.77.25-3.61-.08,1.12-1.44.61-1.65.76M95.36,54.9l1.26-1a.79.79,0,0,1,.63-.25l1.78.23a2.89,2.89,0,0,0,.38.84l-1.89-.4a.65.65,0,0,0-.6.16l-.9.68a.44.44,0,0,0-.08.58l.14.31-.63.47-.24-.45c-.24-.48-.26-.92.14-1.23" transform="translate(0 0)"/><path class="cls-5" d="M100.84,20.74a13.2,13.2,0,0,0,1.91,1v-.81l-2.69-1s0,.33.78.86" transform="translate(0 0)"/><path class="cls-5" d="M102.75,19.76v-.81l-3-1.09a7.42,7.42,0,0,0,1.14.92,13.31,13.31,0,0,0,1.91,1" transform="translate(0 0)"/><path class="cls-5" d="M102.75,17.92V17.1l-3.34-1.23s.65.53,1.43,1.06a13,13,0,0,0,1.91,1" transform="translate(0 0)"/><path class="cls-5" d="M112.13,29h3.42a1.58,1.58,0,0,0-1.67-1,1.93,1.93,0,0,0-1.75,1" transform="translate(0 0)"/><path class="cls-5" d="M108.56,15.87l-3.34,1.23v.81a13,13,0,0,0,1.91-1c.78-.53,1.42-1.06,1.42-1.06" transform="translate(0 0)"/><path class="cls-5" d="M107.91,19.88l-2.69,1v.81a13.25,13.25,0,0,0,1.91-1c.78-.53.78-.86.78-.86" transform="translate(0 0)"/><path class="cls-5" d="M108.28,17.86l-3,1.09v.81a13.12,13.12,0,0,0,1.91-1,7.57,7.57,0,0,0,1.14-.92" transform="translate(0 0)"/><path class="cls-5" d="M94.09,28a1.58,1.58,0,0,0-1.67,1h3.42a1.93,1.93,0,0,0-1.75-1" transform="translate(0 0)"/><path class="cls-5" d="M110.77,13.69c0-1.92-3.23-3.64-6.79-3.64s-6.79,1.72-6.79,3.64l.07.47,1.42,8.16L92,26.24A4,4,0,0,0,90.23,29h1.23a2.73,2.73,0,0,1,2.84-2.38c1.55.08,2.47,1,3.39,2.38l.23.36.34.53h-9.9a10.69,10.69,0,0,1,1.42,4.69V55.14c0,5.29,4.07,7.82,8.47,7.82,3.4,0,3.86-.15,5.74,1.72,1.87-1.88,2.33-1.72,5.74-1.72,4.4,0,8.47-2.52,8.47-7.82V34.56a10.68,10.68,0,0,1,1.42-4.69h-9.9l.34-.53.24-.36c.91-1.35,1.83-2.3,3.39-2.38A2.73,2.73,0,0,1,116.51,29h1.22A4,4,0,0,0,116,26.24l-6.73-3.92,1.42-8.16Zm-12.2.94,5,1.71v7.86l-3.7-1.95ZM99.81,31.3a4.92,4.92,0,0,0,3,1.83,2.57,2.57,0,0,0,.87,1.42,2.53,2.53,0,0,0,1.9,3.06,2,2,0,0,0,1.34,1.51l-1,1.21a1.55,1.55,0,0,1-1.36.56l-4.69-.53c.2-.52-.34-1.12-1.82-.86l1.84-5.16L98.73,32l-2.13,1.82-.16,5.41-.91-.45c-1.19-.51-1.54,1.64-.41,1.65h.45a.51.51,0,0,0,.21.54.37.37,0,0,0,0,.63.44.44,0,0,0-.09.71,1,1,0,0,0,.55,1.48c.67.18,1.09-.55,1.23-1l7.3,2.26a2.48,2.48,0,0,0,2.63-.62l1.9-1.67a2,2,0,0,0,1,2.4,10.1,10.1,0,0,0-.08,1.42h-19v-12a9.5,9.5,0,0,0-.71-3.27Zm7.85,4.55a2.46,2.46,0,0,0,.11,2.45l-.31.31c-1.37-.17-1.91-2.21-1.91-2.21a3.32,3.32,0,0,0,0,.55,1.91,1.91,0,0,1-1.26-2,3.16,3.16,0,0,0,1,.35l.09-.6a2.08,2.08,0,0,1-1.73-1.47l-.13,0,.51,0A5.69,5.69,0,0,0,105.6,33a2.64,2.64,0,0,0,1.81,1,2.92,2.92,0,0,0,.25,1.78m2,5.4a2.09,2.09,0,0,0-.32.63l-.76.7a3.69,3.69,0,0,0-1.28-3l.81-.8.16.16a1.87,1.87,0,0,0,1.39,2.28M106,40.9l.63-.62a3.44,3.44,0,0,1,1.22,3l-.69.63a2.44,2.44,0,0,1-.44.33A3.73,3.73,0,0,0,106,40.9m-1.35.52h0a1.32,1.32,0,0,0,.69-.1,3.42,3.42,0,0,1,.28,3.21,3.25,3.25,0,0,1-.94-.14l-.24-.07a4.11,4.11,0,0,0,.19-2.91m-1.59-.2.89.11a4.33,4.33,0,0,1-.42,2.73l-1-.3a4.25,4.25,0,0,0,.56-2.54M101.21,41l1.07.13a4.25,4.25,0,0,1-.5,2.44l-1.09-.32a3.52,3.52,0,0,0,.52-2.25m-4.35-.29a.49.49,0,0,1-.7-.51,1.69,1.69,0,0,1,1.7.06c.26.17.48.64.84.93a7.63,7.63,0,0,1-.33,1.37,1,1,0,0,1-.68-1.68.67.67,0,0,0-.84-.18m-.7,2a2.47,2.47,0,0,0,.68.15.39.39,0,0,1-.46.35.36.36,0,0,1-.22-.5m-1-2.88a.28.28,0,0,1,.14-.53c.3,0,.71.35,1.1.52a3.77,3.77,0,0,1-1.24,0m1,2.09c.22.21.87.13.87.13l0,.13c-.28.38-1.07.21-.89-.26m.88-.43c-.46.18-.94-.07-.79-.37.22.2.82.1.82.1Zm.68-5.4-.89,3.24.3-5.23,1.38-1.18.7,1.54L97.47,39.5l.47-3.42c0-.24-.15-.26-.19,0M97.81,40a5.73,5.73,0,0,1,1.27.06c.21.09.07.43-.2.39A5.61,5.61,0,0,1,97.81,40m1.55.79,1.08.13a3.57,3.57,0,0,1-.46,2.15l-1-.3a6.7,6.7,0,0,0,.43-2m17.41,14.38a5.93,5.93,0,0,1-3.08,5.46l.69-1.4h-.67l-.88,1.8a8.71,8.71,0,0,1-3.11.54c-3.51,0-4.44.14-5.74,1.44-1.3-1.29-2.23-1.44-5.74-1.44A8.74,8.74,0,0,1,95.16,61h0l.89-1.8H95.4l-.78,1.58c-.19-.09-.36-.18-.54-.28l.64-1.29h-.66l-.47,1a6,6,0,0,1-2.39-5V47.27h25.57Zm.71-23.84a9.24,9.24,0,0,0-.71,3.27v12h-1.4a8.14,8.14,0,0,1-1.17-2.66,3.33,3.33,0,0,0,.42,2.66h-1.8a10.48,10.48,0,0,1-.83-2.73c-.54.61-.2,2.27.14,2.73h-1.19a6.09,6.09,0,0,1,.17-1.78c-.63-.12-1.29-.44-1.29-1.14a.94.94,0,0,0,.88.28l.51-.4c-1.68.05-1.76-1.79-.43-2.66-1.34,0-2.33-.75-1.85-2.17a2,2,0,0,1-.58-2.8,2.39,2.39,0,0,1-.27-2.37,2.64,2.64,0,0,1-1.85-.73l-.11,0a4.68,4.68,0,0,0,2-1.54Zm-5.09-5.78c-1.39.24-2.58,1.94-3.55,3.47l-.11.18h-1v.18c-.11,1.18-1.23,2.78-3.7,2.78a4.06,4.06,0,0,1-2.59-.83,3.05,3.05,0,0,1-1-1.42,2.45,2.45,0,0,1-.11-.53v-.18h-1L99.13,29c-1-1.53-2.17-3.22-3.55-3.47l3.77-2.19L104,25.85l4.63-2.52Zm-4.32-3.28-3.7,1.95V16.33l5-1.71ZM104,15.47,98.5,13.3c.47-1.1,2.62-2,5.49-2s5,.94,5.48,2Z" transform="translate(0 0)"/><path class="cls-5" d="M116.19,39.05v-.6c-1.85,0-2.27-2.22-2.27-2.22a2.21,2.21,0,0,0,2.26,2.82" transform="translate(0 0)"/><path class="cls-5" d="M113.86,42.74l-.18-.57c-1.57.4-2.39-2.09-2.39-2.09a2.13,2.13,0,0,0,2.57,2.66" transform="translate(0 0)"/><path class="cls-5" d="M115,40.43c-1.88.3-2.65-1.89-2.65-1.89a2.13,2.13,0,0,0,1.81,2.53,1.65,1.65,0,0,0,2.41,1.8l-.18-.54A1.22,1.22,0,0,1,115,40.43" transform="translate(0 0)"/><path class="cls-5" d="M113.83,34.18l0-.6c-2.48-.51-2.28-2.22-2.28-2.22a2.22,2.22,0,0,0,2.26,2.82" transform="translate(0 0)"/><polygon class="cls-5" points="98.09 59.2 97.2 61.01 97.87 61.01 98.76 59.2 98.09 59.2"/><polygon class="cls-5" points="99.43 59.2 98.55 61.01 99.22 61.01 100.1 59.2 99.43 59.2"/><polygon class="cls-5" points="104.81 59.2 103.92 61.01 104.59 61.01 105.48 59.2 104.81 59.2"/><polygon class="cls-5" points="106.16 59.2 105.27 61.01 105.94 61.01 106.82 59.2 106.16 59.2"/><polygon class="cls-5" points="103.47 59.2 102.58 61.01 103.25 61.01 104.14 59.2 103.47 59.2"/><polygon class="cls-5" points="111.32 61.01 111.99 61.01 112.88 59.2 112.21 59.2 111.32 61.01"/><polygon class="cls-5" points="100.78 59.2 99.89 61.01 100.56 61.01 101.45 59.2 100.78 59.2"/><polygon class="cls-5" points="102.12 59.2 101.23 61.01 101.91 61.01 102.79 59.2 102.12 59.2"/><path class="cls-5" d="M99.08,49.51a.27.27,0,1,0,.23.27.26.26,0,0,0-.23-.27" transform="translate(0 0)"/><path class="cls-5" d="M104,8.83a10.11,10.11,0,0,1,6.18,1.89,12.32,12.32,0,0,1,1.6-4.11l-2.22.25-1.16-2.47-2.23,1.16L104,3.41l-2.16,2.15L99.59,4.39,98.43,6.86l-2.22-.25a12.22,12.22,0,0,1,1.6,4.11A10.12,10.12,0,0,1,104,8.83m-5.18-1L99.86,5.6l2,1L104,4.51l2.17,2.14,2-1,1,2.24,1.3-.2a9.89,9.89,0,0,0-.82,1.94,11.61,11.61,0,0,0-11.32,0,10.08,10.08,0,0,0-.82-1.94Z" transform="translate(0 0)"/><path class="cls-5" d="M106.26,4.41a.59.59,0,0,0,.64-.53,3.66,3.66,0,0,0-.44-1.18s-.71.76-.73,1.08a.59.59,0,0,0,.53.63" transform="translate(0 0)"/><path class="cls-5" d="M109.89,5.73a.58.58,0,0,0,.79-.25,3.59,3.59,0,0,0,.05-1.26s-.94.42-1.09.71a.59.59,0,0,0,.25.79" transform="translate(0 0)"/><path class="cls-5" d="M101.72,4.41a.59.59,0,0,0,.54-.63c0-.32-.73-1.08-.73-1.08a3.7,3.7,0,0,0-.44,1.18.59.59,0,0,0,.63.53" transform="translate(0 0)"/><path class="cls-5" d="M98.08,5.73a.59.59,0,0,0,.24-.79c-.15-.29-1.09-.71-1.09-.71a3.57,3.57,0,0,0,.06,1.26.58.58,0,0,0,.79.25" transform="translate(0 0)"/><path class="cls-5" d="M141.71,25.72a3.14,3.14,0,0,0,1.67-1.7c-2-.28-7.21-2.48-11.52-.69,1.61-1.53,3.06-1.73,3.2-3.93a1.56,1.56,0,0,0,2.43-.4c-.44-1.31-1.56-.25-1.72-.61s1.41.15,1.76-1.55c-1.27-.44-1.65.6-1.88.36s.81-.67.06-2c-1.32.77-.63,1.65-.91,1.74s-.07-.93-1.53-.88c-.14,1.57,1.37,1.62,1.12,1.87s-.7-.9-1.8-.29a1.63,1.63,0,0,0,2.11,1.67c-.17,2.41-2.38,2-4,4.68,3.49,1.79,5.06,4.91,7.21,7.06a12.41,12.41,0,0,0,1.92-2.74,2.82,2.82,0,0,0,4,0c-.8-.82-.83-1.44-2.05-2.56m-3.38.44a3.93,3.93,0,0,1-.42,3.8,15.88,15.88,0,0,0-4.51-5.76c-.31-.2.17-.56,1.06-.68,2.68-.51,5.82.63,7.32,1a3.87,3.87,0,0,1-2,.84,12,12,0,0,1,2.44,2.54c-1.05.26-1.65-.41-3.92-1.77" transform="translate(0 0)"/><path class="cls-5" d="M115.94,66.36V63.41A26.88,26.88,0,0,1,107,65.64l-.17,1.05c.32,0,.72.08,1.25.12a30.71,30.71,0,0,1-8.28,0c.53,0,.93-.07,1.25-.12l-.17-1.05A26.82,26.82,0,0,1,92,63.41v2.94L89,67.62a37.34,37.34,0,0,0,8,2.94l-.36,1.23a27.31,27.31,0,0,0,14.88,0l-.36-1.23a37.45,37.45,0,0,0,8-2.94ZM90.6,67.69l2.08-.84v-2.4A35.29,35.29,0,0,0,98.29,66l-1.18,3.84a34.21,34.21,0,0,1-6.51-2.18M104,72.12a28.12,28.12,0,0,1-6.6-.83l1.25-4a32.33,32.33,0,0,0,10.71,0l1.25,4a28.25,28.25,0,0,1-6.61.83m6.87-2.25L109.68,66a35.29,35.29,0,0,0,5.61-1.57v2.4l2.08.84a33.91,33.91,0,0,1-6.51,2.18" transform="translate(0 0)"/><path class="cls-5" d="M68.17,28.27A12.5,12.5,0,0,0,70.09,31c2.15-2.15,3.73-5.27,7.21-7.06-1.65-2.71-3.86-2.26-4-4.68a1.63,1.63,0,0,0,2.1-1.67c-1.11-.61-1.5.6-1.8.29s1.27-.3,1.12-1.87c-1.46,0-1.19,1-1.54.88s.41-1-.91-1.74c-.75,1.38.27,1.81.06,2s-.61-.8-1.88-.36c.34,1.7,2,1,1.76,1.55s-1.28-.7-1.72.61a1.55,1.55,0,0,0,2.43.4c.14,2.21,1.59,2.39,3.2,3.93-4.31-1.79-9.54.41-11.52.69a3.14,3.14,0,0,0,1.68,1.69C65,26.84,65,27.46,64.22,28.28c0,0,1.63,1.79,4,0m-2.44-.34a11.85,11.85,0,0,1,2.45-2.54,3.92,3.92,0,0,1-2-.85c1.5-.4,4.65-1.53,7.33-1,.88.12,1.38.48,1.06.68A15.91,15.91,0,0,0,70.07,30a4,4,0,0,1-.42-3.8c-2.26,1.37-2.86,2-3.92,1.77" transform="translate(0 0)"/><path class="cls-5" d="M102.1,26.63v1.3a1.62,1.62,0,0,1,1.31-.43v1.87a2.78,2.78,0,0,1-.36,1.32h1.87a2.79,2.79,0,0,1-.36-1.32V27.49a1.61,1.61,0,0,1,1.31.43v-1.3H102.1Z" transform="translate(0 0)"/></svg>